<svg width="31" height="31" viewBox="0 0 31 31" fill="none" xmlns="http://www.w3.org/2000/svg">
<g clip-path="url(#clip0_1105_8284)">
<path fill-rule="evenodd" clip-rule="evenodd" d="M15.2958 0.945801C23.2301 0.945801 29.6619 7.37754 29.6619 15.3119C29.6619 23.2462 23.2301 29.678 15.2958 29.678C7.36143 29.678 0.929688 23.2462 0.929688 15.3119C0.929688 7.37754 7.36143 0.945801 15.2958 0.945801ZM19.1227 13.491C19.0536 12.9236 18.8788 12.4775 18.5697 12.0823C18.1666 11.5736 17.6527 11.2697 16.891 11.0897C16.3953 10.9697 16.1945 10.9828 16.0158 11.1471C15.8488 11.301 15.8162 11.6088 15.944 11.8071C16.0327 11.9519 16.1371 12.0041 16.4253 12.0601C16.8088 12.1319 17.0736 12.2232 17.3149 12.3601C17.8275 12.6562 18.0662 13.1193 18.091 13.868C18.104 14.2201 18.134 14.3284 18.2566 14.4523C18.4836 14.6806 18.8893 14.6362 19.0614 14.3636C19.124 14.2606 19.1345 14.2162 19.1397 13.9775C19.1444 13.8152 19.1388 13.6527 19.1227 13.491ZM19.1306 10.0084C20.3475 10.9932 21.0284 12.3915 21.1288 14.1301C21.1719 14.8162 21.1158 15.0393 20.8732 15.1658C20.7719 15.2233 20.6543 15.245 20.5392 15.2272C20.4241 15.2095 20.3184 15.1533 20.2393 15.068C20.1258 14.9532 20.0827 14.7941 20.0853 14.5162C20.0893 13.7441 19.9119 12.8819 19.6223 12.2832C19.2853 11.5846 18.7662 10.9898 18.1197 10.5615C17.5014 10.1646 16.7959 9.92381 16.064 9.85971C15.5893 9.81798 15.4197 9.73841 15.3284 9.51015C15.2745 9.35425 15.2834 9.18352 15.3532 9.03406C15.4282 8.92748 15.5337 8.84609 15.6558 8.80058C15.7601 8.77058 16.3732 8.82406 16.7058 8.88928C17.5921 9.06258 18.4237 9.44641 19.1306 10.0084ZM23.3488 20.8293C23.3038 20.71 23.247 20.5955 23.1793 20.4875C22.8206 19.9488 20.9019 18.4462 19.9432 17.9545C19.3953 17.6741 18.991 17.5801 18.691 17.6675C18.3662 17.7588 18.1953 17.9088 17.6553 18.5819C17.4362 18.8519 17.2119 19.1049 17.1532 19.1441C16.9591 19.2596 16.7385 19.3234 16.5127 19.3293C16.0393 19.3267 15.1797 19.0201 14.5197 18.6171C14.0058 18.3041 13.3484 17.7445 12.8436 17.1915C12.2475 16.5406 11.8419 15.9667 11.5223 15.3197C11.1075 14.4875 11.0032 13.9788 11.1766 13.6071C11.2109 13.5286 11.2524 13.4535 11.3006 13.3828C11.3266 13.3541 11.5927 13.1349 11.8875 12.8975C12.4666 12.4371 12.5593 12.3328 12.6675 12.0171C12.8032 11.6167 12.7666 11.2084 12.5566 10.7962C12.3949 10.4832 11.9723 9.80232 11.6671 9.36145C11.2614 8.78232 10.2519 7.5445 10.0497 7.37754C9.68708 7.08145 9.22273 7.03058 8.70882 7.23015C8.16751 7.43884 7.15273 8.25797 6.71838 8.82797C6.32708 9.3445 6.17708 9.71102 6.15491 10.1936C6.13534 10.5915 6.16795 10.7558 6.37925 11.2645C8.02012 15.2519 10.4697 18.4345 13.8362 20.9623C15.5932 22.2823 17.4166 23.288 19.3079 23.9754C20.4114 24.3758 20.8901 24.3954 21.4549 24.0667C21.6923 23.9232 22.2819 23.3193 22.6106 22.8797C23.1558 22.1467 23.3566 21.8088 23.414 21.5388C23.4532 21.3536 23.4219 21.0341 23.3488 20.8293ZM22.6236 11.8397C22.9616 12.6979 23.1469 13.6086 23.1714 14.5306C23.1769 14.7945 23.1734 15.0586 23.161 15.3223C23.1349 15.7841 23.1088 15.8767 22.9771 15.9993C22.7632 16.1988 22.3458 16.1519 22.188 15.9093C22.1045 15.7788 22.094 15.6849 22.1097 15.1449C22.1553 13.5471 21.8319 12.2949 21.0532 11.0441C20.1232 9.54406 18.7314 8.53189 16.9223 8.03754C16.4446 7.9078 15.9581 7.81277 15.4666 7.75319C15.0727 7.70102 14.9866 7.68015 14.8901 7.62015C14.5953 7.43232 14.5914 6.95493 14.8849 6.7645C15.0362 6.66406 15.1471 6.66015 15.6401 6.72276C17.084 6.90276 18.3727 7.33189 19.4319 7.98145C20.191 8.4458 20.6697 8.8645 21.2853 9.59624C21.9375 10.3788 22.2819 10.9554 22.6236 11.8397Z" fill="black"/>
</g>
<defs>
<clipPath id="clip0_1105_8284">
<rect width="30" height="30" fill="white" transform="translate(0.929688 0.330078)"/>
</clipPath>
</defs>
</svg>
