<svg xmlns:xlink="http://www.w3.org/1999/xlink" xmlns="http://www.w3.org/2000/svg" width="31" height="31" viewBox="0 0 31 31" fill="none">
<g clip-path="url(#clip0_1294_6002)">
<path d="M13.1573 18.3811L12.9023 22.2051C13.2773 22.2051 13.4423 22.0331 13.6523 21.8301L15.4543 20.0781L19.2023 22.8481C19.8923 23.2281 20.3903 23.0311 20.5623 22.2071L23.0223 10.6121C23.2743 9.60208 22.6373 9.14308 21.9773 9.44308L7.52834 15.0141C6.54234 15.4101 6.54834 15.9601 7.34834 16.2051L11.0573 17.3631L19.6413 11.9471C20.0463 11.7011 20.4183 11.8331 20.1133 12.1041L13.1573 18.3811ZM15.6523 30.3301C7.36834 30.3301 0.652344 23.6141 0.652344 15.3301C0.652344 7.04608 7.36834 0.330078 15.6523 0.330078C23.9363 0.330078 30.6523 7.04608 30.6523 15.3301C30.6523 23.6141 23.9363 30.3301 15.6523 30.3301Z" fill="#262626"/>
</g>
<defs>
<clipPath id="clip0_1294_6002">
<rect width="30" height="30" fill="white" transform="translate(0.652344 0.330078)"/>
</clipPath>
</defs>
</svg>