<svg xmlns:xlink="http://www.w3.org/1999/xlink" xmlns="http://www.w3.org/2000/svg" width="31" height="31" viewBox="0 0 31 31" fill="none">
<g clip-path="url(#clip0_1294_5996)">
<path d="M0.652344 15.3301C0.652344 7.04608 7.36834 0.330078 15.6523 0.330078C23.9363 0.330078 30.6523 7.04608 30.6523 15.3301C30.6523 23.6141 23.9363 30.3301 15.6523 30.3301C7.36834 30.3301 0.652344 23.6141 0.652344 15.3301ZM23.3183 11.6261C23.2305 11.2811 23.0535 10.9653 22.8052 10.7103C22.5569 10.4553 22.2458 10.27 21.9033 10.1731C20.6553 9.83008 15.6523 9.83008 15.6523 9.83008C15.6523 9.83008 10.6493 9.83008 9.40134 10.1731C9.05884 10.27 8.74784 10.4553 8.49949 10.7103C8.25115 10.9653 8.07419 11.2811 7.98634 11.6261C7.65234 12.9061 7.65234 15.5801 7.65234 15.5801C7.65234 15.5801 7.65234 18.2531 7.98634 19.5341C8.07428 19.879 8.25127 20.1947 8.4996 20.4497C8.74793 20.7047 9.05889 20.89 9.40134 20.9871C10.6493 21.3301 15.6523 21.3301 15.6523 21.3301C15.6523 21.3301 20.6553 21.3301 21.9033 20.9871C22.2458 20.89 22.5568 20.7047 22.8051 20.4497C23.0534 20.1947 23.2304 19.879 23.3183 19.5341C23.6523 18.2531 23.6523 15.5801 23.6523 15.5801C23.6523 15.5801 23.6523 12.9071 23.3183 11.6261Z" fill="#262626"/>
<path d="M14.1523 18.3301V13.3301L18.1523 15.8301L14.1523 18.3301Z" fill="#262626"/>
</g>
<defs>
<clipPath id="clip0_1294_5996">
<rect width="30" height="30" fill="white" transform="translate(0.652344 0.330078)"/>
</clipPath>
</defs>
</svg>