<svg width="424" height="208" viewBox="0 0 424 208" fill="none" xmlns="http://www.w3.org/2000/svg">
<path fill-rule="evenodd" clip-rule="evenodd" d="M424 16C424 7.16344 416.837 0 408 0H16C7.16344 0 0 7.16344 0 16V192C0 200.836 7.16344 208 16 208H221.45C225.504 208 229.406 206.462 232.369 203.696L244.399 192.465C247.362 189.699 251.264 188.161 255.318 188.161H362.468C366.793 188.161 370.933 189.912 373.946 193.014L383.786 203.147C386.799 206.249 390.939 208 395.264 208L408 208C416.837 208 424 200.837 424 192V16Z" fill="black"/>
</svg>
