<svg xmlns:xlink="http://www.w3.org/1999/xlink" xmlns="http://www.w3.org/2000/svg" width="31" height="31" viewBox="0 0 31 31" fill="none">
<path d="M15.6996 30.3308C23.9581 30.3308 30.653 23.6359 30.653 15.3773C30.653 7.11872 23.9581 0.423828 15.6996 0.423828C7.44099 0.423828 0.746094 7.11872 0.746094 15.3773C0.746094 23.6359 7.44099 30.3308 15.6996 30.3308Z" fill="#252626"/>
<path fill-rule="evenodd" clip-rule="evenodd" d="M15.6066 7.4043C12.3181 7.4043 10.0533 7.4043 8.87444 8.55218C7.72656 9.73108 7.72656 12.0889 7.72656 15.2843C11.2633 15.1913 12.8765 15.0982 14.1485 13.8262C15.4205 12.5542 15.5135 10.941 15.6066 7.4043ZM8.87444 22.1716C7.72656 20.9927 7.72656 18.6349 7.72656 15.4395C11.2633 15.5325 12.8765 15.6256 14.1485 16.8976C15.3894 18.1696 15.4825 19.7828 15.6066 23.3195C12.3181 23.3195 10.0533 23.3195 8.87444 22.1716ZM15.7927 23.3195C15.8858 19.7828 15.9789 18.1696 17.2509 16.8976C18.5228 15.6566 20.1361 15.5636 23.6728 15.4395C23.6728 18.6039 23.6728 20.9927 22.5249 22.1716C21.346 23.3195 19.0502 23.3195 15.7927 23.3195ZM15.7927 7.4043C15.8858 10.941 15.9789 12.5542 17.2509 13.8262C18.5228 15.0672 20.1361 15.1602 23.6728 15.2843C23.6728 12.1199 23.6728 9.73108 22.5249 8.55218C21.346 7.43532 19.0502 7.4043 15.7927 7.4043Z" fill="white"/>
<path fill-rule="evenodd" clip-rule="evenodd" d="M23.6415 15.4705V15.3774V15.2843C20.1048 15.1913 18.4916 15.0982 17.2196 13.8262C15.9787 12.5542 15.8856 10.941 15.7615 7.4043H15.6684H15.5754C15.4823 10.941 15.3892 12.5542 14.1172 13.8262C12.8453 15.0672 11.232 15.1602 7.69531 15.2843V15.3774V15.4705C11.232 15.5636 12.8453 15.6566 14.1172 16.9286C15.3582 18.2006 15.4513 19.8138 15.5754 23.3505H15.6684H15.7615C15.8546 19.8138 15.9476 18.2006 17.2196 16.9286C18.5226 15.6566 20.1358 15.5636 23.6415 15.4705Z" fill="#252626"/>
</svg>