<svg width="31" height="31" viewBox="0 0 31 31" fill="none" xmlns="http://www.w3.org/2000/svg">
<g clip-path="url(#clip0_1105_8293)">
<path fill-rule="evenodd" clip-rule="evenodd" d="M30.9294 15.3119C30.9294 23.2462 24.499 29.678 16.5634 29.678C8.629 29.678 2.19727 23.2462 2.19727 15.3119C2.19727 7.37754 8.629 0.945801 16.5634 0.945801C24.4977 0.945801 30.9294 7.37754 30.9294 15.3119ZM11.8168 13.9958C10.3781 14.6245 8.90031 15.2701 7.5477 16.0149C6.84205 16.5315 7.77987 16.8967 8.66031 17.241C8.79987 17.2945 8.93814 17.348 9.06857 17.4028C9.17683 17.4354 9.2877 17.4706 9.39857 17.5071C10.3768 17.8188 11.4699 18.1658 12.4207 17.6428C13.982 16.7454 15.4547 15.7097 16.9273 14.6728C17.4099 14.3336 17.8925 13.9945 18.3777 13.6593L18.4547 13.6097C18.8668 13.3423 19.7981 12.7397 19.4538 13.5706C18.6399 14.4588 17.7699 15.2467 16.8934 16.0384C16.3038 16.5719 15.7103 17.1067 15.1325 17.6767C14.629 18.0862 14.106 18.908 14.6694 19.4819C15.9686 20.391 17.2886 21.278 18.606 22.1649C19.0364 22.4532 19.4642 22.7415 19.892 23.031C20.6186 23.6101 21.752 23.1419 21.9125 22.2354L22.1251 20.9871C22.519 18.6862 22.9129 16.3828 23.2599 14.0741C23.3081 13.7128 23.3616 13.3501 23.4151 12.9875C23.5455 12.1097 23.676 11.2306 23.7151 10.3475C23.6107 9.4671 22.5425 9.66015 21.9477 9.85841C18.8948 11.0323 15.863 12.2603 12.8538 13.5419C12.512 13.6932 12.1664 13.8432 11.8168 13.9958Z" fill="black"/>
</g>
<defs>
<clipPath id="clip0_1105_8293">
<rect width="30" height="30" fill="white" transform="translate(0.929688 0.330078)"/>
</clipPath>
</defs>
</svg>
