<svg xmlns:xlink="http://www.w3.org/1999/xlink" xmlns="http://www.w3.org/2000/svg" width="31" height="31" viewBox="0 0 31 31" fill="none">
<g clip-path="url(#clip0_1294_6014)">
<path fill-rule="evenodd" clip-rule="evenodd" d="M15.6523 0.330078C7.36734 0.330078 0.652344 7.04508 0.652344 15.3301C0.652344 23.6151 7.36734 30.3301 15.6523 30.3301C23.9373 30.3301 30.6523 23.6151 30.6523 15.3301C30.6523 7.04508 23.9373 0.330078 15.6523 0.330078ZM18.7863 7.33008V7.34308C18.7873 7.58708 18.8603 11.1081 22.6503 11.3281C22.6503 14.6041 22.6523 11.3281 22.6523 14.0481C22.3673 14.0651 20.1573 13.9091 18.7823 12.7131L18.7783 18.0101C18.8123 20.4081 17.4433 22.7601 14.8793 23.2341C14.1613 23.3671 13.5143 23.3821 12.4293 23.1501C6.17534 21.3261 8.25334 12.2831 14.5323 13.2501C14.5323 16.1701 14.5343 13.2501 14.5343 16.1701C11.9403 15.7981 11.0723 17.9021 11.7623 19.4091C12.3893 20.7801 14.9723 21.0781 15.8723 19.1431C15.9753 18.7641 16.0263 18.3331 16.0263 17.8471V7.33008H18.7863Z" fill="#252626"/>
</g>
<defs>
<clipPath id="clip0_1294_6014">
<rect width="30" height="30" fill="white" transform="translate(0.652344 0.330078)"/>
</clipPath>
</defs>
</svg>