<svg xmlns:xlink="http://www.w3.org/1999/xlink" xmlns="http://www.w3.org/2000/svg" width="31" height="31" viewBox="0 0 31 31" fill="none">
<g clip-path="url(#clip0_1294_6006)">
<path d="M11.4523 10.9851C12.2823 10.9851 12.8123 11.4051 12.8103 12.9281V18.1361C12.8103 19.4961 12.3203 20.0951 11.4243 20.0951H10.5143V10.9851H11.4523ZM15.6523 0.330078C23.9353 0.330078 30.6523 7.04508 30.6523 15.3301C30.6523 23.6151 23.9373 30.3301 15.6523 30.3301C7.36734 30.3301 0.652344 23.6151 0.652344 15.3301C0.652344 7.04508 7.36734 0.330078 15.6523 0.330078ZM15.3693 18.3001V12.7671C15.3693 9.49108 13.7903 8.63408 11.5883 8.63408H7.97234V22.4481H11.5883C13.9153 22.4481 15.3683 21.4151 15.3683 18.3011L15.3693 18.3001ZM23.3723 20.2171V20.2191H19.4143L22.1883 15.8001C22.9783 14.5371 23.4663 13.5721 23.4663 12.1701C23.4663 9.58708 22.1883 8.51308 20.0543 8.51308C17.9863 8.51308 16.5453 9.76308 16.5453 12.5371H18.9663C18.9953 11.0671 19.4163 10.7151 20.0413 10.7151C20.7213 10.7151 21.0343 11.1091 21.0343 12.1551C21.0343 13.0251 20.7473 13.6651 20.3133 14.3571L16.6423 20.2171V22.4471H23.3723V20.2171Z" fill="#262626"/>
</g>
<defs>
<clipPath id="clip0_1294_6006">
<rect width="30" height="30" fill="white" transform="translate(0.652344 0.330078)"/>
</clipPath>
</defs>
</svg>