<svg width="31" height="31" viewBox="0 0 31 31" fill="none" xmlns="http://www.w3.org/2000/svg">
<g clip-path="url(#clip0_1105_8288)">
<path fill-rule="evenodd" clip-rule="evenodd" d="M15.9297 30.3301C7.64569 30.3301 0.929688 23.6141 0.929688 15.3301C0.929688 7.04608 7.64569 0.330078 15.9297 0.330078C24.2137 0.330078 30.9297 7.04608 30.9297 15.3301C30.9297 23.6141 24.2137 30.3301 15.9297 30.3301ZM16.4237 23.6751C21.3417 23.6731 25.3417 19.6731 25.3437 14.7551C25.3474 13.583 25.1186 12.4218 24.6706 11.3387C24.2226 10.2556 23.5643 9.27209 22.7337 8.44508C21.9072 7.61345 20.9239 6.9541 19.8407 6.50523C18.7576 6.05635 17.5962 5.82687 16.4237 5.83008C11.5077 5.83008 7.50669 9.83108 7.50369 14.7491C7.50369 16.3211 7.91369 17.8551 8.69469 19.2081L7.42969 23.8301L12.1577 22.5901C13.4657 23.3023 14.9313 23.6753 16.4207 23.6751H16.4237Z" fill="black"/>
<path fill-rule="evenodd" clip-rule="evenodd" d="M12.3758 20.9752L9.56977 21.7112L10.3198 18.9752L10.1428 18.6952C9.4003 17.5131 9.0075 16.1451 9.00978 14.7492C9.01078 10.6622 12.3368 7.33618 16.4258 7.33618C18.4058 7.33718 20.2678 8.10918 21.6668 9.51118C22.3571 10.1985 22.9043 11.0158 23.2768 11.9159C23.6492 12.816 23.8396 13.7811 23.8368 14.7552C23.8348 18.8432 20.5088 22.1692 16.4228 22.1692H16.4198C15.0922 22.169 13.789 21.8119 12.6468 21.1352L12.3768 20.9752H12.3758ZM20.9158 16.8772C20.8608 16.7842 20.7128 16.7282 20.4898 16.6172C20.2668 16.5052 19.1708 15.9662 18.9668 15.8912C18.7628 15.8172 18.6138 15.7802 18.4648 16.0032C18.3168 16.2262 17.8898 16.7282 17.7598 16.8772C17.6298 17.0252 17.4998 17.0442 17.2768 16.9332C17.0538 16.8212 16.3358 16.5862 15.4848 15.8262C14.8218 15.2362 14.3748 14.5062 14.2448 14.2832C14.1148 14.0592 14.2308 13.9392 14.3428 13.8282C14.4428 13.7282 14.5648 13.5682 14.6768 13.4382C14.7878 13.3082 14.8248 13.2142 14.8998 13.0652C14.9738 12.9172 14.9368 12.7872 14.8808 12.6752C14.8248 12.5632 14.3798 11.4662 14.1938 11.0202C14.0128 10.5862 13.8288 10.6452 13.6918 10.6382C13.5495 10.6321 13.4072 10.6294 13.2648 10.6302C13.1519 10.6332 13.0408 10.6596 12.9386 10.7076C12.8364 10.7556 12.7452 10.8242 12.6708 10.9092C12.4668 11.1322 11.8908 11.6712 11.8908 12.7682C11.8908 13.8652 12.6898 14.9252 12.8008 15.0732C12.9118 15.2232 14.3728 17.4732 16.6078 18.4392C17.1398 18.6692 17.5548 18.8052 17.8778 18.9082C18.4128 19.0782 18.8978 19.0542 19.2818 18.9962C19.7108 18.9322 20.6018 18.4572 20.7868 17.9362C20.9728 17.4162 20.9728 16.9702 20.9168 16.8762L20.9158 16.8772Z" fill="black"/>
</g>
<defs>
<clipPath id="clip0_1105_8288">
<rect width="30" height="30" fill="white" transform="translate(0.929688 0.330078)"/>
</clipPath>
</defs>
</svg>
