<svg xmlns:xlink="http://www.w3.org/1999/xlink" xmlns="http://www.w3.org/2000/svg" width="31" height="31" viewBox="0 0 31 31" fill="none">
<g clip-path="url(#clip0_1294_6010)">
<path fill-rule="evenodd" clip-rule="evenodd" d="M15.6523 0.330078C7.36734 0.330078 0.652344 7.04508 0.652344 15.3301C0.652344 23.6151 7.36734 30.3301 15.6523 30.3301C23.9373 30.3301 30.6523 23.6151 30.6523 15.3301C30.6523 7.04508 23.9373 0.330078 15.6523 0.330078ZM23.8463 21.3921H21.9013C21.1643 21.3921 20.9383 20.7881 19.6163 19.4661C18.4643 18.3521 17.9543 18.2001 17.6713 18.2001C17.2743 18.2001 17.1613 18.2951 17.1613 18.8611V20.6181C17.1613 21.0901 17.0103 21.3731 15.7633 21.3731C13.7053 21.3731 11.4203 20.1271 9.81534 17.8031C7.39834 14.4051 6.73734 11.8361 6.73734 11.3261C6.73734 11.0431 6.83134 10.7791 7.39734 10.7791H9.36234C9.85234 10.7791 10.0423 10.9871 10.2303 11.5341C11.1933 14.3101 12.7993 16.7461 13.4603 16.7461C13.7053 16.7461 13.8183 16.6331 13.8183 16.0101V13.1401C13.7433 11.8171 13.0443 11.7041 13.0443 11.2321C13.0443 11.0051 13.2333 10.7791 13.5353 10.7791H16.5953C17.0103 10.7791 17.1613 11.0051 17.1613 11.4961V15.3681C17.1613 15.7831 17.3313 15.9341 17.4633 15.9341C17.7093 15.9341 17.9163 15.7841 18.3693 15.3301C19.7673 13.7631 20.7683 11.3451 20.7683 11.3451C20.9003 11.0621 21.1273 10.7981 21.6183 10.7981H23.5633C24.1483 10.7981 24.2803 11.1001 24.1483 11.5151C23.9033 12.6481 21.5233 16.0101 21.5423 16.0101C21.3343 16.3501 21.2593 16.5001 21.5423 16.8791C21.7503 17.1621 22.4303 17.7471 22.8823 18.2761C23.7143 19.2201 24.3563 20.0131 24.5263 20.5611C24.6763 21.1091 24.4133 21.3921 23.8463 21.3921Z" fill="#252626"/>
</g>
<defs>
<clipPath id="clip0_1294_6010">
<rect width="30" height="30" fill="white" transform="translate(0.652344 0.330078)"/>
</clipPath>
</defs>
</svg>