<svg xmlns:xlink="http://www.w3.org/1999/xlink" xmlns="http://www.w3.org/2000/svg" width="40" height="40" viewBox="0 0 40 40" fill="none">
<path d="M16.8438 1.91844L23.1341 1.90527L23.1334 3.93597C23.4915 3.99905 23.8456 4.10132 24.1959 4.19816C24.4162 4.25847 24.6351 4.32327 24.8527 4.39257C25.0703 4.46187 25.2864 4.5356 25.501 4.61378C25.7155 4.69193 25.9284 4.77446 26.1396 4.86136C26.3508 4.94826 26.5601 5.03945 26.7675 5.13491C26.975 5.23038 27.1804 5.33007 27.3837 5.43398C27.5871 5.53788 27.7882 5.64592 27.9872 5.75808C28.1861 5.87024 28.3827 5.98642 28.5768 6.10663C28.771 6.22684 28.9626 6.35098 29.1517 6.47905C29.6732 5.93698 30.2253 5.42038 30.7538 4.88413C31.3942 5.54679 32.0736 6.17429 32.7258 6.82577L34.18 8.26898C34.4747 8.56218 34.7609 8.8646 35.0676 9.1453C34.5058 9.71452 33.9465 10.2996 33.3611 10.8442C33.4591 11.0343 33.5853 11.217 33.6968 11.4C33.8681 11.6787 34.0294 11.9631 34.1808 12.2531C34.9583 13.7364 35.4474 15.2709 35.7928 16.9056C36.5648 16.9194 37.34 16.8998 38.1123 16.8934C38.1096 18.9629 38.1445 21.0384 38.1027 23.1073C37.3292 23.1157 36.5557 23.1181 35.7822 23.1145C35.3908 25.0735 34.4062 27.1296 33.2653 28.7599L35.1111 30.6016C34.5811 31.1594 34.0196 31.6963 33.4758 32.2417L30.7909 34.9248C30.2393 34.3268 29.6355 33.7643 29.0514 33.198C28.6311 33.4614 28.2113 33.7274 27.7762 33.966C27.5944 34.0653 27.4108 34.1611 27.2254 34.2535C27.04 34.3459 26.8529 34.4347 26.6642 34.52C26.4754 34.6054 26.2851 34.6871 26.0933 34.7653C25.9014 34.8434 25.7082 34.9179 25.5135 34.9888C25.3189 35.0596 25.123 35.1268 24.9258 35.1903C24.7287 35.2538 24.5303 35.3135 24.3309 35.3695C24.1315 35.4255 23.9311 35.4778 23.7297 35.5262C23.5283 35.5746 23.326 35.6193 23.1229 35.6601C23.1444 36.4491 23.1285 37.242 23.1286 38.0314L23.1205 38.0709C23.0235 38.1087 17.5191 38.0821 16.8431 38.0851L16.8401 35.6383C14.9236 35.2831 12.6092 34.3429 11.008 33.2464C10.668 33.5928 10.3249 33.9363 9.97889 34.2768C9.7474 34.5068 9.52049 34.7466 9.2765 34.9633C8.50092 34.1764 7.70861 33.4052 6.92553 32.6257C6.23904 31.9424 5.56256 31.2467 4.85842 30.5816C5.4654 29.9735 6.06908 29.3622 6.66947 28.7476C5.48943 27.0271 4.68283 25.1316 4.19443 23.1075C3.41846 23.1267 2.64329 23.1198 1.86719 23.1243L1.87262 16.895C2.64064 16.8982 3.40865 16.8974 4.17666 16.8926C4.65936 14.6191 5.40061 12.7985 6.63193 10.8264L4.96795 9.14359C5.36295 8.70964 5.80283 8.31226 6.21459 7.89382C7.22596 6.86597 8.24486 5.83702 9.2849 4.83835C9.84404 5.37863 10.3928 5.92984 10.9603 6.46124C11.4758 6.1532 11.9695 5.82405 12.4981 5.53542C13.8435 4.80085 15.3438 4.268 16.8387 3.94183C16.8585 3.2687 16.8364 2.59215 16.8438 1.91844Z" fill="#D23008"/>
<path d="M19.4089 6.53366L19.4459 6.53175C19.5526 6.52714 19.6594 6.52383 19.7662 6.52182C19.873 6.51982 19.9798 6.51913 20.0866 6.51975C20.1934 6.52035 20.3002 6.52227 20.407 6.5255C20.5137 6.5287 20.6205 6.53322 20.7271 6.53905C20.8338 6.54488 20.9403 6.55202 21.0468 6.56046C21.1533 6.56889 21.2597 6.57863 21.3659 6.58968C21.4721 6.60072 21.5782 6.61305 21.6842 6.62667C21.7901 6.64029 21.8959 6.65521 22.0015 6.67143C22.107 6.68766 22.2124 6.70516 22.3176 6.72393C22.4227 6.74274 22.5276 6.76281 22.6322 6.78417C22.7369 6.80552 22.8413 6.82815 22.9454 6.85206C23.0495 6.87597 23.1533 6.90115 23.2568 6.92761C23.3603 6.95404 23.4634 6.98175 23.5662 7.01073C23.669 7.03969 23.7715 7.06991 23.8736 7.10139C23.9757 7.13285 24.0773 7.16556 24.1786 7.19952C24.2799 7.23348 24.3807 7.26867 24.4811 7.30511C24.5815 7.34154 24.6815 7.37918 24.781 7.41804C24.8805 7.45692 24.9795 7.49701 25.078 7.53831C25.1765 7.57959 25.2745 7.62207 25.372 7.66577C25.4694 7.70944 25.5664 7.75431 25.6628 7.80038C25.7591 7.84642 25.8549 7.89365 25.9501 7.94206C26.0454 7.99044 26.14 8.03999 26.234 8.09069C26.328 8.14142 26.4214 8.19328 26.5141 8.24628C26.6069 8.29927 26.6989 8.35339 26.7904 8.40862C26.8818 8.46386 26.9725 8.52021 27.0626 8.57768C27.1526 8.63516 27.2419 8.69371 27.3305 8.75335C27.4191 8.81298 27.507 8.8737 27.5941 8.9355C27.6813 8.99729 27.7676 9.06015 27.8532 9.12405C27.9388 9.18796 28.0236 9.25291 28.1076 9.31889C28.1916 9.38488 28.2748 9.45188 28.3571 9.51987C28.4395 9.58789 28.521 9.65692 28.6017 9.72694C28.6824 9.79694 28.7622 9.86792 28.8411 9.93987C31.5413 12.3967 32.9739 15.602 33.1393 19.2321C33.2885 22.5056 31.9946 25.9294 29.7849 28.3385C29.7116 28.4193 29.6373 28.4992 29.562 28.5781C29.4867 28.657 29.4104 28.735 29.3332 28.8121C29.256 28.8891 29.1778 28.9652 29.0987 29.0403C29.0196 29.1154 28.9396 29.1896 28.8586 29.2627C28.7777 29.3358 28.6958 29.4079 28.6131 29.479C28.5304 29.5501 28.4468 29.6202 28.3623 29.6892C28.2778 29.7582 28.1925 29.8262 28.1064 29.8932C28.0202 29.9601 27.9333 30.0259 27.8455 30.0907C27.7577 30.1554 27.6692 30.2191 27.5798 30.2817C27.4904 30.3442 27.4003 30.4057 27.3094 30.466C27.2185 30.5263 27.1269 30.5855 27.0346 30.6436C26.9422 30.7017 26.8492 30.7586 26.7555 30.8144C26.6617 30.8701 26.5673 30.9247 26.4722 30.9781C26.377 31.0316 26.2813 31.0838 26.1849 31.1348C26.0885 31.1859 25.9915 31.2358 25.8938 31.2844C25.7962 31.333 25.698 31.3805 25.5992 31.4267C25.5003 31.4729 25.401 31.5179 25.301 31.5616C25.2011 31.6054 25.1007 31.6479 24.9997 31.6891C24.8987 31.7304 24.7972 31.7704 24.6953 31.8092C24.5933 31.8479 24.4908 31.8854 24.388 31.9216C24.2851 31.9578 24.1817 31.9927 24.078 32.0264C23.9742 32.06 23.87 32.0924 23.7655 32.1235C23.6609 32.1546 23.556 32.1843 23.4506 32.2128C23.3454 32.2413 23.2397 32.2684 23.1337 32.2943C23.0278 32.3201 22.9215 32.3447 22.8149 32.3679C22.7083 32.3911 22.6015 32.413 22.4943 32.4336C22.3872 32.4542 22.2798 32.4734 22.1722 32.4914C22.0646 32.5093 21.9568 32.5258 21.8488 32.5411C21.7408 32.5563 21.6326 32.5702 21.5242 32.5828C21.4159 32.5954 21.3074 32.6066 21.1987 32.6165C21.0901 32.6263 20.9814 32.6349 20.8725 32.6421C20.7637 32.6492 20.6547 32.6551 20.5458 32.6596C20.485 32.6634 20.4243 32.6666 20.3635 32.6691C20.0387 32.6801 19.7141 32.6779 19.3896 32.6625C19.065 32.6472 18.7416 32.6187 18.4194 32.577C18.3345 32.5672 18.2497 32.5565 18.165 32.545C18.0803 32.5335 17.9958 32.5211 17.9113 32.5079C17.8268 32.4947 17.7425 32.4807 17.6583 32.4658C17.5742 32.451 17.4902 32.4353 17.4063 32.4188C17.3224 32.4023 17.2387 32.3849 17.1552 32.3667C17.0717 32.3486 16.9883 32.3296 16.9052 32.3097C16.822 32.2899 16.7391 32.2693 16.6563 32.2478C16.5736 32.2263 16.4911 32.2041 16.4088 32.1809C16.3265 32.1579 16.2444 32.1339 16.1626 32.1092C16.0808 32.0845 15.9992 32.059 15.9179 32.0326C15.8366 32.0063 15.7555 31.9791 15.6747 31.9512C15.594 31.9233 15.5135 31.8945 15.4332 31.865C15.353 31.8355 15.2731 31.8051 15.1935 31.774C15.1139 31.7429 15.0346 31.711 14.9556 31.6783C14.8766 31.6457 14.798 31.6122 14.7196 31.578C14.6413 31.5437 14.5633 31.5087 14.4857 31.4729C14.4081 31.4371 14.3308 31.4006 14.2539 31.3633C14.177 31.326 14.1005 31.2879 14.0243 31.2491C13.9482 31.2103 13.8724 31.1707 13.797 31.1304C13.7216 31.09 13.6467 31.049 13.5721 31.0072C13.4976 30.9654 13.4234 30.9228 13.3497 30.8796C13.276 30.8363 13.2027 30.7923 13.1299 30.7476C13.057 30.7029 12.9846 30.6574 12.9127 30.6112C12.8407 30.5651 12.7692 30.5182 12.6982 30.4707C12.6272 30.4231 12.5567 30.3748 12.4866 30.3258C12.4165 30.2769 12.347 30.2272 12.2779 30.1769C12.2088 30.1266 12.1402 30.0755 12.0722 30.0239C12.0041 29.9722 11.9365 29.9198 11.8695 29.8667C11.8024 29.8137 11.7359 29.76 11.67 29.7057C11.604 29.6513 11.5386 29.5963 11.4737 29.5407C11.4088 29.485 11.3445 29.4288 11.2807 29.3718C11.2169 29.3149 11.1537 29.2574 11.0911 29.1992C11.0122 29.1272 10.9343 29.0542 10.8572 28.9803C10.7801 28.9063 10.704 28.8314 10.6287 28.7556C10.5535 28.6798 10.4792 28.6031 10.4059 28.5254C10.3325 28.4478 10.2602 28.3693 10.1888 28.2898C10.1173 28.2104 10.0469 28.1301 9.97748 28.049C9.90806 27.9678 9.83963 27.8858 9.77221 27.803C9.70481 27.7201 9.63843 27.6365 9.57307 27.552C9.5077 27.4675 9.44339 27.3822 9.38014 27.2962C9.31688 27.2101 9.2547 27.1233 9.19358 27.0357C9.13243 26.9482 9.07239 26.8598 9.01346 26.7708C8.9545 26.6817 8.89665 26.5919 8.8399 26.5014C8.78316 26.411 8.72755 26.3198 8.67307 26.2279C8.61856 26.1361 8.56519 26.0436 8.51295 25.9504C8.46074 25.8572 8.40967 25.7634 8.35975 25.669C8.30985 25.5746 8.26112 25.4796 8.21354 25.3839C8.16596 25.2883 8.11957 25.1921 8.07436 25.0954C8.02912 24.9986 7.9851 24.9013 7.94229 24.8035C7.89948 24.7056 7.85787 24.6072 7.81748 24.5084C7.77709 24.4095 7.73791 24.3102 7.69994 24.2103C7.662 24.1105 7.62528 24.0102 7.58979 23.9095C7.55432 23.8087 7.52007 23.7076 7.48705 23.606C7.45406 23.5044 7.42233 23.4024 7.39186 23.3001C7.36136 23.1977 7.33213 23.095 7.30416 22.9919C7.27619 22.8888 7.2495 22.7854 7.22408 22.6817C7.19867 22.578 7.17454 22.4739 7.1517 22.3696C7.12884 22.2652 7.10726 22.1607 7.08697 22.0558C7.06669 21.9509 7.0477 21.8458 7.03002 21.7405C7.01231 21.6352 6.99591 21.5297 6.9808 21.4239C6.9657 21.3182 6.9519 21.2123 6.9394 21.1062C6.9269 21.0001 6.91571 20.8939 6.90584 20.7876C6.89595 20.6813 6.88737 20.5748 6.8801 20.4682C6.87283 20.3617 6.86688 20.255 6.86225 20.1483C6.85795 20.0423 6.85496 19.9362 6.85326 19.8301C6.85155 19.724 6.85113 19.6179 6.85201 19.5118C6.8529 19.4057 6.85507 19.2996 6.85854 19.1935C6.86198 19.0875 6.86671 18.9815 6.87276 18.8755C6.8788 18.7696 6.88613 18.6637 6.89475 18.558C6.90337 18.4522 6.91326 18.3466 6.92444 18.241C6.93563 18.1355 6.94811 18.0301 6.96186 17.9249C6.97561 17.8197 6.99063 17.7146 7.00694 17.6098C7.02326 17.5049 7.04086 17.4003 7.05971 17.2958C7.07856 17.1914 7.09868 17.0872 7.12006 16.9833C7.14144 16.8793 7.16408 16.7757 7.18799 16.6723C7.21192 16.5689 7.23709 16.4658 7.2635 16.363C7.28993 16.2602 7.3176 16.1578 7.34651 16.0557C7.37544 15.9536 7.40559 15.8519 7.43698 15.7505C7.46836 15.6491 7.50097 15.5481 7.53483 15.4476C7.56868 15.347 7.60375 15.2469 7.64002 15.1471C7.67632 15.0474 7.71382 14.9482 7.75252 14.8493C7.79122 14.7505 7.83112 14.6522 7.87221 14.5544C7.9133 14.4565 7.95558 14.3592 7.99905 14.2624C8.04251 14.1656 8.08714 14.0693 8.13295 13.9736C8.17876 13.8779 8.22571 13.7827 8.27381 13.6881C8.32194 13.5936 8.37121 13.4996 8.42162 13.4062C8.47204 13.3128 8.52358 13.2201 8.57623 13.1279C8.62889 13.0358 8.68267 12.9443 8.73756 12.8535C8.79246 12.7627 8.84845 12.6726 8.90553 12.5831C8.96261 12.4936 9.02078 12.4049 9.08002 12.3169C9.13927 12.2288 9.19958 12.1415 9.26096 12.0549C9.32234 11.9683 9.38476 11.8825 9.44823 11.7975C9.51166 11.7124 9.57614 11.6282 9.64166 11.5447C9.70716 11.4612 9.77367 11.3785 9.84119 11.2967C9.90872 11.2148 9.97724 11.1338 10.0467 11.0535C10.1162 10.9734 10.1867 10.894 10.2581 10.8155C12.6096 8.27897 15.9364 6.66222 19.4089 6.53366Z" fill="#FEFEFE"/>
<path d="M14.3639 13.1768C14.3848 13.1785 14.4044 13.1796 14.4251 13.1832C14.5968 13.2133 15.9332 14.5753 16.0739 14.7866C16.0809 14.8512 16.0937 14.9237 16.088 14.9885C16.0846 15.0259 16.0669 15.0625 16.0438 15.0915C15.8425 15.3449 15.5758 15.5711 15.345 15.799C15.1251 16.0161 14.9113 16.257 14.6771 16.4577C14.5895 16.5329 14.5374 16.5263 14.4277 16.5173C14.3386 16.494 14.2597 16.4668 14.184 16.413C13.9745 16.2639 12.7661 15.084 12.6484 14.9012C12.8799 14.5915 13.3054 14.2266 13.591 13.9491C13.8521 13.6954 14.0985 13.4257 14.3639 13.1768Z" fill="black"/>
<path d="M20.0533 8.05664C20.1457 8.05693 20.2381 8.05831 20.3305 8.06078C20.4228 8.06328 20.5152 8.06688 20.6075 8.07156C20.6997 8.07625 20.792 8.08203 20.8841 8.08891C20.9763 8.09581 21.0683 8.1038 21.1603 8.11289C21.2522 8.12195 21.3441 8.13212 21.4358 8.1434C21.5275 8.15467 21.6191 8.16704 21.7105 8.18051C21.8019 8.19395 21.8931 8.20848 21.9842 8.2241C22.0753 8.23975 22.1661 8.25647 22.2568 8.27426C22.3475 8.29204 22.438 8.31092 22.5282 8.3309C22.6184 8.35085 22.7084 8.37186 22.7981 8.39395C22.8878 8.41606 22.9773 8.43922 23.0664 8.46344C23.1556 8.48768 23.2445 8.51298 23.333 8.53934C23.4216 8.56566 23.5098 8.59306 23.5978 8.62152C23.6857 8.64999 23.7732 8.67948 23.8605 8.71C23.9477 8.74055 24.0345 8.77212 24.121 8.80473C24.2074 8.83736 24.2935 8.871 24.3791 8.90566C24.4648 8.94033 24.55 8.976 24.6348 9.0127C24.7197 9.04939 24.804 9.08708 24.8879 9.12578C24.9718 9.16451 25.0553 9.20421 25.1382 9.24488C25.2212 9.28559 25.3036 9.32727 25.3856 9.36992C25.4676 9.41258 25.549 9.45621 25.63 9.50082C25.7109 9.54543 25.7912 9.59099 25.8711 9.6375C25.9509 9.68404 26.0302 9.73151 26.1089 9.77992C26.1876 9.82833 26.2657 9.87767 26.3433 9.92793C26.4208 9.97822 26.4977 10.0294 26.5741 10.0815C26.6504 10.1336 26.726 10.1866 26.8011 10.2405C26.8761 10.2945 26.9505 10.3492 27.0242 10.4049C27.098 10.4606 27.1711 10.5172 27.2435 10.5746C27.3159 10.632 27.3876 10.6903 27.4586 10.7495C27.5296 10.8086 27.5999 10.8685 27.6694 10.9294C27.739 10.9902 27.8078 11.0518 27.8759 11.1143C27.9441 11.1767 28.0114 11.24 28.078 11.304C30.2848 13.4515 31.5743 16.3231 31.6159 19.4121C31.6596 22.6588 30.4562 25.4765 28.2012 27.793C27.2559 26.8699 26.3184 25.9389 25.3886 25.0003L19.8251 19.5098C18.8294 18.5286 17.8441 17.5316 16.8252 16.5746C17.0112 16.3936 17.2126 16.2134 17.3546 15.9945C17.5844 15.6399 17.5585 15.2678 17.5331 14.8638C17.5209 14.6702 17.5102 14.4726 17.4686 14.2827C17.4283 14.0991 17.3536 13.9328 17.2401 13.7829C16.9905 13.4531 16.5656 13.0879 16.2647 12.7914L15.457 11.9979C15.2387 11.7839 15.015 11.5401 14.7578 11.373C14.4937 11.3633 14.1492 11.3567 13.9056 11.4763C13.6907 11.5818 11.469 13.8062 11.214 14.0776C11.1669 14.1277 11.1136 14.1824 11.0914 14.2486C11.051 14.3688 11.0177 14.4877 10.9951 14.6125C10.948 14.8733 10.908 15.3057 11.0716 15.5326C11.2275 15.7487 12.9969 17.4761 13.2074 17.6106C13.5362 17.8207 14.0015 17.9702 14.3867 18.0273C14.9407 18.1214 15.2874 17.9382 15.736 17.6404L24.5269 26.3281L27.026 28.8037C26.9647 28.8494 26.903 28.8945 26.8409 28.9389C26.7787 28.9835 26.716 29.0273 26.653 29.0706C26.59 29.1139 26.5265 29.1566 26.4627 29.1986C26.3988 29.2406 26.3345 29.282 26.2699 29.3229C26.2052 29.3636 26.1401 29.4038 26.0747 29.4433C26.0092 29.4828 25.9434 29.5217 25.8772 29.5599C25.811 29.5982 25.7444 29.6357 25.6775 29.6727C25.6105 29.7096 25.5432 29.7459 25.4755 29.7815C25.4079 29.8171 25.3399 29.8521 25.2716 29.8864C25.2032 29.9207 25.1346 29.9543 25.0656 29.9873C24.9966 30.0203 24.9273 30.0526 24.8577 30.0842C24.788 30.1158 24.7181 30.1467 24.6479 30.177C24.5777 30.2072 24.5072 30.2367 24.4364 30.2656C24.3656 30.2945 24.2945 30.3227 24.2232 30.3502C24.1518 30.3777 24.0802 30.4045 24.0083 30.4305C23.9365 30.4566 23.8644 30.482 23.792 30.5067C23.7196 30.5314 23.647 30.5554 23.5742 30.5786C23.5014 30.6019 23.4283 30.6245 23.355 30.6463C23.2817 30.6682 23.2083 30.6893 23.1346 30.7097C23.0609 30.7301 22.987 30.7498 22.913 30.7688C22.8389 30.7877 22.7647 30.806 22.6902 30.8235C22.6158 30.841 22.5412 30.8579 22.4665 30.8739C22.3917 30.89 22.3168 30.9054 22.2418 30.92C22.1667 30.9346 22.0916 30.9484 22.0162 30.9616C21.9409 30.9748 21.8655 30.9872 21.7899 30.9988C21.7143 31.0105 21.6387 31.0214 21.5629 31.0316C21.4871 31.0419 21.4113 31.0513 21.3353 31.06C21.2593 31.0688 21.1833 31.0767 21.1072 31.084C21.0311 31.0912 20.9549 31.0977 20.8786 31.1034C20.8024 31.1092 20.7261 31.1142 20.6498 31.1185C20.5734 31.1227 20.4971 31.1263 20.4207 31.1291C20.3442 31.1319 20.2678 31.1339 20.1914 31.1352C20.0965 31.1372 20.0016 31.1382 19.9067 31.1379C19.8118 31.1376 19.7169 31.1362 19.6221 31.1336C19.5273 31.131 19.4325 31.1273 19.3377 31.1223C19.2429 31.1174 19.1482 31.1113 19.0536 31.104C18.959 31.0968 18.8645 31.0883 18.7701 31.0787C18.6757 31.0691 18.5814 31.0584 18.4873 31.0464C18.3932 31.0345 18.2992 31.0214 18.2053 31.0072C18.1115 30.9929 18.0179 30.9775 17.9245 30.961C17.831 30.9444 17.7378 30.9267 17.6448 30.9079C17.5518 30.889 17.4591 30.869 17.3666 30.8479C17.2741 30.8267 17.1818 30.8045 17.0899 30.7811C16.9979 30.7576 16.9063 30.7331 16.8149 30.7074C16.7236 30.6817 16.6325 30.6549 16.5419 30.627C16.4512 30.5991 16.3608 30.5701 16.2708 30.5399C16.1809 30.5098 16.0913 30.4785 16.0021 30.4461C15.9129 30.4138 15.8241 30.3803 15.7357 30.3458C15.6473 30.3112 15.5594 30.2756 15.4719 30.2389C15.3844 30.2021 15.2974 30.1644 15.2108 30.1255C15.1242 30.0867 15.0382 30.0467 14.9526 30.0057C14.867 29.9648 14.7819 29.9227 14.6974 29.8796C14.6129 29.8365 14.5289 29.7924 14.4454 29.7472C14.362 29.7021 14.2791 29.6559 14.1967 29.6087C14.1144 29.5615 14.0327 29.5133 13.9516 29.4641C13.8704 29.4148 13.7899 29.3646 13.7101 29.3134C13.6302 29.2622 13.5509 29.21 13.4723 29.1569C13.3937 29.1037 13.3158 29.0496 13.2385 28.9945C13.1612 28.9394 13.0847 28.8834 13.0088 28.8264C12.9329 28.7695 12.8577 28.7116 12.7833 28.6527C12.7088 28.5939 12.6351 28.5342 12.5621 28.4736C12.4891 28.4129 12.4169 28.3514 12.3455 28.2889C12.274 28.2265 12.2033 28.1632 12.1334 28.0991C12.0635 28.0349 11.9944 27.9699 11.9261 27.904C11.8583 27.839 11.7914 27.7732 11.7253 27.7066C11.6591 27.64 11.5938 27.5726 11.5293 27.5044C11.4648 27.4362 11.4012 27.3672 11.3383 27.2974C11.2756 27.2277 11.2136 27.1571 11.1525 27.0859C11.0915 27.0146 11.0313 26.9425 10.9719 26.8698C10.9126 26.797 10.8542 26.7236 10.7967 26.6494C10.7392 26.5752 10.6826 26.5003 10.6269 26.4248C10.5712 26.3492 10.5164 26.273 10.4626 26.1961C10.4088 26.1191 10.3559 26.0416 10.304 25.9634C10.2521 25.8852 10.2011 25.8064 10.1511 25.7269C10.1011 25.6475 10.0521 25.5674 10.0041 25.4868C9.95603 25.4061 9.90899 25.3249 9.86292 25.2431C9.81688 25.1613 9.77184 25.0789 9.7278 24.9961C9.68377 24.9132 9.64074 24.8297 9.59874 24.7458C9.55676 24.6618 9.5158 24.5774 9.47585 24.4924C9.43593 24.4074 9.39705 24.322 9.35921 24.2361C9.32137 24.1502 9.28459 24.0639 9.24886 23.9771C9.21313 23.8902 9.17847 23.803 9.14487 23.7154C9.11128 23.6277 9.07877 23.5396 9.04733 23.4512C9.0159 23.3628 8.98555 23.274 8.95628 23.1848C8.92701 23.0956 8.89883 23.006 8.87175 22.9161C8.84469 22.8263 8.81873 22.7361 8.79386 22.6455C8.76899 22.555 8.74522 22.4642 8.72257 22.3731C8.69991 22.282 8.67837 22.1907 8.65796 22.0991C8.63757 22.0074 8.61828 21.9156 8.60011 21.8235C8.58193 21.7314 8.5649 21.6391 8.54901 21.5466C8.5331 21.454 8.51832 21.3613 8.50468 21.2685C8.49103 21.1756 8.47853 21.0826 8.46718 20.9894C8.45582 20.8962 8.4456 20.8029 8.43651 20.7095C8.42742 20.6161 8.41948 20.5225 8.41268 20.4289C8.40589 20.3353 8.40025 20.2416 8.39577 20.1478C8.39126 20.0541 8.38791 19.9603 8.38569 19.8664C8.38358 19.7719 8.38263 19.6774 8.38284 19.5829C8.38305 19.4883 8.38442 19.3938 8.38694 19.2993C8.38949 19.2048 8.39321 19.1103 8.39807 19.0159C8.40294 18.9215 8.40899 18.8272 8.4162 18.7329C8.42341 18.6387 8.43179 18.5445 8.44132 18.4505C8.45082 18.3564 8.4615 18.2625 8.47335 18.1687C8.4852 18.0749 8.4982 17.9813 8.51237 17.8878C8.52651 17.7943 8.54181 17.7011 8.55827 17.608C8.57473 17.5149 8.59233 17.422 8.61108 17.3294C8.62983 17.2367 8.64973 17.1443 8.67077 17.0521C8.69179 16.96 8.71395 16.8681 8.73725 16.7764C8.76054 16.6848 8.78495 16.5935 8.8105 16.5025C8.83607 16.4115 8.86275 16.3208 8.89054 16.2305C8.91832 16.1401 8.94722 16.0501 8.97722 15.9605C9.00724 15.8708 9.03836 15.7815 9.07058 15.6927C9.10279 15.6038 9.13608 15.5153 9.17046 15.4273C9.20486 15.3392 9.24034 15.2516 9.2769 15.1645C9.31347 15.0773 9.3511 14.9905 9.38979 14.9043C9.42849 14.818 9.46824 14.7323 9.50905 14.647C9.54988 14.5617 9.59175 14.477 9.63464 14.3928C9.67755 14.3085 9.7215 14.2248 9.76647 14.1417C9.81145 14.0585 9.85744 13.976 9.90444 13.8939C9.95145 13.8119 9.99946 13.7305 10.0485 13.6496C10.0975 13.5688 10.1475 13.4886 10.1985 13.409C10.2495 13.3294 10.3015 13.2505 10.3544 13.1721C10.4074 13.0938 10.4613 13.0162 10.5162 12.9392C10.571 12.8622 10.6268 12.7859 10.6836 12.7103C10.7403 12.6347 10.798 12.5598 10.8566 12.4856C10.9152 12.4115 10.9747 12.338 11.0351 12.2653C11.0955 12.1926 11.1568 12.1206 11.219 12.0494C11.2812 11.9782 11.3442 11.9078 11.4082 11.8381C11.4721 11.7685 11.5368 11.6996 11.6024 11.6316C11.6566 11.5761 11.7113 11.5211 11.7666 11.4666C11.8218 11.4121 11.8776 11.3582 11.9339 11.3048C11.9902 11.2514 12.047 11.1986 12.1043 11.1463C12.1616 11.094 12.2195 11.0423 12.2778 10.9912C12.3362 10.94 12.395 10.8895 12.4543 10.8395C12.5136 10.7895 12.5735 10.7401 12.6337 10.6913C12.694 10.6424 12.7548 10.5942 12.816 10.5465C12.8772 10.4989 12.9389 10.4518 13.0011 10.4054C13.0632 10.359 13.1258 10.3131 13.1889 10.2679C13.2519 10.2227 13.3154 10.1781 13.3793 10.1341C13.4432 10.0901 13.5075 10.0468 13.5723 10.0041C13.6371 9.96133 13.7022 9.91923 13.7678 9.87777C13.8334 9.83632 13.8994 9.79551 13.9657 9.75535C14.0321 9.7152 14.0989 9.67568 14.166 9.6368C14.2332 9.59794 14.3007 9.55974 14.3686 9.52219C14.4365 9.48466 14.5047 9.44779 14.5733 9.41156C14.6419 9.37534 14.7109 9.33979 14.7802 9.30492C14.8495 9.27008 14.9192 9.2359 14.9891 9.20238C15.0591 9.16887 15.1294 9.13604 15.2 9.10391C15.2706 9.07177 15.3415 9.04033 15.4128 9.00957C15.484 8.97882 15.5555 8.94876 15.6273 8.91941C15.6992 8.89007 15.7713 8.86141 15.8436 8.83344C15.916 8.80549 15.9886 8.77826 16.0615 8.75172C16.1344 8.72518 16.2076 8.69936 16.281 8.67426C16.3544 8.64915 16.4281 8.62477 16.5019 8.60109C16.5758 8.57742 16.6499 8.55448 16.7242 8.53227C16.7986 8.51005 16.8731 8.48856 16.9479 8.46777C17.0226 8.44702 17.0976 8.42699 17.1727 8.4077C17.2479 8.38837 17.3232 8.3698 17.3987 8.35199C17.4742 8.33415 17.5499 8.31706 17.6257 8.3007C17.7016 8.28432 17.7776 8.2687 17.8537 8.25383C17.9298 8.23896 18.0061 8.22483 18.0825 8.21145C18.7356 8.10219 19.3923 8.06883 20.0533 8.05664Z" fill="black"/>
<path d="M23.2921 18.1172C23.4139 18.1702 24.3857 19.1931 24.5492 19.3569L25.4592 18.4431C25.6828 18.6314 25.8877 18.8608 26.0973 19.0663C26.4006 19.3637 26.7134 19.6508 27.0168 19.9479C26.7429 20.2236 26.4731 20.5061 26.1836 20.7657L26.9232 21.5237C27.1946 21.2959 27.4429 21.0273 27.6905 20.7741C28.1716 21.2375 28.6457 21.7078 29.113 22.1851C28.7618 22.5761 28.3677 22.939 27.991 23.3057L27.7434 23.546C27.9222 23.7237 28.0997 23.9028 28.2759 24.0833C27.9912 24.4027 27.6832 24.6987 27.3781 24.9982L23.5971 21.2417L22.5146 20.1725C22.307 19.9663 22.0746 19.7625 21.8984 19.5287C22.3613 19.0567 22.8345 18.5943 23.2921 18.1172Z" fill="#FEFEFE"/>
</svg>