<svg xmlns:xlink="http://www.w3.org/1999/xlink" xmlns="http://www.w3.org/2000/svg" width="40" height="40" viewBox="0 0 40 40" fill="none">
<path d="M17.547 1.87649L22.5188 1.87109C22.5265 2.28101 22.524 2.69317 22.519 3.10312C22.5147 3.45313 22.4652 3.85319 22.5501 4.19368C22.6 4.39376 22.6946 4.56017 22.8353 4.71075C22.8639 4.74185 22.8941 4.77137 22.9258 4.79931C22.9575 4.82728 22.9905 4.85351 23.025 4.87798C23.0594 4.90249 23.095 4.92513 23.1318 4.9459C23.1686 4.96668 23.2064 4.98548 23.2451 5.00232C23.6023 5.15466 24.0095 5.21992 24.3815 5.33425C25.17 5.57656 25.9615 5.88322 26.6975 6.25605C27.036 6.42754 27.3759 6.60416 27.7017 6.79908C27.9452 6.94481 28.1825 7.12877 28.4427 7.24135C28.5369 7.28213 28.633 7.29781 28.7352 7.30051C28.9077 7.305 29.0823 7.27353 29.2332 7.18864C29.4931 7.04244 29.7081 6.7791 29.9187 6.57026C30.351 6.14156 30.7704 5.69976 31.204 5.2729C32.4295 6.43705 33.5976 7.66465 34.802 8.85104C34.3754 9.30966 33.9081 9.74 33.464 10.1821C33.2661 10.3792 33.0399 10.5777 32.8783 10.8061C32.7965 10.9218 32.7368 11.0413 32.7185 11.1835C32.6605 11.6321 33.1868 12.2742 33.4031 12.6742C33.8758 13.5481 34.2923 14.4595 34.5871 15.4098C34.6691 15.6696 34.7444 15.9313 34.813 16.1949C34.8704 16.4236 34.9118 16.6714 34.9992 16.8899C35.0276 16.9608 35.0681 17.0215 35.1168 17.0802C35.2347 17.2222 35.3725 17.325 35.5471 17.3871C35.8647 17.5 36.2504 17.4977 36.5842 17.5289C37.104 17.5774 37.6241 17.6226 38.1445 17.6646L38.1492 22.3634C37.6688 22.387 37.1902 22.442 36.7109 22.482C36.3878 22.509 36.028 22.5082 35.7134 22.5854C35.5574 22.6237 35.3927 22.6945 35.2739 22.8038C35.1638 22.905 35.0813 23.0404 35.0268 23.1791C34.8916 23.5231 34.8048 24.0418 34.6886 24.4222C34.6171 24.6539 34.5401 24.8837 34.4575 25.1116C34.3748 25.3395 34.2867 25.5653 34.1931 25.789C34.0996 26.0126 34.0006 26.2339 33.8963 26.4528C33.7919 26.6716 33.6824 26.8878 33.5675 27.1013C33.4821 27.2606 33.3964 27.4216 33.3 27.5744C33.0911 27.9055 32.7312 28.3078 32.7287 28.7123C32.7278 28.8697 32.7579 29.0162 32.8399 29.152C33.0305 29.4675 33.4442 29.8091 33.7166 30.0781C34.0729 30.4298 34.4251 30.7856 34.7733 31.1453C33.5795 32.3486 32.3794 33.5456 31.1732 34.7365C30.8469 34.4072 30.5093 34.0896 30.1811 33.7623C29.9002 33.4823 29.6035 33.1185 29.2683 32.9059C29.1374 32.8229 29.0111 32.7875 28.856 32.7829C28.8251 32.7819 28.7942 32.7825 28.7634 32.7846C28.7326 32.7867 28.7019 32.7904 28.6715 32.7955C28.641 32.8007 28.6109 32.8073 28.5811 32.8154C28.5513 32.8236 28.5219 32.8331 28.4931 32.8442C28.293 32.9205 28.1108 33.055 27.93 33.1682C27.7272 33.2952 27.5228 33.415 27.3099 33.5244C27.0757 33.6471 26.8386 33.764 26.5987 33.8752C26.3588 33.9863 26.1163 34.0915 25.8713 34.1908C25.6262 34.2901 25.3788 34.3834 25.1292 34.4706C24.8796 34.5578 24.6279 34.6388 24.3744 34.7137C23.9452 34.8377 23.1973 34.9324 22.8807 35.239C22.7247 35.39 22.6109 35.5568 22.554 35.7683C22.4544 36.1379 22.5122 36.584 22.5152 36.9667C22.5183 37.3702 22.518 37.7737 22.5143 38.1773C21.9469 38.1274 21.3535 38.1621 20.7827 38.1623L17.5493 38.1645C17.5448 37.6898 17.5437 37.2151 17.546 36.7405C17.5459 36.4471 17.5747 36.1218 17.5061 35.8356C17.4575 35.6327 17.3649 35.4614 17.2206 35.31C17.1929 35.2804 17.1637 35.2524 17.1331 35.2259C17.1024 35.1995 17.0704 35.1747 17.0371 35.1517C17.0038 35.1287 16.9693 35.1075 16.9337 35.0882C16.8981 35.0688 16.8616 35.0515 16.8241 35.036C16.4061 34.8677 15.936 34.8014 15.5038 34.6696C14.5763 34.3868 13.7032 34.0114 12.8487 33.5558C12.6119 33.4295 12.3847 33.296 12.1576 33.1532C11.9702 33.0354 11.782 32.8975 11.5777 32.8111C11.551 32.7996 11.5238 32.7895 11.496 32.7807C11.4684 32.7719 11.4403 32.7645 11.4119 32.7585C11.3834 32.7525 11.3548 32.748 11.3258 32.7448C11.297 32.7417 11.268 32.74 11.2389 32.7398C11.0649 32.7398 10.9047 32.8011 10.7597 32.8941C10.4963 33.0631 10.2682 33.3265 10.0437 33.5448C9.6493 33.926 9.25885 34.3111 8.87235 34.7003L5.27161 31.1248L5.29015 31.1094C5.61378 30.8356 5.90665 30.5018 6.20659 30.2014C6.50031 29.9072 6.93746 29.5312 7.16975 29.1961C7.25687 29.0704 7.30148 28.9627 7.31298 28.81C7.32229 28.6861 7.3113 28.5612 7.26895 28.4438C7.18845 28.2206 7.03056 28.0158 6.90438 27.8161C6.79159 27.6392 6.68618 27.4581 6.58817 27.2726C6.29015 26.7193 6.0189 26.1595 5.79052 25.5736C5.62215 25.1416 5.45546 24.7008 5.33065 24.2539C5.24045 23.9309 5.18954 23.5805 5.06817 23.2687C5.0456 23.2104 5.01797 23.1546 4.98528 23.1012C4.95262 23.0479 4.91542 22.998 4.87368 22.9514C4.85773 22.9335 4.84119 22.9162 4.82407 22.8994C4.80694 22.8826 4.78925 22.8664 4.77101 22.8508C4.75278 22.8353 4.73407 22.8203 4.71486 22.806C4.69562 22.7917 4.67591 22.778 4.65574 22.7651C4.63559 22.7521 4.61502 22.7398 4.59404 22.7282C4.57305 22.7166 4.5517 22.7057 4.52999 22.6955C4.50825 22.6854 4.48621 22.676 4.46387 22.6673C4.4415 22.6587 4.41888 22.6508 4.39599 22.6436C4.07771 22.5412 3.69835 22.5455 3.36548 22.5124C2.87499 22.4638 2.38222 22.4022 1.8902 22.3752C1.87399 21.7542 1.88926 21.1301 1.89103 20.5087L1.89864 17.6588C2.33122 17.6429 2.76635 17.5888 3.19809 17.5544C3.55942 17.5256 3.97562 17.531 4.32604 17.4411C4.48276 17.401 4.63372 17.3354 4.75353 17.2245C4.87267 17.1141 4.97175 16.9836 5.0329 16.8323C5.10727 16.6482 5.14708 16.4435 5.19713 16.2516C5.2692 15.9762 5.3468 15.7024 5.42993 15.4302C5.57601 14.9761 5.74185 14.5294 5.92745 14.09C6.11305 13.6506 6.31766 13.2202 6.54129 12.7989C6.6711 12.55 6.80948 12.3142 6.96182 12.0787C7.07775 11.8995 7.21585 11.7177 7.30625 11.524C7.34891 11.4326 7.37578 11.3373 7.37671 11.2359C7.37816 11.081 7.31924 10.9497 7.23415 10.8229C7.05527 10.5565 6.78708 10.3324 6.56123 10.1041L5.31146 8.84314C5.95795 8.16287 6.63583 7.505 7.30293 6.84471C7.82794 6.32506 8.34504 5.79294 8.88342 5.28752C9.24029 5.65718 9.61081 6.01507 9.97421 6.37843C10.237 6.64115 10.5048 6.96354 10.813 7.17003C10.9494 7.2614 11.0953 7.32009 11.2607 7.32377C11.6812 7.33315 12.3988 6.75282 12.8071 6.53753C13.6151 6.11137 14.4585 5.70997 15.3313 5.43458C15.6039 5.34921 15.8783 5.26997 16.1544 5.19685C16.3803 5.13824 16.6157 5.09073 16.8334 5.00612C16.9734 4.95169 17.098 4.86254 17.2044 4.75701C17.3554 4.60721 17.4618 4.40924 17.5116 4.20291C17.5868 3.89103 17.5523 3.52862 17.5504 3.20884C17.5455 2.76473 17.5443 2.32061 17.547 1.87649Z" fill="#D23008"/>
<path d="M19.5807 7.34032C19.6725 7.33742 19.7643 7.33552 19.8561 7.33461C19.948 7.33369 20.0398 7.33379 20.1316 7.33488C20.2235 7.33598 20.3153 7.33806 20.4071 7.34114C20.4988 7.34421 20.5906 7.34829 20.6823 7.35338C20.774 7.35843 20.8656 7.36449 20.9572 7.37156C21.0488 7.37862 21.1402 7.38668 21.2316 7.39572C21.323 7.40477 21.4143 7.4148 21.5055 7.42583C21.5967 7.43688 21.6877 7.4489 21.7786 7.46188C21.8695 7.47489 21.9603 7.48889 22.0509 7.50387C22.1415 7.51886 22.2319 7.53482 22.3222 7.55173C22.4125 7.56868 22.5025 7.5866 22.5924 7.6055C22.6823 7.62439 22.7719 7.64427 22.8614 7.66512C22.9508 7.68595 23.04 7.70776 23.129 7.73054C23.218 7.75332 23.3067 7.77707 23.3951 7.80178C23.4836 7.82647 23.5718 7.85212 23.6597 7.87873C23.7476 7.90537 23.8352 7.93295 23.9225 7.96147C24.0098 7.98999 24.0967 8.01945 24.1834 8.04988C24.27 8.08027 24.3563 8.11162 24.4423 8.14391C24.5283 8.17618 24.6139 8.20939 24.6992 8.24354C24.7844 8.27769 24.8693 8.31275 24.9538 8.34872C25.0383 8.38469 25.1224 8.42159 25.2061 8.45942C25.2898 8.49721 25.373 8.53592 25.4559 8.57554C25.5387 8.61517 25.6212 8.65569 25.7031 8.69711C25.7851 8.7385 25.8666 8.7808 25.9477 8.82399C26.0287 8.86716 26.1093 8.9112 26.1894 8.95611C26.2695 9.00105 26.3491 9.04685 26.4282 9.09351C26.5073 9.14015 26.5859 9.18765 26.664 9.23603C26.7421 9.28439 26.8196 9.33359 26.8966 9.38364C26.9736 9.43369 27.0501 9.48456 27.126 9.53625C27.2019 9.58797 27.2772 9.64049 27.352 9.69382C27.4267 9.74716 27.5009 9.8013 27.5745 9.85625C27.6481 9.9112 27.721 9.96694 27.7934 10.0235C27.37 10.4859 26.9 10.9154 26.4553 11.3583L23.9966 13.8084C24.4116 13.8785 24.8289 13.9307 25.2484 13.9649L26.8495 12.382C27.4206 11.81 27.9862 11.2288 28.5777 10.6779C28.6512 10.7435 28.7237 10.81 28.7954 10.8775C31.202 13.1581 32.54 16.3992 32.6265 19.6938C32.6912 22.1563 31.8229 24.804 30.4441 26.8311C30.0649 27.3886 29.6107 27.9251 29.146 28.4135C29.076 28.4868 29.0052 28.5592 28.9336 28.6308C28.8619 28.7024 28.7894 28.7731 28.716 28.8429C28.6426 28.9127 28.5684 28.9816 28.4933 29.0496C28.4182 29.1177 28.3424 29.1848 28.2657 29.2509C28.189 29.3171 28.1115 29.3824 28.0332 29.4467C27.9549 29.5109 27.8759 29.5743 27.7961 29.6367C27.7163 29.699 27.6357 29.7604 27.5544 29.8209C27.4731 29.8813 27.3911 29.9407 27.3083 29.9991C27.2256 30.0575 27.1421 30.115 27.058 30.1714C26.9738 30.2278 26.889 30.2831 26.8035 30.3375C26.718 30.3918 26.6319 30.4451 26.5451 30.4973C26.4584 30.5496 26.371 30.6008 26.2829 30.6509C26.1949 30.7011 26.1063 30.7501 26.017 30.7981C25.9278 30.8461 25.8381 30.8929 25.7477 30.9387C25.6573 30.9845 25.5664 31.0292 25.475 31.0728C25.3836 31.1164 25.2916 31.1588 25.1991 31.2002C25.1067 31.2416 25.0137 31.2818 24.9203 31.3209C24.8268 31.36 24.7329 31.3979 24.6385 31.4347C24.5442 31.4716 24.4494 31.5072 24.3541 31.5418C24.2589 31.5763 24.1633 31.6096 24.0672 31.6418C23.9712 31.674 23.8748 31.705 23.7779 31.7349C23.6812 31.7647 23.584 31.7934 23.4865 31.8209C23.389 31.8484 23.2912 31.8747 23.1931 31.8998C23.0949 31.9249 22.9965 31.9489 22.8978 31.9716C22.7991 31.9943 22.7001 32.0158 22.6009 32.0361C22.5016 32.0565 22.4022 32.0756 22.3025 32.0935C22.2028 32.1114 22.1029 32.1281 22.0027 32.1436C21.9026 32.1591 21.8024 32.1733 21.7019 32.1864C21.6015 32.1994 21.5009 32.2113 21.4001 32.2219C21.2994 32.2325 21.1985 32.2418 21.0975 32.25C20.9966 32.2582 20.8955 32.2651 20.7944 32.2708C20.6933 32.2765 20.5921 32.281 20.4908 32.2842C20.1339 32.2998 19.7771 32.2988 19.4203 32.281C16.1768 32.1391 12.9468 30.6652 10.7539 28.2633C10.6846 28.1883 10.6162 28.1124 10.5488 28.0357C10.4813 27.959 10.4148 27.8814 10.3493 27.803C10.2837 27.7247 10.2192 27.6455 10.1556 27.5655C10.092 27.4856 10.0294 27.4048 9.96785 27.3233C9.90628 27.2418 9.84571 27.1595 9.78615 27.0765C9.72661 26.9935 9.66811 26.9098 9.61063 26.8254C9.55312 26.7409 9.49669 26.6557 9.44132 26.5699C9.38593 26.484 9.33162 26.3975 9.27839 26.3103C9.22516 26.2232 9.173 26.1353 9.12191 26.0468C9.07084 25.9584 9.02089 25.8693 8.97204 25.7795C8.92316 25.6898 8.8754 25.5995 8.82877 25.5086C8.78214 25.4177 8.73662 25.3263 8.69223 25.2343C8.64787 25.1423 8.60463 25.0497 8.56253 24.9566C8.52044 24.8635 8.4795 24.7699 8.43972 24.6758C8.39994 24.5817 8.36133 24.4872 8.3239 24.3921C8.28647 24.2971 8.25021 24.2015 8.21512 24.1056C8.18004 24.0097 8.14615 23.9133 8.11346 23.8165C8.08075 23.7197 8.04925 23.6226 8.01896 23.525C7.98867 23.4274 7.95958 23.3295 7.93168 23.2312C7.90382 23.1329 7.87716 23.0343 7.85172 22.9354C7.82628 22.8364 7.80206 22.7372 7.77907 22.6377C7.75608 22.5381 7.73432 22.4383 7.71378 22.3382C7.69326 22.2382 7.67398 22.1378 7.65595 22.0373C7.63791 21.9367 7.62111 21.836 7.60554 21.735C7.58998 21.634 7.57567 21.5329 7.56261 21.4316C7.54958 21.3303 7.53778 21.2288 7.52723 21.1272C7.51667 21.0256 7.50738 20.9238 7.49935 20.822C7.49132 20.7202 7.48454 20.6182 7.47902 20.5162C7.47352 20.4142 7.46927 20.3121 7.46627 20.21C7.46327 20.1079 7.46154 20.0058 7.46107 19.9036C7.4606 19.8014 7.46139 19.6993 7.46345 19.5971C7.46549 19.495 7.4688 19.3929 7.47338 19.2909C7.47735 19.1892 7.48257 19.0876 7.48906 18.9861C7.49553 18.8846 7.50324 18.7832 7.51221 18.6819C7.5212 18.5805 7.53144 18.4793 7.54291 18.3783C7.55437 18.2772 7.5671 18.1763 7.58107 18.0756C7.59504 17.9748 7.61026 17.8742 7.62674 17.7739C7.64319 17.6735 7.66087 17.5733 7.6798 17.4734C7.69872 17.3734 7.71888 17.2737 7.74029 17.1743C7.76166 17.0748 7.78427 16.9757 7.80813 16.8768C7.83195 16.7779 7.857 16.6793 7.88328 16.5811C7.90955 16.4828 7.93704 16.3849 7.96574 16.2873C7.99441 16.1897 8.0243 16.0925 8.0554 15.9956C8.0865 15.8988 8.11878 15.8023 8.15225 15.7063C8.18572 15.6102 8.22038 15.5146 8.25622 15.4194C8.29206 15.3242 8.32908 15.2294 8.36727 15.1352C8.40543 15.0409 8.44475 14.9471 8.48523 14.8538C8.52574 14.7605 8.56738 14.6677 8.61016 14.5754C8.65293 14.4831 8.69686 14.3914 8.74193 14.3002C8.78697 14.209 8.83314 14.1184 8.88042 14.0283C8.92771 13.9382 8.9761 13.8488 9.0256 13.7599C9.0751 13.671 9.12569 13.5828 9.17735 13.4952C9.22904 13.4076 9.2818 13.3206 9.33563 13.2343C9.38943 13.148 9.44431 13.0623 9.50025 12.9774C9.55619 12.8924 9.61317 12.8082 9.67119 12.7246C9.72922 12.6411 9.78826 12.5583 9.84832 12.4762C9.90838 12.3941 9.96945 12.3127 10.0315 12.2322C10.0936 12.1516 10.1567 12.0718 10.2207 11.9927C10.2848 11.9137 10.3498 11.8355 10.4157 11.7581C10.4817 11.6807 10.5487 11.6041 10.6165 11.5283C10.6844 11.4525 10.7532 11.3776 10.8229 11.3036C10.8926 11.2295 10.9632 11.1563 11.0348 11.084C11.1063 11.0116 11.1787 10.9402 11.252 10.8697C11.3253 10.7992 11.3994 10.7295 11.4744 10.6608C11.7766 10.9387 12.0621 11.2394 12.353 11.5292L13.8027 12.9711C14.1357 13.3041 14.4649 13.679 14.8342 13.97C15.2455 13.9425 15.6545 13.8593 16.0599 13.787C15.2241 12.9298 14.3679 12.0867 13.5178 11.2433C13.0997 10.8284 12.6539 10.4245 12.2612 9.98587C14.6032 8.32397 16.6919 7.47729 19.5807 7.34032Z" fill="white"/>
<path d="M19.994 12.7998C20.1002 12.8475 20.5679 13.3397 20.7184 13.4693C21.5083 14.1499 22.5283 14.6656 23.5299 14.9459C24.2338 15.143 25.1441 15.3314 25.816 14.9535L25.8303 17.6271C25.8309 18.5322 25.872 19.4564 25.6535 20.3413C25.0635 22.7306 23.4221 24.5528 21.5051 26.0047C21.0317 26.3632 20.546 26.7196 20.0375 27.027C19.8071 26.9469 19.5679 26.7388 19.3683 26.5983C18.4038 25.9198 17.4804 25.2058 16.6599 24.3546C15.4277 23.0762 14.47 21.4174 14.279 19.6287C14.209 18.9729 14.2422 18.2935 14.2423 17.6346C14.2385 16.7146 14.2406 15.7947 14.2488 14.8748C14.2749 14.9099 14.3034 14.9447 14.3339 14.9761C14.4698 15.1158 14.6827 15.1545 14.8696 15.1592C16.226 15.1937 17.8409 14.514 18.9255 13.727C19.3109 13.4473 19.6483 13.1255 19.994 12.7998Z" fill="black"/>
<path d="M22.9306 17.3265C22.9666 17.322 23.0031 17.3176 23.0394 17.3166C23.2193 17.3117 23.3968 17.3923 23.5209 17.5207C23.6432 17.6472 23.7153 17.8228 23.7114 17.9991C23.7082 18.1453 23.6522 18.2797 23.5645 18.3949C23.4392 18.5595 23.2742 18.7029 23.1261 18.8471C22.8872 19.0785 22.6495 19.3111 22.4132 19.5451L19.7917 22.1546C19.5909 22.355 19.4164 22.5165 19.1139 22.51C18.9883 22.5073 18.8718 22.4778 18.7641 22.4126C18.531 22.2712 18.3362 22.0365 18.1432 21.8447C17.789 21.4926 17.4383 21.137 17.0912 20.778C16.8334 20.5317 16.3968 20.2144 16.3907 19.8265C16.388 19.6521 16.4628 19.4831 16.5834 19.3588C16.5983 19.3434 16.614 19.3287 16.6304 19.3149C16.6468 19.3011 16.6639 19.2881 16.6816 19.276C16.6993 19.2639 16.7176 19.2527 16.7365 19.2425C16.7554 19.2323 16.7748 19.223 16.7946 19.2148C16.8144 19.2065 16.8346 19.1993 16.8552 19.1931C16.8757 19.187 16.8966 19.1819 16.9177 19.1778C16.9387 19.1738 16.96 19.1708 16.9814 19.1689C17.0028 19.1671 17.0242 19.1663 17.0457 19.1666C17.1716 19.1676 17.2911 19.2082 17.394 19.2804C17.6256 19.4427 17.8224 19.6962 18.0234 19.8973L19.0968 20.959C19.3735 20.7008 19.6309 20.4134 19.9003 20.1465L21.6634 18.42C21.9751 18.1144 22.2998 17.7435 22.6423 17.4768C22.7353 17.4044 22.8204 17.3639 22.9306 17.3265Z" fill="white"/>
<path d="M8.36866 19.4583C9.93069 19.457 11.4957 19.4368 13.0575 19.4612C13.1989 21.2204 13.9183 22.8239 14.9826 24.2152C16.0913 25.6646 17.5509 26.851 19.0456 27.8807C19.3052 28.0595 19.6637 28.3757 19.9804 28.4086C20.0975 28.4207 20.2094 28.3825 20.3138 28.3329C20.5702 28.2107 20.816 28.0163 21.0477 27.853C21.5523 27.4975 22.0578 27.1321 22.5385 26.7448C24.8207 24.9058 26.7092 22.4762 27.0284 19.476C27.5614 19.492 28.0969 19.4771 28.6302 19.4764L31.6825 19.472C31.6562 20.4181 31.634 21.2011 31.4443 22.14C30.9127 24.376 29.8714 26.397 28.2185 28.0116C25.9464 30.2312 22.9317 31.3858 19.7624 31.3445C19.6672 31.3429 19.5721 31.3402 19.477 31.3363C19.3819 31.3323 19.2868 31.3273 19.1918 31.321C19.0969 31.3148 19.002 31.3074 18.9072 31.2988C18.8124 31.2903 18.7177 31.2806 18.6231 31.2697C18.5286 31.2588 18.4342 31.2468 18.3399 31.2337C18.2456 31.2205 18.1515 31.2062 18.0576 31.1907C17.9637 31.1752 17.87 31.1586 17.7765 31.1409C17.683 31.1231 17.5897 31.1042 17.4966 31.0842C17.4036 31.0641 17.3108 31.043 17.2183 31.0207C17.1257 30.9984 17.0335 30.975 16.9415 30.9504C16.8496 30.9259 16.7579 30.9002 16.6666 30.8734C16.5753 30.8466 16.4843 30.8187 16.3936 30.7897C16.303 30.7607 16.2127 30.7305 16.1228 30.6993C16.0329 30.6681 15.9433 30.6358 15.8542 30.6024C15.7651 30.569 15.6764 30.5345 15.5881 30.4989C15.4998 30.4633 15.412 30.4267 15.3246 30.389C15.2372 30.3513 15.1503 30.3125 15.0638 30.2726C14.9774 30.2328 14.8914 30.1919 14.806 30.15C14.7206 30.108 14.6356 30.0651 14.5512 30.0211C14.4668 29.9771 14.383 29.932 14.2997 29.886C14.2164 29.8399 14.1337 29.7928 14.0515 29.7447C13.9694 29.6967 13.8878 29.6476 13.8069 29.5975C13.7259 29.5474 13.6456 29.4964 13.5659 29.4444C13.4862 29.3923 13.4071 29.3393 13.3287 29.2854C13.2503 29.2314 13.1726 29.1765 13.0955 29.1207C13.0185 29.0648 12.9421 29.008 12.8664 28.9502C12.7907 28.8925 12.7158 28.8339 12.6415 28.7743C12.5673 28.7148 12.4938 28.6543 12.421 28.593C12.3482 28.5316 12.2762 28.4694 12.205 28.4063C12.1337 28.3432 12.0632 28.2792 11.9936 28.2144C11.9239 28.1495 11.855 28.0839 11.7869 28.0173C11.7188 27.9508 11.6516 27.8835 11.5851 27.8154C9.37007 25.5382 8.32229 22.6127 8.36866 19.4583Z" fill="black"/>
</svg>