<svg width="60" height="53" viewBox="0 0 60 53" fill="none" xmlns="http://www.w3.org/2000/svg">
<path fill-rule="evenodd" clip-rule="evenodd" d="M39.7928 26.5004L16.9282 49.9124C16.3262 50.5288 16.3262 51.5281 16.9282 52.1444C17.5301 52.7608 18.506 52.7608 19.108 52.1444L43.0624 27.6166C43.4986 27.1699 43.6187 26.5221 43.4227 25.9647C43.3482 25.7528 43.2281 25.554 43.0622 25.3842L19.1078 0.856308C18.5059 0.239967 17.5299 0.239967 16.928 0.856308C16.3261 1.47265 16.3261 2.47194 16.928 3.08828L39.7928 26.5004Z" fill="black"/>
<path fill-rule="evenodd" clip-rule="evenodd" d="M56.285 26.5004L33.4203 49.9124C32.8184 50.5288 32.8184 51.5281 33.4203 52.1444C34.0223 52.7608 34.9982 52.7608 35.6001 52.1444L59.5546 27.6166C59.9908 27.1699 60.1109 26.5221 59.9148 25.9647C59.8404 25.7528 59.7202 25.554 59.5544 25.3842L35.6 0.856308C34.9981 0.239967 34.0221 0.239967 33.4202 0.856308C32.8183 1.47265 32.8183 2.47194 33.4202 3.08828L56.285 26.5004Z" fill="black"/>
<path fill-rule="evenodd" clip-rule="evenodd" d="M23.3163 26.5004L0.451593 49.9124C-0.15034 50.5288 -0.15034 51.5281 0.451593 52.1444C1.05353 52.7608 2.02945 52.7608 2.63139 52.1444L26.5858 27.6166C27.022 27.1699 27.1421 26.5221 26.9461 25.9647C26.8716 25.7528 26.7515 25.554 26.5857 25.3842L2.63124 0.856308C2.02931 0.239967 1.05338 0.239967 0.451447 0.856308C-0.150486 1.47265 -0.150485 2.47194 0.451448 3.08828L23.3163 26.5004Z" fill="black"/>
</svg>
