<svg width="464" height="637" viewBox="0 0 464 637" fill="none" xmlns="http://www.w3.org/2000/svg">
<mask id="path-1-outside-1_1545_8788" maskUnits="userSpaceOnUse" x="0" y="0" width="464" height="637" fill="black">
<rect fill="white" width="464" height="637"/>
<path fill-rule="evenodd" clip-rule="evenodd" d="M328.876 21.31C326.943 28.2214 320.644 33 313.468 33H152.344C145.325 33 139.125 28.4248 137.056 21.7175L134.453 13.2825C132.383 6.57518 126.184 2 119.164 2H18C9.16344 2 2 9.16346 2 18V619C2 627.837 9.16343 635 18 635H446C454.837 635 462 627.837 462 619V18C462 9.16344 454.837 2 446 2H346.416C339.239 2 332.941 6.77864 331.008 13.69L328.876 21.31Z"/>
</mask>
<path fill-rule="evenodd" clip-rule="evenodd" d="M328.876 21.31C326.943 28.2214 320.644 33 313.468 33H152.344C145.325 33 139.125 28.4248 137.056 21.7175L134.453 13.2825C132.383 6.57518 126.184 2 119.164 2H18C9.16344 2 2 9.16346 2 18V619C2 627.837 9.16343 635 18 635H446C454.837 635 462 627.837 462 619V18C462 9.16344 454.837 2 446 2H346.416C339.239 2 332.941 6.77864 331.008 13.69L328.876 21.31Z" fill="black"/>
<path d="M331.008 13.69L332.934 14.2288L331.008 13.69ZM134.453 13.2825L132.542 13.8722L134.453 13.2825ZM328.876 21.31L326.95 20.7712L328.876 21.31ZM152.344 35H313.468V31H152.344V35ZM132.542 13.8722L135.144 22.3071L138.967 21.1278L136.364 12.6929L132.542 13.8722ZM18 4H119.164V0H18V4ZM4 619V18H0V619H4ZM446 633H18V637H446V633ZM460 18V619H464V18H460ZM346.416 4H446V0H346.416V4ZM330.802 21.8487L332.934 14.2288L329.082 13.1513L326.95 20.7712L330.802 21.8487ZM346.416 0C338.342 0 331.256 5.37597 329.082 13.1513L332.934 14.2288C334.625 8.18131 340.137 4 346.416 4V0ZM464 18C464 8.05888 455.941 0 446 0V4C453.732 4 460 10.268 460 18H464ZM446 637C455.941 637 464 628.941 464 619H460C460 626.732 453.732 633 446 633V637ZM0 619C0 628.941 8.05886 637 18 637V633C10.268 633 4 626.732 4 619H0ZM18 0C8.05887 0 0 8.05889 0 18H4C4 10.268 10.268 4 18 4V0ZM136.364 12.6929C134.036 5.14707 127.061 0 119.164 0V4C125.306 4 130.731 8.00328 132.542 13.8722L136.364 12.6929ZM313.468 35C321.541 35 328.627 29.624 330.802 21.8487L326.95 20.7712C325.259 26.8187 319.747 31 313.468 31V35ZM152.344 31C146.202 31 140.778 26.9967 138.967 21.1278L135.144 22.3071C137.473 29.8529 144.447 35 152.344 35V31Z" fill="white" mask="url(#path-1-outside-1_1545_8788)"/>
</svg>
