<svg width="1201" height="184" viewBox="0 0 1201 184" fill="none" xmlns="http://www.w3.org/2000/svg">
<path d="M1200.69 0.500488H1144.6L1091.98 61.8347L1110.44 97.0555L1087.97 117.467L1119.04 183.724H1172.51L1128.16 86.8735L1200.69 0.500488Z" fill="white"/>
<path d="M1080.68 0.500488H1032.42L1000.33 183.724H1048.59L1061.09 113H1061.17L1082.84 92.4346L1068.94 66.5429L1080.68 0.500488Z" fill="white"/>
<path d="M222.951 44.9964L236.561 24.4308L222.951 0.500244H276.548C297.596 0.500244 314.68 6.17561 327.815 17.5129C340.943 28.8569 347.51 42.9949 347.51 59.9203C347.51 75.274 343.205 88.1896 334.596 98.6538C325.987 109.125 315.068 116.889 301.853 121.953L327.42 183.724H275.243L252.28 128.757H219.671L210.018 183.724H161.75L179.196 84.2605H272.625C279.755 84.2605 285.673 82.259 290.365 78.2359C295.065 74.2262 297.415 69.3367 297.415 63.5807C297.415 58.5233 295.326 54.1576 291.149 50.4904C286.978 46.83 281.241 44.9964 273.93 44.9964H222.938" fill="white"/>
<path d="M512.832 0.500244L530.312 183.724H481.529L478.918 147.079H408.478L392.826 183.724H342.477L424.13 0.500244H512.832ZM452.307 44.9964L426.219 105.196H475.785L470.57 44.9964H452.307Z" fill="white"/>
<path d="M727.848 0.500244L648.798 183.724H558.79L543.922 0.500244H592.183L601.836 139.228H618.794L676.969 0.500244H727.848Z" fill="white"/>
<path d="M828.164 183.724L781.985 68.5576H779.375L779.114 92.112L762.939 183.724H714.672L746.772 0.500244H802.866L849.306 115.666H851.917L852.178 92.112L868.084 0.500244H916.352L884.258 183.724H828.164Z" fill="white"/>
<path d="M998.51 0.500244L966.416 183.724H918.148L950.242 0.500244H998.51Z" fill="white"/>
<path d="M7.82592 0.500244L0 44.9964H57.399L33.138 183.724H81.3989L105.66 44.9964H189.127L202.737 24.4308L189.127 0.500244H7.82592Z" fill="white"/>
</svg>
