<svg xmlns:xlink="http://www.w3.org/1999/xlink" xmlns="http://www.w3.org/2000/svg" width="40" height="40" viewBox="0 0 40 40" fill="none">
<path d="M17.5326 1.93555L22.5355 1.93773C22.6089 2.40731 22.9384 4.37209 23.1121 4.69006C23.2753 4.98877 24.0841 5.10815 24.4084 5.19338C25.3938 5.45237 26.3724 5.87717 27.2723 6.35041C27.6233 6.53498 28.1785 6.92166 28.5249 7.02311C28.5914 7.0426 28.6234 7.04854 28.6894 7.02299C28.8833 6.94803 29.0762 6.77729 29.2439 6.65588C29.654 6.35698 30.0618 6.05501 30.4674 5.74998C30.6769 5.59397 30.8934 5.40612 31.1212 5.28057C31.1273 5.27721 31.1334 5.27405 31.1395 5.2708C32.3395 6.48459 33.5937 7.64905 34.7754 8.88018C34.4769 9.29163 33.0134 11.0841 32.9235 11.4143C32.9079 11.4716 32.9269 11.5419 32.9506 11.5945C33.0624 11.8423 33.2412 12.0841 33.3789 12.3207C33.6297 12.752 33.8622 13.1928 34.0767 13.6432C34.3248 14.1707 34.5408 14.711 34.7248 15.2641C34.841 15.6126 35.0267 16.5375 35.1935 16.7817C35.2364 16.8445 35.2802 16.8855 35.352 16.9131C35.6178 17.0155 35.9318 17.0499 36.2106 17.1073C36.8468 17.24 37.4843 17.3658 38.1231 17.4849L38.1255 22.5104C37.6053 22.5846 35.5743 22.9785 35.2243 23.2067C35.0159 23.552 34.9455 24.0678 34.8239 24.4573C34.6466 25.0248 34.4471 25.6012 34.2109 26.1468C34.0502 26.5156 33.8737 26.8767 33.6815 27.2302C33.5382 27.4951 32.9913 28.3403 32.9567 28.5492C32.9465 28.6105 32.9565 28.6427 32.9842 28.6966C33.122 28.9643 33.3419 29.2177 33.5191 29.4617L34.7239 31.1091C33.9418 31.8929 33.1366 32.6566 32.344 33.43C31.9243 33.8395 31.5006 34.2444 31.1008 34.6737C30.5309 34.2754 29.9561 33.8843 29.3765 33.5003C29.0979 33.3182 28.811 33.1044 28.505 32.9735C28.1122 33.1619 27.7539 33.421 27.3674 33.6244C27.1095 33.7615 26.8481 33.8916 26.5833 34.0147C26.3185 34.1378 26.0506 34.2538 25.7795 34.3626C25.5085 34.4714 25.2348 34.5729 24.9583 34.6671C24.6819 34.7612 24.4031 34.848 24.1221 34.9273C23.8462 35.005 23.4865 35.0614 23.2475 35.219C23.1732 35.268 23.1353 35.3226 23.1012 35.4038C22.9922 35.6644 22.9553 35.9774 22.8974 36.2551C22.7639 36.8799 22.6418 37.507 22.531 38.1362C22.3242 38.1815 21.3596 38.1473 21.0932 38.1471C19.8934 38.1529 18.6935 38.1518 17.4937 38.1439C17.4594 37.7642 17.3564 37.3709 17.2866 36.9944C17.2038 36.5483 17.1444 36.0762 17.0267 35.6391C17.0003 35.5408 16.9632 35.4378 16.9082 35.3518C16.7359 35.0822 15.9298 34.9462 15.6067 34.8459C14.8634 34.6151 14.1378 34.3381 13.4299 34.0148C13.1615 33.8897 12.8897 33.7616 12.6296 33.6202C12.3595 33.4733 11.8265 33.0965 11.5527 33.044C11.4476 33.0239 11.3382 33.0711 11.2464 33.1179C10.9495 33.2694 10.6677 33.5038 10.3929 33.6953C9.89104 34.0412 9.39095 34.3896 8.89264 34.7406C8.04483 33.9173 7.20968 33.0784 6.37554 32.2412C5.99382 31.8581 5.5787 31.4956 5.22139 31.0906C5.45557 30.7986 7.01323 28.8098 7.04655 28.6383C7.07866 28.473 6.52706 27.6475 6.41733 27.4347C6.05981 26.7446 5.74745 26.0346 5.48026 25.3047C5.37315 25.0081 5.27567 24.7084 5.1878 24.4055C5.10932 24.1343 5.00061 23.5074 4.86178 23.303C4.79456 23.204 4.67389 23.1515 4.56593 23.1091C4.26358 22.9904 3.93042 22.932 3.61336 22.8631C3.03145 22.7347 2.44679 22.6204 1.85938 22.5201C1.88787 20.8461 1.85487 19.1699 1.86739 17.4955C2.26488 17.4116 4.50069 17.0096 4.70858 16.8742C4.82315 16.7996 4.87456 16.6475 4.91225 16.5229C5.00854 16.2044 5.07503 15.8768 5.16585 15.5565C5.25889 15.2316 5.36395 14.9106 5.481 14.5936C5.59806 14.2765 5.7268 13.9642 5.86721 13.6568C6.01352 13.3371 6.17068 13.0229 6.3387 12.714C6.46468 12.4839 6.9885 11.7153 7.01417 11.5424C7.02444 11.4732 7.02311 11.4088 6.9905 11.3459C6.84827 11.0716 6.56253 10.7283 6.37643 10.4667C5.99733 9.93377 5.63069 9.38526 5.23354 8.86608C6.48475 7.70233 7.64315 6.44471 8.87358 5.26034C9.25214 5.51682 11.1921 6.92061 11.4326 6.95209C11.7312 6.99116 12.4546 6.52776 12.7397 6.38151C13.3171 6.0853 13.9032 5.79975 14.5097 5.56788C14.8365 5.44291 15.169 5.32377 15.503 5.21936C15.833 5.11616 16.5297 4.99811 16.7827 4.80612C16.8939 4.7217 16.9422 4.60237 16.9876 4.47463C17.0766 4.22455 17.113 3.93569 17.1717 3.67574C17.3014 3.10166 17.4487 2.51821 17.5326 1.93555Z" fill="#D23008"/>
<path d="M19.8971 7.47103C19.9981 7.4703 20.0991 7.4708 20.2001 7.47255C20.301 7.47427 20.402 7.47722 20.5029 7.48142C20.6039 7.48558 20.7047 7.49099 20.8055 7.49763C20.9063 7.50427 21.007 7.51213 21.1076 7.52122C21.2082 7.53031 21.3086 7.54062 21.409 7.55216C21.5093 7.56367 21.6095 7.5764 21.7095 7.59036C21.8095 7.60435 21.9094 7.61953 22.009 7.63591C22.1087 7.65231 22.2082 7.66992 22.3074 7.68872C22.4066 7.70752 22.5056 7.72754 22.6044 7.74876C22.7031 7.76998 22.8016 7.79239 22.8998 7.81599C22.998 7.83961 23.0959 7.86441 23.1935 7.8904C23.2911 7.91639 23.3884 7.94356 23.4853 7.97192C23.5823 8.00028 23.6789 8.02981 23.7751 8.06052C23.8713 8.09122 23.9671 8.1231 24.0626 8.15614C24.158 8.18919 24.2531 8.22338 24.3477 8.25872C24.4423 8.29406 24.5364 8.33056 24.6302 8.36821C24.7239 8.40584 24.8172 8.44461 24.91 8.4845C25.0028 8.5244 25.095 8.56543 25.1868 8.60759C25.2786 8.64972 25.3699 8.69298 25.4606 8.73735C25.5514 8.78173 25.6415 8.8272 25.7311 8.87376C25.8208 8.92032 25.9098 8.96797 25.9983 9.01669C26.0868 9.06541 26.1747 9.1152 26.2619 9.16606C26.3492 9.21692 26.4358 9.26884 26.5218 9.32181C26.6078 9.37478 26.6931 9.42879 26.7778 9.48384C26.8625 9.53886 26.9465 9.59492 27.0299 9.652C27.1132 9.70908 27.1958 9.76718 27.2777 9.8263C27.3596 9.88539 27.4408 9.94547 27.5212 10.0065C27.6017 10.0676 27.6814 10.1296 27.7603 10.1927C27.8393 10.2557 27.9174 10.3196 27.9948 10.3845C28.0722 10.4494 28.1488 10.5153 28.2246 10.582C28.3004 10.6488 28.3753 10.7165 28.4495 10.7851C28.5236 10.8537 28.5969 10.9232 28.6694 10.9935C28.7423 11.0634 28.8143 11.1342 28.8855 11.2059C28.9567 11.2776 29.0269 11.3501 29.0963 11.4235C29.1658 11.4969 29.2343 11.5711 29.3019 11.6462C29.3695 11.7213 29.4361 11.7971 29.5019 11.8738C29.5676 11.9505 29.6324 12.028 29.6963 12.1063C29.7601 12.1846 29.823 12.2636 29.8849 12.3434C29.9469 12.4232 30.0078 12.5038 30.0678 12.5851C30.1277 12.6664 30.1867 12.7484 30.2446 12.8311C30.3026 12.9139 30.3595 12.9973 30.4154 13.0814C30.4714 13.1656 30.5262 13.2504 30.5801 13.3358C30.634 13.4213 30.6868 13.5074 30.7385 13.5942C30.7902 13.6809 30.8409 13.7683 30.8906 13.8563C30.9402 13.9443 30.9887 14.0328 31.0362 14.122C31.0836 14.2112 31.13 14.3009 31.1752 14.3912C31.2205 14.4815 31.2646 14.5724 31.3077 14.6638C31.3507 14.7552 31.3926 14.8471 31.4335 14.9395C31.4743 15.0319 31.5139 15.1248 31.5525 15.2181C31.591 15.3115 31.6284 15.4054 31.6646 15.4997C31.7009 15.5939 31.736 15.6886 31.7699 15.7838C31.8038 15.8789 31.8366 15.9745 31.8682 16.0704C31.8998 16.1664 31.9302 16.2627 31.9595 16.3594C31.9888 16.4561 32.0168 16.5531 32.0437 16.6505C32.0706 16.7478 32.0963 16.8455 32.1208 16.9435C32.1453 17.0415 32.1686 17.1398 32.1906 17.2384C32.2128 17.3369 32.2337 17.4358 32.2533 17.5349C32.273 17.6339 32.2915 17.7332 32.3088 17.8327C32.326 17.9323 32.3421 18.032 32.3569 18.1319C32.3717 18.2318 32.3853 18.3319 32.3977 18.4322C32.4101 18.5325 32.4213 18.6328 32.4312 18.7334C32.4411 18.8339 32.4498 18.9345 32.4573 19.0352C32.4648 19.136 32.471 19.2368 32.4761 19.3377C32.4811 19.4386 32.4849 19.5395 32.4874 19.6405C32.5425 23.0639 31.3608 26.234 28.9708 28.7009C26.6154 31.1322 23.5091 32.3955 20.1377 32.4461L20.1156 32.4466C16.9286 32.5099 13.6516 31.2546 11.352 29.0462C11.2776 28.9744 11.2042 28.9017 11.1316 28.8281C11.059 28.7545 10.9874 28.68 10.9167 28.6047C10.8459 28.5293 10.7762 28.4531 10.7073 28.376C10.6385 28.2989 10.5706 28.221 10.5037 28.1422C10.4367 28.0634 10.3708 27.9839 10.3058 27.9035C10.2408 27.8231 10.1769 27.7419 10.1139 27.66C10.0509 27.578 9.98896 27.4953 9.92803 27.4118C9.86709 27.3283 9.80719 27.2441 9.74834 27.1591C9.68948 27.0742 9.63168 26.9885 9.57494 26.9021C9.5182 26.8157 9.46252 26.7286 9.40791 26.6409C9.35333 26.5531 9.29982 26.4647 9.2474 26.3756C9.19495 26.2865 9.14362 26.1968 9.09342 26.1065C9.04321 26.0162 8.99412 25.9252 8.94615 25.8337C8.89818 25.7421 8.85135 25.65 8.80564 25.5573C8.75991 25.4646 8.71536 25.3714 8.67197 25.2775C8.62856 25.1837 8.58631 25.0894 8.54521 24.9946C8.50415 24.8997 8.46424 24.8044 8.42549 24.7086C8.38676 24.6128 8.34921 24.5165 8.31283 24.4197C8.27648 24.323 8.24131 24.2258 8.20732 24.1282C8.17336 24.0306 8.1406 23.9325 8.10904 23.8341C8.07748 23.7357 8.04714 23.6369 8.01803 23.5377C7.98891 23.4386 7.96102 23.3391 7.93435 23.2392C7.90769 23.1393 7.88224 23.0392 7.85803 22.9387C7.83383 22.8382 7.81088 22.7374 7.78916 22.6364C7.76744 22.5353 7.74696 22.434 7.72771 22.3325C7.70849 22.2309 7.69053 22.1291 7.67381 22.0272C7.65709 21.9252 7.64163 21.823 7.62744 21.7206C7.61322 21.6182 7.60028 21.5157 7.58861 21.413C7.57694 21.3103 7.56654 21.2075 7.5574 21.1045C7.54823 21.0016 7.54036 20.8985 7.53377 20.7954C7.52715 20.6922 7.52181 20.589 7.51775 20.4857C7.51369 20.3824 7.5109 20.2791 7.50939 20.1758C7.50778 20.0741 7.5074 19.9724 7.50826 19.8706C7.50912 19.7689 7.51122 19.6672 7.51455 19.5656C7.51788 19.4639 7.52245 19.3623 7.52826 19.2607C7.53407 19.1592 7.54112 19.0577 7.54943 18.9563C7.55771 18.8549 7.56723 18.7537 7.57799 18.6525C7.58874 18.5514 7.60073 18.4504 7.61396 18.3495C7.62719 18.2486 7.64165 18.148 7.65732 18.0474C7.673 17.9469 7.6899 17.8466 7.70803 17.7465C7.72615 17.6464 7.74549 17.5466 7.76603 17.447C7.78661 17.3473 7.80838 17.248 7.83135 17.1489C7.85434 17.0498 7.87853 16.951 7.90392 16.8525C7.92931 16.754 7.95589 16.6558 7.98365 16.5579C8.01144 16.4601 8.04042 16.3626 8.0706 16.2654C8.10076 16.1683 8.1321 16.0715 8.16463 15.9751C8.19713 15.8787 8.23081 15.7828 8.26568 15.6872C8.30055 15.5917 8.33658 15.4965 8.37377 15.4018C8.41093 15.3072 8.44925 15.2129 8.48873 15.1192C8.52821 15.0254 8.56883 14.9322 8.6106 14.8394C8.65235 14.7467 8.69523 14.6544 8.73924 14.5627C8.78322 14.471 8.82833 14.3799 8.87455 14.2892C8.92077 14.1986 8.9681 14.1086 9.01654 14.0191C9.06495 13.9297 9.11446 13.8408 9.16506 13.7525C9.21563 13.6643 9.26728 13.5767 9.32002 13.4897C9.37273 13.4027 9.4265 13.3164 9.48135 13.2307C9.53616 13.145 9.59202 13.06 9.64892 12.9757C9.70583 12.8914 9.76376 12.8077 9.82271 12.7248C9.88165 12.6419 9.94158 12.5597 10.0025 12.4783C10.0635 12.3969 10.1254 12.3162 10.1883 12.2362C10.2512 12.1563 10.3151 12.0771 10.3799 11.9988C10.4448 11.9204 10.5106 11.8428 10.5773 11.766C10.644 11.6893 10.7117 11.6133 10.7803 11.5382C10.8489 11.4631 10.9184 11.3888 10.9888 11.3154C11.0607 11.2406 11.1336 11.1667 11.2074 11.0938C11.2813 11.0209 11.356 10.9488 11.4316 10.8777C11.5072 10.8067 11.5837 10.7365 11.661 10.6673C11.7383 10.5981 11.8165 10.5299 11.8955 10.4626C11.9746 10.3954 12.0544 10.3291 12.1351 10.2638C12.2158 10.1986 12.2972 10.1343 12.3795 10.0711C12.4618 10.0078 12.5448 9.94558 12.6287 9.88438C12.7125 9.82319 12.797 9.76304 12.8823 9.70395C12.9676 9.64487 13.0537 9.58683 13.1404 9.52985C13.2272 9.4729 13.3146 9.41703 13.4027 9.36224C13.4908 9.30744 13.5796 9.25375 13.6691 9.20114C13.7586 9.14856 13.8487 9.09709 13.9394 9.04673C14.0301 8.99639 14.1215 8.94717 14.2135 8.89907C14.3054 8.851 14.3979 8.80406 14.4911 8.75825C14.5842 8.71247 14.6779 8.66784 14.7721 8.62435C14.8663 8.58088 14.9611 8.53859 15.0564 8.49747C15.1517 8.45635 15.2475 8.41643 15.3437 8.37771C15.44 8.33896 15.5367 8.3014 15.6339 8.26505C15.7311 8.22872 15.8288 8.19359 15.9269 8.15966C16.0249 8.12575 16.1234 8.09306 16.2223 8.06157C16.3212 8.03009 16.4204 7.99984 16.5201 7.97083C16.6197 7.94182 16.7197 7.91405 16.82 7.88751C16.9204 7.86097 17.021 7.83569 17.1219 7.81165C17.2229 7.78761 17.3241 7.76483 17.4256 7.74329C17.5272 7.72178 17.6289 7.70152 17.731 7.68251C17.833 7.6635 17.9352 7.64577 18.0377 7.62931C18.1401 7.61285 18.2428 7.59765 18.3456 7.58372C18.4485 7.56981 18.5514 7.55717 18.6546 7.54579C18.7577 7.53444 18.861 7.52436 18.9644 7.51556C19.0678 7.50675 19.1713 7.49924 19.2749 7.49302C19.3785 7.48677 19.4822 7.48182 19.5859 7.47817C19.6896 7.4745 19.7933 7.47212 19.8971 7.47103Z" fill="white"/>
<path d="M19.4041 8.75786L19.4303 8.75622C22.2828 8.58528 25.2556 9.64547 27.3889 11.5389C27.459 11.6006 27.5284 11.6632 27.597 11.7266C27.6656 11.79 27.7334 11.8543 27.8004 11.9194C27.8674 11.9845 27.9336 12.0504 27.999 12.1172C28.0644 12.1839 28.1289 12.2514 28.1926 12.3198C28.2563 12.3881 28.3192 12.4572 28.3812 12.5272C28.4431 12.5971 28.5043 12.6677 28.5645 12.7391C28.6247 12.8105 28.6841 12.8827 28.7425 12.9556C28.801 13.0285 28.8585 13.1021 28.9151 13.1764C28.9717 13.2507 29.0274 13.3257 29.0822 13.4014C29.1369 13.4771 29.1908 13.5535 29.2436 13.6305C29.2965 13.7075 29.3484 13.7852 29.3993 13.8635C29.4503 13.9419 29.5002 14.0208 29.5492 14.1004C29.5982 14.1799 29.6462 14.2601 29.6932 14.3408C29.7402 14.4216 29.7862 14.5029 29.8312 14.5848C29.8761 14.6666 29.9201 14.7491 29.963 14.8321C30.0059 14.915 30.0478 14.9985 30.0887 15.0825C30.1296 15.1666 30.1694 15.2511 30.2082 15.3361C30.2469 15.4211 30.2846 15.5066 30.3213 15.5925C30.3579 15.6784 30.3935 15.7648 30.428 15.8516C30.4625 15.9385 30.4959 16.0257 30.5283 16.1134C30.5606 16.201 30.5919 16.2891 30.622 16.3775C30.6522 16.4659 30.6812 16.5547 30.7092 16.6438C30.7372 16.733 30.764 16.8225 30.7898 16.9123C30.8155 17.0021 30.8401 17.0922 30.8636 17.1827C30.8871 17.2731 30.9095 17.3638 30.9307 17.4547C30.952 17.5457 30.9721 17.637 30.9911 17.7284C31.0101 17.8199 31.028 17.9116 31.0447 18.0035C31.0614 18.0954 31.077 18.1876 31.0914 18.2799C31.1058 18.3722 31.1191 18.4646 31.1312 18.5573C31.1434 18.6499 31.1544 18.7427 31.1642 18.8356C31.1741 18.9285 31.1827 19.0215 31.1903 19.1147C31.1978 19.2078 31.2042 19.301 31.2094 19.3943C31.2142 19.4859 31.2179 19.5776 31.2204 19.6694C31.2229 19.7611 31.2243 19.8529 31.2246 19.9447C31.2249 20.0365 31.224 20.1283 31.2221 20.22C31.2201 20.3118 31.217 20.4035 31.2128 20.4952C31.2086 20.5869 31.2032 20.6785 31.1968 20.7701C31.1903 20.8616 31.1827 20.9531 31.174 21.0445C31.1653 21.1358 31.1555 21.2271 31.1445 21.3182C31.1336 21.4094 31.1215 21.5003 31.1083 21.5912C31.0951 21.682 31.0809 21.7727 31.0655 21.8632C31.0501 21.9537 31.0336 22.044 31.0159 22.134C30.9983 22.2241 30.9796 22.314 30.9598 22.4036C30.94 22.4932 30.9191 22.5826 30.8971 22.6717C30.8751 22.7608 30.852 22.8496 30.8278 22.9381C30.8036 23.0267 30.7783 23.1149 30.752 23.2029C30.7256 23.2908 30.6982 23.3784 30.6697 23.4656C30.6412 23.5529 30.6116 23.6397 30.581 23.7263C30.5504 23.8128 30.5187 23.8989 30.486 23.9847C30.4532 24.0704 30.4195 24.1558 30.3846 24.2407C30.3498 24.3256 30.3139 24.4101 30.277 24.4941C30.2401 24.5782 30.2022 24.6618 30.1632 24.7449C30.1243 24.828 30.0843 24.9106 30.0434 24.9927C30.0024 25.0749 29.9604 25.1565 29.9174 25.2376C29.8744 25.3187 29.8305 25.3993 29.7855 25.4793C29.7406 25.5593 29.6946 25.6388 29.6477 25.7177C29.6008 25.7966 29.553 25.8749 29.5041 25.9526C29.4553 26.0303 29.4056 26.1074 29.3548 26.184C29.3041 26.2605 29.2525 26.3363 29.1999 26.4116C29.1473 26.4868 29.0939 26.5614 29.0394 26.6353C28.985 26.7093 28.9297 26.7825 28.8736 26.855C28.8174 26.9276 28.7603 26.9995 28.7023 27.0707C28.6444 27.1418 28.5855 27.2123 28.5259 27.282C28.4662 27.3517 28.4056 27.4207 28.3443 27.489C26.7693 29.255 24.7095 30.4969 22.3786 30.9615C21.781 31.0806 21.1699 31.1398 20.5623 31.175C18.5063 31.3125 16.2753 30.7948 14.4693 29.8091C13.7755 29.4306 13.1093 28.9508 12.5147 28.4309C10.3493 26.5377 8.96379 23.6628 8.78035 20.7974C8.59234 17.8599 9.58656 14.8245 11.5434 12.6115C11.6051 12.5412 11.6677 12.4716 11.7312 12.4028C11.7947 12.334 11.859 12.266 11.9241 12.1987C11.9893 12.1315 12.0552 12.0651 12.122 11.9995C12.1888 11.9339 12.2564 11.8691 12.3247 11.8052C12.3931 11.7413 12.4623 11.6782 12.5322 11.616C12.6021 11.5538 12.6728 11.4924 12.7443 11.4319C12.8157 11.3715 12.8879 11.3119 12.9608 11.2532C13.0337 11.1945 13.1074 11.1367 13.1817 11.0798C13.2561 11.0229 13.3311 10.9669 13.4068 10.9119C13.4825 10.8569 13.5589 10.8028 13.636 10.7497C13.713 10.6965 13.7907 10.6443 13.8691 10.5931C13.9474 10.5418 14.0264 10.4916 14.106 10.4423C14.1856 10.393 14.2657 10.3447 14.3465 10.2974C14.4273 10.2501 14.5086 10.2038 14.5905 10.1585C14.6724 10.1132 14.7549 10.0689 14.8379 10.0256C14.9209 9.98238 15.0045 9.94015 15.0885 9.89895C15.1726 9.85773 15.2571 9.81756 15.3421 9.77844C15.4272 9.73933 15.5127 9.70127 15.5987 9.66426C15.6847 9.62726 15.7711 9.59131 15.858 9.55641C15.9448 9.52154 16.0321 9.48774 16.1198 9.45501C16.2075 9.42227 16.2956 9.39063 16.3841 9.36008C16.4726 9.32954 16.5614 9.30008 16.6506 9.27172C16.7398 9.24337 16.8294 9.2161 16.9193 9.18993C17.0091 9.16378 17.0993 9.13874 17.1898 9.11481C17.2803 9.09088 17.3711 9.06808 17.4621 9.04641C17.5532 9.02472 17.6445 9.00415 17.7361 8.98469C17.8277 8.96527 17.9194 8.94696 18.0115 8.92977C18.1035 8.91261 18.1957 8.89658 18.2881 8.88169C18.3805 8.86679 18.4731 8.85303 18.5659 8.8404C18.6586 8.82779 18.7515 8.81633 18.8446 8.80602C18.9376 8.79568 19.0308 8.7865 19.124 8.77848C19.2173 8.77046 19.3106 8.76359 19.4041 8.75786Z" fill="black"/>
<path d="M24.822 11.3755C24.9773 11.3619 25.133 11.3767 25.2877 11.391C24.5373 12.284 23.4378 12.8363 23.4293 14.1457C23.4293 14.185 23.4302 14.2244 23.4321 14.2637C23.4341 14.303 23.437 14.3422 23.4409 14.3813C23.4447 14.4205 23.4496 14.4595 23.4554 14.4984C23.4612 14.5373 23.4679 14.5761 23.4756 14.6147C23.4833 14.6532 23.492 14.6916 23.5016 14.7298C23.5111 14.7679 23.5217 14.8058 23.5331 14.8435C23.5446 14.8811 23.557 14.9184 23.5703 14.9555C23.5836 14.9925 23.5978 15.0292 23.6129 15.0655C23.628 15.1018 23.644 15.1378 23.6609 15.1733C23.6778 15.2088 23.6955 15.2439 23.7141 15.2786C23.7327 15.3132 23.7522 15.3474 23.7725 15.3811C23.7928 15.4148 23.8139 15.448 23.8358 15.4807C23.8577 15.5134 23.8805 15.5455 23.904 15.577C23.9275 15.6086 23.9518 15.6395 23.9768 15.6698C24.0019 15.7002 24.0276 15.7299 24.0541 15.759C24.0807 15.7881 24.1079 15.8165 24.1357 15.8442C24.1624 15.8709 24.1896 15.897 24.2175 15.9224C24.2454 15.9477 24.2739 15.9724 24.303 15.9964C24.3321 16.0204 24.3618 16.0436 24.3921 16.0662C24.4223 16.0887 24.4531 16.1105 24.4844 16.1315C24.5157 16.1525 24.5475 16.1727 24.5798 16.1922C24.6122 16.2117 24.6449 16.2303 24.6782 16.2482C24.7114 16.266 24.745 16.283 24.7791 16.2992C24.8131 16.3154 24.8476 16.3308 24.8824 16.3453C24.9172 16.3598 24.9524 16.3734 24.9879 16.3862C25.0233 16.399 25.0591 16.4109 25.0952 16.4219C25.1312 16.433 25.1675 16.4431 25.2041 16.4523C25.2407 16.4616 25.2774 16.4699 25.3144 16.4774C25.3514 16.4848 25.3885 16.4913 25.4258 16.4969C25.4631 16.5026 25.5005 16.5073 25.538 16.511C25.5756 16.5148 25.6132 16.5177 25.6508 16.5196C25.6885 16.5216 25.7262 16.5226 25.7639 16.5227C26.6468 16.5232 27.0322 16.0757 27.6073 15.496L28.5348 14.5659C28.6302 15.1412 28.5761 15.7072 28.3345 16.2412C27.9721 17.0423 27.2969 17.6419 26.4803 17.9505C25.9063 18.1409 25.3424 18.2059 24.7463 18.0807C24.547 18.0389 24.3364 17.9565 24.1327 17.9524C24.0516 17.9508 23.9725 17.9653 23.9031 18.009C23.6923 18.1416 23.5066 18.3741 23.3302 18.5516L22.54 19.3422C21.8964 18.737 21.2586 18.1078 20.6484 17.4692C20.895 17.2422 21.1293 16.9989 21.3673 16.7627C21.5515 16.5798 21.7656 16.3954 21.9174 16.1848C21.96 16.1258 21.9868 16.0577 22.0134 15.9904C21.9821 15.6318 21.8322 15.2803 21.8023 14.8937C21.7348 14.0204 22.0487 13.1078 22.6218 12.4499C23.1849 11.8036 23.973 11.4374 24.822 11.3755Z" fill="white"/>
<path d="M17.4627 20.6777C17.668 20.8448 17.8537 21.0582 18.0425 21.246L19.3251 22.5289C19.0191 22.8667 18.2369 23.5181 18.065 23.8744C17.9952 24.0191 17.9832 24.1817 17.9982 24.3398C18.0359 24.7349 18.1482 25.0981 18.1403 25.5029C18.1242 26.3298 17.792 27.173 17.1849 27.7456C16.5332 28.3603 15.7419 28.5833 14.8617 28.5542L15.7517 27.5259C16.0143 27.2254 16.3347 26.9373 16.5062 26.5718C16.7521 26.0474 16.6872 25.524 16.4966 24.9955C16.3561 24.6664 16.1596 24.3746 15.8955 24.1315C15.867 24.1049 15.8378 24.0791 15.808 24.0541C15.7781 24.029 15.7477 24.0046 15.7166 23.9811C15.6856 23.9575 15.654 23.9347 15.6218 23.9127C15.5896 23.8907 15.5569 23.8695 15.5237 23.8492C15.4905 23.8288 15.4568 23.8093 15.4226 23.7906C15.3884 23.7719 15.3538 23.7541 15.3187 23.7371C15.2836 23.7201 15.2481 23.7041 15.2122 23.6889C15.1763 23.6737 15.1401 23.6594 15.1035 23.646C15.0669 23.6326 15.0299 23.6201 14.9927 23.6086C14.9555 23.597 14.918 23.5864 14.8803 23.5767C14.8425 23.567 14.8045 23.5582 14.7664 23.5504C14.7282 23.5426 14.6898 23.5358 14.6513 23.5299C14.6128 23.524 14.5741 23.5191 14.5354 23.5151C14.4966 23.5112 14.4577 23.5082 14.4188 23.5061C14.3799 23.5041 14.341 23.503 14.302 23.5029C14.263 23.5028 14.224 23.5037 14.1851 23.5055C13.9261 23.517 13.6597 23.5669 13.4319 23.6957C12.9466 23.9698 11.9366 25.2241 11.503 25.7012C11.4503 25.4094 11.415 25.1191 11.4141 24.8219C11.4141 24.775 11.4153 24.7282 11.4176 24.6814C11.4199 24.6346 11.4234 24.5879 11.428 24.5413C11.4326 24.4947 11.4383 24.4482 11.4452 24.4018C11.452 24.3555 11.46 24.3094 11.4691 24.2634C11.4782 24.2174 11.4885 24.1717 11.4998 24.1263C11.5111 24.0808 11.5236 24.0357 11.5371 23.9908C11.5507 23.946 11.5653 23.9015 11.581 23.8573C11.5967 23.8132 11.6135 23.7695 11.6313 23.7262C11.6492 23.6829 11.6681 23.64 11.688 23.5976C11.7079 23.5552 11.7289 23.5133 11.7509 23.472C11.7728 23.4306 11.7958 23.3898 11.8198 23.3495C11.8438 23.3092 11.8687 23.2696 11.8946 23.2305C11.9205 23.1915 11.9473 23.1531 11.9751 23.1154C12.0029 23.0777 12.0315 23.0407 12.0611 23.0043C12.0907 22.968 12.1211 22.9324 12.1524 22.8975C12.1838 22.8627 12.2159 22.8286 12.2489 22.7954C12.9531 22.0984 13.9268 21.8049 14.9026 21.8814C15.2028 21.905 15.5021 21.9907 15.8029 21.9909C15.9279 21.9911 16.0541 21.972 16.1647 21.9113C16.4313 21.7651 17.2066 20.9312 17.4627 20.6777Z" fill="white"/>
<path d="M14.8746 11.3902C14.9293 11.3851 14.9845 11.3798 15.0395 11.3826C15.1349 11.3876 15.2224 11.4107 15.2978 11.4713C15.4854 11.622 15.6531 11.8066 15.8235 11.9765L16.7178 12.866C16.9645 13.1084 17.2076 13.3564 17.4588 13.5939C17.6303 13.756 17.8177 13.9049 17.973 14.0832C18.0093 14.1248 18.0344 14.1638 18.0484 14.2177C18.1334 14.5455 18.024 15.4571 17.9928 15.8318C17.2367 16.5634 16.5176 17.3524 15.7252 18.0431L14.6087 18.1143L14.1785 18.1439C13.846 17.8302 13.5347 17.4871 13.2112 17.1632C12.9306 16.8822 11.5713 15.58 11.4502 15.3543C11.373 15.2104 11.378 15.0088 11.4244 14.8562C11.445 14.7885 11.481 14.7422 11.528 14.6908C12.0719 14.0949 12.6772 13.5422 13.2473 12.9708L14.1974 12.0096C14.3563 11.8473 14.5111 11.6716 14.6787 11.5189C14.739 11.464 14.802 11.4269 14.8746 11.3902Z" fill="white"/>
<path d="M18.4565 16.5166C18.588 16.5943 18.8255 16.8691 18.9456 16.987C19.6077 17.637 20.2554 18.3032 20.9108 18.9602L24.1288 22.1383C24.9377 22.9533 25.751 23.7637 26.5688 24.5697C27.1464 25.1444 27.7175 25.7273 28.3136 26.2827C28.0971 26.5119 27.9044 26.7679 27.6936 27.0032C27.486 27.2331 27.2689 27.4537 27.0422 27.6648C26.8156 27.876 26.5802 28.0769 26.3361 28.2677C26.2029 28.2227 17.3929 19.3818 16.4766 18.474C17.1308 17.8157 17.7908 17.1632 18.4565 16.5166Z" fill="white"/>
</svg>