<svg width="262" height="262" viewBox="0 0 262 262" fill="none" xmlns="http://www.w3.org/2000/svg">
<circle cx="131" cy="130.649" r="130.444" fill="#7E7E62"/>
<mask id="path-2-inside-1_1105_7693" fill="white">
<path fill-rule="evenodd" clip-rule="evenodd" d="M63.4873 80.2051L86.6582 56.712V67.1677C86.282 72.1684 85.2454 75.0872 83.2853 76.9209C81.3035 78.7747 78.1809 79.7112 73.1098 80.2051H63.4873ZM62.9941 184.084V82.2051H73.1582H73.2064L73.2544 82.2004C78.4067 81.7027 82.1418 80.7292 84.6516 78.3815C87.1842 76.0122 88.2716 72.4361 88.6554 67.2793L88.6582 67.2422V67.2051V56.2051H185.063C186.168 56.2051 187.063 57.1005 187.063 58.2051V189.095L188.658 189.205H187.063V197.724L187.044 197.724C186.635 205.543 178.967 211.826 169.405 212.188L167.691 212.075C165.373 211.768 163.182 210.924 161.199 209.643C155.434 205.921 151.421 198.513 151.128 189.893L62.9941 184.084ZM164.676 211.877C165.92 212.092 167.21 212.205 168.532 212.205C168.74 212.205 168.947 212.202 169.153 212.197C168.661 212.18 168.173 212.139 167.691 212.075L164.676 211.877ZM68.1886 203.517C60.2237 203.517 53.0347 195.971 51.8205 185.352L149.244 191.773C149.904 198.892 152.988 205.283 157.592 209.405L68.3202 203.522C68.2764 203.519 68.2325 203.517 68.1886 203.517Z"/>
</mask>
<path fill-rule="evenodd" clip-rule="evenodd" d="M63.4873 80.2051L86.6582 56.712V67.1677C86.282 72.1684 85.2454 75.0872 83.2853 76.9209C81.3035 78.7747 78.1809 79.7112 73.1098 80.2051H63.4873ZM62.9941 184.084V82.2051H73.1582H73.2064L73.2544 82.2004C78.4067 81.7027 82.1418 80.7292 84.6516 78.3815C87.1842 76.0122 88.2716 72.4361 88.6554 67.2793L88.6582 67.2422V67.2051V56.2051H185.063C186.168 56.2051 187.063 57.1005 187.063 58.2051V189.095L188.658 189.205H187.063V197.724L187.044 197.724C186.635 205.543 178.967 211.826 169.405 212.188L167.691 212.075C165.373 211.768 163.182 210.924 161.199 209.643C155.434 205.921 151.421 198.513 151.128 189.893L62.9941 184.084ZM164.676 211.877C165.92 212.092 167.21 212.205 168.532 212.205C168.74 212.205 168.947 212.202 169.153 212.197C168.661 212.18 168.173 212.139 167.691 212.075L164.676 211.877ZM68.1886 203.517C60.2237 203.517 53.0347 195.971 51.8205 185.352L149.244 191.773C149.904 198.892 152.988 205.283 157.592 209.405L68.3202 203.522C68.2764 203.519 68.2325 203.517 68.1886 203.517Z" fill="black"/>
<path d="M63.027 181.886L14.691 178.706L14.6254 179.704L62.9613 182.884L63.027 181.886ZM86.6582 56.712H87.6582C87.6582 56.3063 87.4131 55.9408 87.0377 55.7868C86.6623 55.6329 86.2311 55.721 85.9462 56.0098L86.6582 56.712ZM63.4873 80.2051L62.7753 79.5029C62.4922 79.7899 62.4091 80.219 62.5647 80.591C62.7203 80.9629 63.0841 81.2051 63.4873 81.2051V80.2051ZM86.6582 67.1677L87.6554 67.2428C87.6573 67.2178 87.6582 67.1928 87.6582 67.1677H86.6582ZM83.2853 76.9209L83.9684 77.6512V77.6512L83.2853 76.9209ZM73.1098 80.2051V81.2051C73.1422 81.2051 73.1745 81.2035 73.2067 81.2004L73.1098 80.2051ZM62.9941 82.2051V81.2051C62.4419 81.2051 61.9941 81.6528 61.9941 82.2051H62.9941ZM62.9941 184.084H61.9941C61.9941 184.611 62.4028 185.047 62.9284 185.082L62.9941 184.084ZM73.2064 82.2051V83.2051C73.2385 83.2051 73.2706 83.2035 73.3026 83.2004L73.2064 82.2051ZM73.2544 82.2004L73.1582 81.2051L73.1582 81.2051L73.2544 82.2004ZM84.6516 78.3815L83.9684 77.6512L84.6516 78.3815ZM88.6554 67.2793L87.6582 67.205V67.2051L88.6554 67.2793ZM88.6582 67.2422L89.6554 67.3166C89.6573 67.2918 89.6582 67.267 89.6582 67.2422H88.6582ZM88.6582 56.2051V55.2051C88.1059 55.2051 87.6582 55.6528 87.6582 56.2051H88.6582ZM187.063 189.095H186.063C186.063 189.62 186.47 190.056 186.994 190.092L187.063 189.095ZM188.658 189.205V190.205C189.197 190.205 189.639 189.778 189.658 189.24C189.676 188.701 189.265 188.245 188.727 188.207L188.658 189.205ZM187.063 189.205V188.205C186.511 188.205 186.063 188.653 186.063 189.205H187.063ZM187.063 197.724L187.064 198.724C187.616 198.724 188.063 198.276 188.063 197.724H187.063ZM187.044 197.724L187.044 196.724C186.512 196.724 186.074 197.141 186.046 197.672L187.044 197.724ZM169.405 212.188L169.34 213.186C169.374 213.189 169.409 213.189 169.443 213.188L169.405 212.188ZM161.199 209.643L160.656 210.483L161.199 209.643ZM151.128 189.893L152.127 189.859C152.11 189.346 151.706 188.929 151.194 188.895L151.128 189.893ZM164.676 211.877L164.742 210.879C164.211 210.844 163.746 211.23 163.683 211.758C163.62 212.287 163.981 212.771 164.505 212.862L164.676 211.877ZM169.153 212.197L169.18 213.196C169.72 213.182 170.151 212.74 170.153 212.2C170.155 211.659 169.727 211.215 169.187 211.197L169.153 212.197ZM51.8205 185.352L51.8862 184.354C51.5904 184.335 51.3012 184.447 51.0966 184.662C50.892 184.877 50.7933 185.171 50.827 185.466L51.8205 185.352ZM149.244 191.773L150.239 191.681C150.194 191.191 149.8 190.808 149.309 190.775L149.244 191.773ZM157.592 209.405L157.526 210.403C157.952 210.431 158.348 210.186 158.514 209.793C158.679 209.4 158.577 208.945 158.259 208.66L157.592 209.405ZM68.3202 203.522L68.3859 202.524H68.3859L68.3202 203.522ZM85.9462 56.0098L62.7753 79.5029L64.1993 80.9073L87.3702 57.4142L85.9462 56.0098ZM87.6582 67.1677V56.712H85.6582V67.1677H87.6582ZM83.9684 77.6512C86.2118 75.5526 87.2741 72.311 87.6554 67.2428L85.661 67.0927C85.2899 72.0258 84.2791 74.6219 82.6021 76.1906L83.9684 77.6512ZM73.2067 81.2004C78.3049 80.7039 81.7263 79.7486 83.9684 77.6512L82.6021 76.1906C80.8808 77.8009 78.057 78.7186 73.0129 79.2098L73.2067 81.2004ZM63.4873 81.2051H73.1098V79.2051H63.4873V81.2051ZM61.9941 82.2051V184.084H63.9941V82.2051H61.9941ZM73.1582 81.2051H62.9941V83.2051H73.1582V81.2051ZM73.2064 81.2051H73.1582V83.2051H73.2064V81.2051ZM73.1582 81.2051L73.1102 81.2097L73.3026 83.2004L73.3505 83.1958L73.1582 81.2051ZM83.9684 77.6512C81.7195 79.755 78.2837 80.7099 73.1582 81.2051L73.3505 83.1958C78.5296 82.6955 82.5642 81.7035 85.3347 79.1117L83.9684 77.6512ZM87.6582 67.2051C87.2794 72.2951 86.2172 75.5475 83.9684 77.6512L85.3347 79.1117C88.1512 76.477 89.2639 72.5771 89.6527 67.3535L87.6582 67.2051ZM87.661 67.1679L87.6582 67.205L89.6527 67.3536L89.6554 67.3166L87.661 67.1679ZM87.6582 67.2051V67.2422H89.6582V67.2051H87.6582ZM87.6582 56.2051V67.2051H89.6582V56.2051H87.6582ZM185.063 55.2051H88.6582V57.2051H185.063V55.2051ZM188.063 58.2051C188.063 56.5482 186.72 55.2051 185.063 55.2051V57.2051C185.616 57.2051 186.063 57.6528 186.063 58.2051H188.063ZM188.063 189.095V58.2051H186.063V189.095H188.063ZM188.727 188.207L187.133 188.097L186.994 190.092L188.589 190.203L188.727 188.207ZM187.063 190.205H188.658V188.205H187.063V190.205ZM188.063 197.724V189.205H186.063V197.724H188.063ZM187.045 198.724L187.064 198.724L187.063 196.724L187.044 196.724L187.045 198.724ZM169.443 213.188C179.348 212.812 187.598 206.268 188.043 197.776L186.046 197.672C185.672 204.818 178.585 210.84 169.367 211.189L169.443 213.188ZM169.471 211.191L167.757 211.078L167.625 213.073L169.34 213.186L169.471 211.191ZM167.822 211.084C165.662 210.798 163.61 210.01 161.741 208.803L160.656 210.483C162.754 211.838 165.084 212.739 167.559 213.067L167.822 211.084ZM161.741 208.803C156.297 205.288 152.411 198.21 152.127 189.859L150.128 189.927C150.431 198.816 154.571 206.554 160.656 210.483L161.741 208.803ZM151.194 188.895L63.0599 183.086L62.9284 185.082L151.062 190.891L151.194 188.895ZM164.505 212.862C165.806 213.087 167.152 213.205 168.532 213.205V211.205C167.267 211.205 166.034 211.097 164.846 210.891L164.505 212.862ZM168.532 213.205C168.749 213.205 168.965 213.202 169.18 213.196L169.126 211.197C168.929 211.202 168.731 211.205 168.532 211.205V213.205ZM167.559 213.067C168.074 213.135 168.594 213.178 169.119 213.196L169.187 211.197C168.727 211.182 168.272 211.144 167.822 211.084L167.559 213.067ZM164.61 212.875L167.625 213.073L167.757 211.078L164.742 210.879L164.61 212.875ZM50.827 185.466C52.0774 196.401 59.546 204.517 68.1886 204.517V202.517C60.9014 202.517 53.992 195.54 52.814 185.238L50.827 185.466ZM149.309 190.775L51.8862 184.354L51.7547 186.35L149.178 192.771L149.309 190.775ZM158.259 208.66C153.866 204.727 150.879 198.581 150.239 191.681L148.248 191.865C148.929 199.203 152.11 205.839 156.925 210.15L158.259 208.66ZM68.2544 204.519L157.526 210.403L157.658 208.408L68.3859 202.524L68.2544 204.519ZM68.1886 204.517C68.2105 204.517 68.2324 204.518 68.2545 204.519L68.3859 202.524C68.3203 202.519 68.2545 202.517 68.1886 202.517V204.517Z" fill="black" mask="url(#path-2-inside-1_1105_7693)"/>
<circle cx="45.1582" cy="127.705" r="20.5" fill="url(#paint0_linear_1105_7693)" stroke="url(#paint1_linear_1105_7693)" stroke-width="4"/>
<rect x="115.658" y="99.2051" width="39" height="3" fill="#D9D9D9"/>
<rect x="115.658" y="110.205" width="39" height="3" fill="#D9D9D9"/>
<rect x="115.658" y="121.205" width="39" height="3" fill="#D9D9D9"/>
<rect x="156.658" y="99.2051" width="3" height="3" fill="#D9D9D9"/>
<rect x="156.658" y="110.205" width="3" height="3" fill="#D9D9D9"/>
<rect x="156.658" y="121.205" width="3" height="3" fill="#D9D9D9"/>
<path d="M151.578 179.252C151.236 178.705 151.129 178.017 151.336 177.339L152.253 178.806C152.046 179.484 152.153 180.172 152.494 180.719L151.578 179.252Z" fill="url(#paint2_linear_1105_7693)"/>
<path d="M152.882 180.241C152.316 180.068 151.866 179.709 151.581 179.252L152.497 180.719C152.783 181.176 153.232 181.535 153.799 181.708L152.882 180.241Z" fill="url(#paint3_linear_1105_7693)"/>
<path d="M235.891 147.276C236.457 147.449 236.907 147.808 237.193 148.265L238.109 149.732C237.823 149.275 237.374 148.916 236.807 148.743L235.891 147.276Z" fill="url(#paint4_linear_1105_7693)"/>
<path d="M237.191 148.265C237.533 148.813 237.64 149.5 237.433 150.179L238.35 151.646C238.557 150.968 238.45 150.28 238.108 149.733L237.191 148.265Z" fill="url(#paint5_linear_1105_7693)"/>
<g filter="url(#filter0_iiii_1105_7693)">
<path d="M219.573 200.632L152.877 180.241L153.794 181.708L220.49 202.099L219.573 200.632Z" fill="url(#paint6_linear_1105_7693)"/>
<path d="M237.428 150.178L222.475 199.089L223.391 200.556L238.345 151.645L237.428 150.178Z" fill="url(#paint7_linear_1105_7693)"/>
<path d="M222.475 199.089C222.095 200.334 220.817 201.013 219.572 200.632L220.489 202.099C221.734 202.48 223.011 201.801 223.392 200.556L222.475 199.089Z" fill="url(#paint8_linear_1105_7693)"/>
</g>
<g filter="url(#filter1_iiii_1105_7693)">
<path d="M167.205 129.895C167.586 128.65 168.863 127.971 170.108 128.352L236.804 148.743C237.371 148.916 237.821 149.275 238.106 149.733C238.448 150.28 238.555 150.968 238.348 151.646L223.394 200.556C223.014 201.801 221.736 202.48 220.491 202.1L153.796 181.709C153.229 181.535 152.779 181.176 152.494 180.719C152.152 180.172 152.045 179.484 152.252 178.806L167.205 129.895Z" fill="url(#paint9_linear_1105_7693)"/>
<path d="M166.291 128.428C166.672 127.183 167.949 126.504 169.194 126.885L170.111 128.352C168.866 127.971 167.588 128.65 167.208 129.895L166.291 128.428Z" fill="url(#paint10_linear_1105_7693)"/>
<path d="M151.336 177.339L166.289 128.428L167.206 129.895L152.253 178.806L151.336 177.339Z" fill="url(#paint11_linear_1105_7693)"/>
<path d="M169.195 126.885L235.891 147.276L236.808 148.743L170.112 128.352L169.195 126.885Z" fill="url(#paint12_linear_1105_7693)"/>
<path d="M166.291 128.428C166.672 127.183 167.949 126.504 169.194 126.885L235.89 147.276C237.135 147.656 237.814 148.934 237.433 150.179L232.675 165.741L227.617 182.286L222.48 199.089C222.099 200.334 220.822 201.013 219.577 200.632L152.881 180.241C151.636 179.861 150.957 178.584 151.338 177.339L153.377 170.669L161.533 143.991L166.291 128.428Z" fill="url(#paint13_linear_1105_7693)"/>
<path d="M169.194 126.885C167.949 126.504 166.672 127.183 166.291 128.428L164.252 135.098L235.394 156.848L237.433 150.179C237.814 148.934 237.135 147.656 235.89 147.276L169.194 126.885ZM161.533 143.991L151.338 177.339C150.957 178.584 151.636 179.861 152.881 180.241L219.577 200.632C220.822 201.013 222.099 200.334 222.48 199.089L232.675 165.741L161.533 143.991ZM164.988 164.495L173.881 167.214L171.162 176.107L162.27 173.388L164.988 164.495ZM182.774 169.933L191.667 172.651L188.948 181.544L180.055 178.825L182.774 169.933Z" fill="url(#paint14_linear_1105_7693)"/>
<path d="M167.247 128.721C167.466 128.004 168.185 127.622 168.902 127.841L235.597 148.232C236.314 148.451 236.696 149.169 236.477 149.886L231.719 165.449L226.661 181.993L221.524 198.797C221.304 199.513 220.586 199.895 219.869 199.676L153.173 179.285C152.457 179.066 152.075 178.348 152.294 177.631L154.333 170.961L162.489 144.283L167.247 128.721Z" stroke="url(#paint15_linear_1105_7693)" stroke-width="2"/>
</g>
<path d="M93.9902 169.267L95.3852 170L95.6642 168.85H94.1009L93.9902 169.267Z" fill="url(#paint16_linear_1105_7693)"/>
<path d="M97.0176 167.709H98.1836L97.4573 170.703H96.2852L97.0176 167.709Z" fill="url(#paint17_linear_1105_7693)"/>
<path d="M92.3909 167.707H95.9598L95.7894 168.414H93.3794L92.9948 169.997H95.4048L95.2329 170.704H91.6641L92.3909 167.707Z" fill="url(#paint18_linear_1105_7693)"/>
<path d="M99.2629 167.711H102.712L102.246 169.638L101.796 169.998L102.195 170.705H100.845L100.024 169.27H101.196L101.403 168.418H100.231L100.024 169.27L99.6745 170.705H98.5371L99.2629 167.711Z" fill="url(#paint19_linear_1105_7693)"/>
<path d="M103.491 167.711H107.02L106.846 168.418H105.673L105.118 170.705H103.967L104.515 168.418H103.318L103.491 167.711Z" fill="url(#paint20_linear_1105_7693)"/>
<path d="M113.993 169.211L114.941 170.711H113.575L112.701 169.212L114.303 167.712H115.658L113.993 169.211Z" fill="url(#paint21_linear_1105_7693)"/>
<path d="M113.07 167.711L112.708 169.209L112.341 170.705H111.197L111.929 167.711H113.07Z" fill="url(#paint22_linear_1105_7693)"/>
<path d="M107.784 167.711H111.216L111.045 168.418H108.785L108.679 168.855H109.94L109.769 169.561H108.507L108.401 169.998H110.661L110.489 170.705H107.059L107.784 167.711Z" fill="url(#paint23_linear_1105_7693)"/>
<path d="M81.5143 164.205L79.6582 171.918L84.0161 175.223L89.9364 170.74L90.6714 167.709H87.6896L87.4371 168.814L88.0752 169.297L84.0161 172.371L82.4651 171.192L83.6249 166.38H96.3106L96.839 164.205H81.5143Z" fill="url(#paint24_linear_1105_7693)"/>
<path fill-rule="evenodd" clip-rule="evenodd" d="M47.1225 129.556H46.4872L39.1326 129.368V129.349L36.0697 129.27L35.6582 125.239L39.0967 125.261L39.0304 119.407L38.6575 115.317C38.6575 115.317 42.5738 115.205 47.0396 115.205C59.0369 115.205 57.9874 129.556 47.1225 129.556ZM46.8214 119.366C46.3409 119.366 43.8884 119.393 43.8884 119.393L44.09 125.239L48.5614 125.212C50.2157 124.149 52.3782 119.366 46.8214 119.366ZM51.7264 135.181L43.9105 135.031V138.205L39.2154 138.126L39.185 134.941L36.6414 134.895L36.2907 131.462L52.3506 131.388L51.7264 135.181Z" fill="black"/>
<defs>
<filter id="filter0_iiii_1105_7693" x="133.877" y="131.178" width="104.469" height="71.0266" filterUnits="userSpaceOnUse" color-interpolation-filters="sRGB">
<feFlood flood-opacity="0" result="BackgroundImageFix"/>
<feBlend mode="normal" in="SourceGraphic" in2="BackgroundImageFix" result="shape"/>
<feColorMatrix in="SourceAlpha" type="matrix" values="0 0 0 0 0 0 0 0 0 0 0 0 0 0 0 0 0 0 127 0" result="hardAlpha"/>
<feOffset dx="-2" dy="-2"/>
<feGaussianBlur stdDeviation="3"/>
<feComposite in2="hardAlpha" operator="arithmetic" k2="-1" k3="1"/>
<feColorMatrix type="matrix" values="0 0 0 0 1 0 0 0 0 1 0 0 0 0 1 0 0 0 0.1 0"/>
<feBlend mode="normal" in2="shape" result="effect1_innerShadow_1105_7693"/>
<feColorMatrix in="SourceAlpha" type="matrix" values="0 0 0 0 0 0 0 0 0 0 0 0 0 0 0 0 0 0 127 0" result="hardAlpha"/>
<feOffset dx="-9" dy="-7"/>
<feGaussianBlur stdDeviation="6"/>
<feComposite in2="hardAlpha" operator="arithmetic" k2="-1" k3="1"/>
<feColorMatrix type="matrix" values="0 0 0 0 1 0 0 0 0 1 0 0 0 0 1 0 0 0 0.09 0"/>
<feBlend mode="normal" in2="effect1_innerShadow_1105_7693" result="effect2_innerShadow_1105_7693"/>
<feColorMatrix in="SourceAlpha" type="matrix" values="0 0 0 0 0 0 0 0 0 0 0 0 0 0 0 0 0 0 127 0" result="hardAlpha"/>
<feOffset dx="-21" dy="-16"/>
<feGaussianBlur stdDeviation="8"/>
<feComposite in2="hardAlpha" operator="arithmetic" k2="-1" k3="1"/>
<feColorMatrix type="matrix" values="0 0 0 0 1 0 0 0 0 1 0 0 0 0 1 0 0 0 0.05 0"/>
<feBlend mode="normal" in2="effect2_innerShadow_1105_7693" result="effect3_innerShadow_1105_7693"/>
<feColorMatrix in="SourceAlpha" type="matrix" values="0 0 0 0 0 0 0 0 0 0 0 0 0 0 0 0 0 0 127 0" result="hardAlpha"/>
<feOffset dx="-37" dy="-28"/>
<feGaussianBlur stdDeviation="9.5"/>
<feComposite in2="hardAlpha" operator="arithmetic" k2="-1" k3="1"/>
<feColorMatrix type="matrix" values="0 0 0 0 1 0 0 0 0 1 0 0 0 0 1 0 0 0 0.01 0"/>
<feBlend mode="normal" in2="effect3_innerShadow_1105_7693" result="effect4_innerShadow_1105_7693"/>
</filter>
<filter id="filter1_iiii_1105_7693" x="151.232" y="126.779" width="118.221" height="106.426" filterUnits="userSpaceOnUse" color-interpolation-filters="sRGB">
<feFlood flood-opacity="0" result="BackgroundImageFix"/>
<feBlend mode="normal" in="SourceGraphic" in2="BackgroundImageFix" result="shape"/>
<feColorMatrix in="SourceAlpha" type="matrix" values="0 0 0 0 0 0 0 0 0 0 0 0 0 0 0 0 0 0 127 0" result="hardAlpha"/>
<feOffset dx="3" dy="4"/>
<feGaussianBlur stdDeviation="5.5"/>
<feComposite in2="hardAlpha" operator="arithmetic" k2="-1" k3="1"/>
<feColorMatrix type="matrix" values="0 0 0 0 1 0 0 0 0 1 0 0 0 0 1 0 0 0 0.1 0"/>
<feBlend mode="normal" in2="shape" result="effect1_innerShadow_1105_7693"/>
<feColorMatrix in="SourceAlpha" type="matrix" values="0 0 0 0 0 0 0 0 0 0 0 0 0 0 0 0 0 0 127 0" result="hardAlpha"/>
<feOffset dx="13" dy="14"/>
<feGaussianBlur stdDeviation="9.5"/>
<feComposite in2="hardAlpha" operator="arithmetic" k2="-1" k3="1"/>
<feColorMatrix type="matrix" values="0 0 0 0 1 0 0 0 0 1 0 0 0 0 1 0 0 0 0.09 0"/>
<feBlend mode="normal" in2="effect1_innerShadow_1105_7693" result="effect2_innerShadow_1105_7693"/>
<feColorMatrix in="SourceAlpha" type="matrix" values="0 0 0 0 0 0 0 0 0 0 0 0 0 0 0 0 0 0 127 0" result="hardAlpha"/>
<feOffset dx="29" dy="32"/>
<feGaussianBlur stdDeviation="13"/>
<feComposite in2="hardAlpha" operator="arithmetic" k2="-1" k3="1"/>
<feColorMatrix type="matrix" values="0 0 0 0 1 0 0 0 0 1 0 0 0 0 1 0 0 0 0.05 0"/>
<feBlend mode="normal" in2="effect2_innerShadow_1105_7693" result="effect3_innerShadow_1105_7693"/>
<feColorMatrix in="SourceAlpha" type="matrix" values="0 0 0 0 0 0 0 0 0 0 0 0 0 0 0 0 0 0 127 0" result="hardAlpha"/>
<feOffset dx="51" dy="57"/>
<feGaussianBlur stdDeviation="15.5"/>
<feComposite in2="hardAlpha" operator="arithmetic" k2="-1" k3="1"/>
<feColorMatrix type="matrix" values="0 0 0 0 1 0 0 0 0 1 0 0 0 0 1 0 0 0 0.01 0"/>
<feBlend mode="normal" in2="effect3_innerShadow_1105_7693" result="effect4_innerShadow_1105_7693"/>
</filter>
<linearGradient id="paint0_linear_1105_7693" x1="45.1582" y1="105.205" x2="45.1582" y2="150.205" gradientUnits="userSpaceOnUse">
<stop stop-color="#E0690B"/>
<stop offset="1" stop-color="#D3401A"/>
</linearGradient>
<linearGradient id="paint1_linear_1105_7693" x1="45.1582" y1="105.205" x2="45.1582" y2="150.205" gradientUnits="userSpaceOnUse">
<stop stop-color="#FF9F54"/>
<stop offset="0.815" stop-color="#FD6D00"/>
<stop offset="0.9999" stop-color="#ED5500"/>
<stop offset="1" stop-color="#D63300"/>
</linearGradient>
<linearGradient id="paint2_linear_1105_7693" x1="151.862" y1="177.339" x2="151.862" y2="180.719" gradientUnits="userSpaceOnUse">
<stop stop-color="#DB3A11"/>
<stop offset="1" stop-color="#C5310B"/>
</linearGradient>
<linearGradient id="paint3_linear_1105_7693" x1="152.689" y1="179.251" x2="152.689" y2="181.708" gradientUnits="userSpaceOnUse">
<stop stop-color="#DB3A11"/>
<stop offset="1" stop-color="#C5310B"/>
</linearGradient>
<linearGradient id="paint4_linear_1105_7693" x1="237" y1="147.276" x2="237" y2="149.733" gradientUnits="userSpaceOnUse">
<stop stop-color="#DB3A11"/>
<stop offset="1" stop-color="#C5310B"/>
</linearGradient>
<linearGradient id="paint5_linear_1105_7693" x1="237.823" y1="148.265" x2="237.823" y2="151.646" gradientUnits="userSpaceOnUse">
<stop stop-color="#DB3A11"/>
<stop offset="1" stop-color="#C5310B"/>
</linearGradient>
<linearGradient id="paint6_linear_1105_7693" x1="186.683" y1="180.241" x2="186.683" y2="202.099" gradientUnits="userSpaceOnUse">
<stop stop-color="#DB3A11"/>
<stop offset="1" stop-color="#C5310B"/>
</linearGradient>
<linearGradient id="paint7_linear_1105_7693" x1="230.41" y1="150.178" x2="230.41" y2="200.556" gradientUnits="userSpaceOnUse">
<stop stop-color="#DB3A11"/>
<stop offset="1" stop-color="#C5310B"/>
</linearGradient>
<linearGradient id="paint8_linear_1105_7693" x1="221.482" y1="199.089" x2="221.482" y2="202.205" gradientUnits="userSpaceOnUse">
<stop stop-color="#DB3A11"/>
<stop offset="1" stop-color="#C5310B"/>
</linearGradient>
<linearGradient id="paint9_linear_1105_7693" x1="195.3" y1="128.246" x2="195.3" y2="202.205" gradientUnits="userSpaceOnUse">
<stop stop-color="#DB3A11"/>
<stop offset="1" stop-color="#C5310B"/>
</linearGradient>
<linearGradient id="paint10_linear_1105_7693" x1="168.201" y1="126.779" x2="168.201" y2="129.895" gradientUnits="userSpaceOnUse">
<stop stop-color="#DB3A11"/>
<stop offset="1" stop-color="#C5310B"/>
</linearGradient>
<linearGradient id="paint11_linear_1105_7693" x1="159.271" y1="128.428" x2="159.271" y2="178.806" gradientUnits="userSpaceOnUse">
<stop stop-color="#DB3A11"/>
<stop offset="1" stop-color="#C5310B"/>
</linearGradient>
<linearGradient id="paint12_linear_1105_7693" x1="203.002" y1="126.885" x2="203.002" y2="148.743" gradientUnits="userSpaceOnUse">
<stop stop-color="#DB3A11"/>
<stop offset="1" stop-color="#C5310B"/>
</linearGradient>
<linearGradient id="paint13_linear_1105_7693" x1="202.542" y1="137.08" x2="186.229" y2="190.437" gradientUnits="userSpaceOnUse">
<stop stop-color="#DB3A11"/>
<stop offset="1" stop-color="#C5310B"/>
</linearGradient>
<linearGradient id="paint14_linear_1105_7693" x1="202.542" y1="137.08" x2="186.229" y2="190.437" gradientUnits="userSpaceOnUse">
<stop stop-color="#FF9F54"/>
<stop offset="0.815" stop-color="#FD6D00"/>
<stop offset="0.9999" stop-color="#ED5500"/>
<stop offset="1" stop-color="#D63300"/>
</linearGradient>
<linearGradient id="paint15_linear_1105_7693" x1="227.861" y1="195.192" x2="147.845" y2="144.371" gradientUnits="userSpaceOnUse">
<stop stop-color="#FFBD8A"/>
<stop offset="0.180351" stop-color="#ED895B"/>
<stop offset="1" stop-color="#D3401A"/>
</linearGradient>
<linearGradient id="paint16_linear_1105_7693" x1="94.8272" y1="170" x2="94.8272" y2="168.85" gradientUnits="userSpaceOnUse">
<stop stop-color="#FF9F54"/>
<stop offset="0.815" stop-color="#FD6D00"/>
<stop offset="0.9999" stop-color="#ED5500"/>
<stop offset="1" stop-color="#D63300"/>
</linearGradient>
<linearGradient id="paint17_linear_1105_7693" x1="97.2344" y1="170.703" x2="97.2344" y2="167.709" gradientUnits="userSpaceOnUse">
<stop stop-color="#FF9F54"/>
<stop offset="0.815" stop-color="#FD6D00"/>
<stop offset="0.9999" stop-color="#ED5500"/>
<stop offset="1" stop-color="#D63300"/>
</linearGradient>
<linearGradient id="paint18_linear_1105_7693" x1="93.8119" y1="170.704" x2="93.8119" y2="167.707" gradientUnits="userSpaceOnUse">
<stop stop-color="#FF9F54"/>
<stop offset="0.815" stop-color="#FD6D00"/>
<stop offset="0.9999" stop-color="#ED5500"/>
<stop offset="1" stop-color="#D63300"/>
</linearGradient>
<linearGradient id="paint19_linear_1105_7693" x1="100.625" y1="170.705" x2="100.625" y2="167.711" gradientUnits="userSpaceOnUse">
<stop stop-color="#FF9F54"/>
<stop offset="0.815" stop-color="#FD6D00"/>
<stop offset="0.9999" stop-color="#ED5500"/>
<stop offset="1" stop-color="#D63300"/>
</linearGradient>
<linearGradient id="paint20_linear_1105_7693" x1="105.169" y1="170.705" x2="105.169" y2="167.711" gradientUnits="userSpaceOnUse">
<stop stop-color="#FF9F54"/>
<stop offset="0.815" stop-color="#FD6D00"/>
<stop offset="0.9999" stop-color="#ED5500"/>
<stop offset="1" stop-color="#D63300"/>
</linearGradient>
<linearGradient id="paint21_linear_1105_7693" x1="114.18" y1="170.711" x2="114.18" y2="167.712" gradientUnits="userSpaceOnUse">
<stop stop-color="#FF9F54"/>
<stop offset="0.815" stop-color="#FD6D00"/>
<stop offset="0.9999" stop-color="#ED5500"/>
<stop offset="1" stop-color="#D63300"/>
</linearGradient>
<linearGradient id="paint22_linear_1105_7693" x1="112.134" y1="170.705" x2="112.134" y2="167.711" gradientUnits="userSpaceOnUse">
<stop stop-color="#FF9F54"/>
<stop offset="0.815" stop-color="#FD6D00"/>
<stop offset="0.9999" stop-color="#ED5500"/>
<stop offset="1" stop-color="#D63300"/>
</linearGradient>
<linearGradient id="paint23_linear_1105_7693" x1="109.137" y1="170.705" x2="109.137" y2="167.711" gradientUnits="userSpaceOnUse">
<stop stop-color="#FF9F54"/>
<stop offset="0.815" stop-color="#FD6D00"/>
<stop offset="0.9999" stop-color="#ED5500"/>
<stop offset="1" stop-color="#D63300"/>
</linearGradient>
<linearGradient id="paint24_linear_1105_7693" x1="88.2486" y1="175.223" x2="88.2486" y2="164.205" gradientUnits="userSpaceOnUse">
<stop stop-color="#FF9F54"/>
<stop offset="0.815" stop-color="#FD6D00"/>
<stop offset="0.9999" stop-color="#ED5500"/>
<stop offset="1" stop-color="#D63300"/>
</linearGradient>
</defs>
</svg>
