<svg xmlns:xlink="http://www.w3.org/1999/xlink" xmlns="http://www.w3.org/2000/svg" width="267" height="92" viewBox="0 0 267 92" fill="none">
<path fill-rule="evenodd" clip-rule="evenodd" d="M232.305 34.3538C233.782 35.8664 234.565 38.0288 234.274 40.3969L230.862 68.1882C230.323 72.5736 226.307 76.0036 221.891 75.8494L52.9944 69.9514C50.9633 69.8805 49.2014 69.0635 47.9432 67.7749L51.9111 71.9145C53.1693 73.203 54.9312 74.02 56.9624 74.0909L225.859 79.9889C230.275 80.1431 234.291 76.7131 234.829 72.3278L238.242 44.5365C238.533 42.1684 237.75 40.006 236.273 38.4933L232.305 34.3538Z" fill="#934C14"/>
<g filter="url(#filter0_iiii_1294_5284)">
<path d="M49.3883 33.9404C49.9268 29.555 53.9428 26.125 58.3584 26.2792L227.255 32.1772C231.671 32.3314 234.814 36.0114 234.276 40.3968L230.863 68.1881C230.325 72.5734 226.309 76.0034 221.893 75.8492L52.9962 69.9512C48.5806 69.797 45.4375 66.117 45.976 61.7317L49.3883 33.9404Z" fill="url(#paint0_linear_1294_5284)"/>
</g>
<path d="M50.3877 33.9753C50.8589 30.1381 54.3729 27.1368 58.2365 27.2717L227.134 33.1698C230.997 33.3047 233.747 36.5247 233.276 40.3619L229.864 68.1532C229.393 71.9903 225.878 74.9916 222.015 74.8567L53.118 68.9587C49.2544 68.8238 46.5042 65.6038 46.9754 61.7666L50.3877 33.9753Z" stroke="url(#paint1_linear_1294_5284)" stroke-width="2"/>
<g filter="url(#filter1_dddd_1294_5284)">
<path d="M64.2598 53.5438C62.9897 53.5013 61.9076 53.3096 61.0137 52.9687C60.1257 52.6228 59.4089 52.1738 58.8634 51.6217C58.3238 51.0646 57.9522 50.4276 57.7486 49.7108C57.5457 48.9888 57.4995 48.2305 57.61 47.4361C57.7205 46.6417 57.9759 45.8961 58.3761 45.1995C58.777 44.4977 59.3215 43.8915 60.0097 43.3807C60.7038 42.8649 61.5382 42.4679 62.513 42.1896C63.4938 41.9063 64.6192 41.786 65.8893 41.8285C67.1594 41.8711 68.2385 42.0653 69.1265 42.4112C70.0204 42.7521 70.7372 43.2011 71.2768 43.7582C71.8223 44.3103 72.1966 44.9473 72.3995 45.6693C72.6031 46.3862 72.6496 47.1418 72.5391 47.9363C72.4286 48.7307 72.1729 49.4788 71.772 50.1806C71.3717 50.8772 70.8246 51.4834 70.1305 51.9991C69.4424 52.5099 68.6079 52.9069 67.6272 53.1902C66.6524 53.4685 65.5299 53.5864 64.2598 53.5438ZM64.5708 51.3076C65.4297 51.3363 66.1751 51.2602 66.8069 51.0793C67.4439 50.8985 67.9754 50.6494 68.4013 50.332C68.8331 50.0096 69.1677 49.6347 69.4049 49.2073C69.6429 48.7747 69.7949 48.3211 69.8609 47.8465C69.9262 47.3771 69.9009 46.9202 69.7849 46.4757C69.6689 46.0313 69.4413 45.6376 69.102 45.2945C68.7686 44.9465 68.3114 44.6617 67.7304 44.4401C67.1545 44.2187 66.4372 44.0936 65.5783 44.0648C64.7194 44.036 63.9714 44.112 63.3344 44.2928C62.7026 44.4738 62.1708 44.7255 61.7389 45.0479C61.313 45.3653 60.9811 45.7403 60.7431 46.1728C60.5051 46.6054 60.3535 47.0564 60.2882 47.5258C60.2222 48.0004 60.2471 48.4599 60.3631 48.9043C60.4799 49.3436 60.7049 49.7373 61.0382 50.0853C61.3775 50.4284 61.8351 50.7106 62.4109 50.932C62.992 51.1536 63.7119 51.2788 64.5708 51.3076ZM73.571 49.5412C73.6578 48.917 73.8542 48.3509 74.1602 47.8429C74.4722 47.3299 74.8882 46.8955 75.4083 46.5398C75.9337 46.1842 76.5617 45.9176 77.2924 45.74C78.0291 45.5573 78.8633 45.4816 79.7951 45.5128C80.503 45.5366 81.1001 45.6239 81.5864 45.775C82.0733 45.9209 82.4674 46.0766 82.7687 46.2422C83.1176 46.4404 83.4009 46.6598 83.6184 46.9003L82.1792 48.337C81.9807 48.1852 81.7461 48.0478 81.4756 47.9247C81.2446 47.8185 80.9656 47.7184 80.6388 47.6246C80.3119 47.5307 79.9403 47.4768 79.5238 47.4628C78.972 47.4443 78.4931 47.4853 78.0869 47.5857C77.6807 47.6861 77.3413 47.8328 77.0686 48.0258C76.796 48.2188 76.583 48.4527 76.4298 48.7274C76.2765 49.0021 76.1773 49.302 76.1321 49.627C76.0869 49.952 76.1021 50.2557 76.1779 50.5381C76.2537 50.8205 76.3999 51.0664 76.6166 51.2758C76.8332 51.4852 77.1289 51.6531 77.5035 51.7797C77.8781 51.9063 78.3413 51.9788 78.8931 51.9973C79.3095 52.0112 79.6923 51.9852 80.0414 51.9191C80.3913 51.8479 80.6953 51.7674 80.9536 51.6776C81.2557 51.5737 81.5264 51.4506 81.7659 51.3083L82.794 52.8276C82.5111 53.0566 82.1697 53.255 81.7698 53.423C81.4196 53.572 80.9857 53.7025 80.4681 53.8148C79.9504 53.927 79.335 53.9712 78.6219 53.9473C77.6901 53.916 76.8842 53.788 76.2043 53.5631C75.5303 53.3332 74.9822 53.0246 74.5602 52.6373C74.1434 52.2502 73.8511 51.7947 73.6834 51.2708C73.5216 50.7419 73.4842 50.1654 73.571 49.5412ZM84.5413 45.9051L94.0282 46.2229L93.757 48.1729L90.2589 48.0557L89.4216 54.0758L86.8527 53.9898L87.6901 47.9696L84.2701 47.855L84.5413 45.9051ZM94.1991 51.8182C94.2594 51.3848 94.3898 51.0109 94.5905 50.6963C94.7964 50.3818 95.0627 50.1213 95.3895 49.9145C95.7216 49.708 96.1097 49.55 96.5537 49.4404C97.0037 49.326 97.5004 49.2519 98.0437 49.2183C98.5878 49.1795 99.174 49.1758 99.8024 49.2072C100.437 49.2337 101.104 49.2845 101.805 49.3598C101.829 49.1844 101.829 49.0212 101.803 48.87C101.782 48.719 101.706 48.5869 101.575 48.4737C101.445 48.3605 101.248 48.2684 100.986 48.1974C100.729 48.1266 100.374 48.0836 99.9216 48.0684C99.3958 48.0508 98.913 48.0631 98.4731 48.1054C98.0383 48.1479 97.6601 48.1974 97.3385 48.254C96.9633 48.3192 96.6258 48.396 96.3259 48.4844L95.6607 46.8373C96.0087 46.7039 96.4174 46.5854 96.8868 46.4819C97.2908 46.397 97.7797 46.3227 98.3534 46.259C98.927 46.1952 99.5886 46.176 100.338 46.2011C101.208 46.2302 101.919 46.324 102.472 46.4824C103.025 46.6409 103.452 46.8651 103.751 47.155C104.057 47.4399 104.249 47.791 104.326 48.2082C104.41 48.6205 104.415 49.0974 104.339 49.6391L103.656 54.5527L101.087 54.4667L101.232 53.422C101.092 53.6039 100.925 53.7668 100.733 53.9106C100.545 54.0546 100.319 54.1766 100.054 54.2766C99.7894 54.3765 99.4838 54.4492 99.1376 54.4946C98.7906 54.5452 98.3907 54.5629 97.9378 54.5477C97.36 54.5284 96.8277 54.4639 96.3409 54.3543C95.8541 54.2447 95.4402 54.0805 95.0994 53.8618C94.7637 53.6433 94.5121 53.3653 94.3446 53.028C94.1823 52.6909 94.1338 52.2876 94.1991 51.8182ZM96.7925 51.6718C96.7738 51.806 96.7908 51.9283 96.8434 52.0389C96.896 52.1495 97.0002 52.2463 97.156 52.3293C97.3125 52.4071 97.5259 52.4712 97.796 52.5217C98.0714 52.5724 98.4173 52.6047 98.8337 52.6187C99.2761 52.6335 99.6612 52.6101 99.9887 52.5485C100.316 52.487 100.588 52.3976 100.803 52.2804C101.023 52.1634 101.191 52.0265 101.307 51.8697C101.423 51.7129 101.493 51.5494 101.516 51.3792L101.601 50.7679C100.922 50.7244 100.296 50.6957 99.7228 50.6816C99.1502 50.6624 98.6537 50.6795 98.2331 50.7328C97.8126 50.7861 97.477 50.8863 97.2264 51.0333C96.9759 51.1804 96.8312 51.3933 96.7925 51.6718ZM105.374 54.6103L106.482 46.6401L113.205 46.8653C114.199 46.8987 114.937 47.1022 115.418 47.4759C115.901 47.8445 116.093 48.3821 115.994 49.0889C115.958 49.3468 115.882 49.5749 115.766 49.7731C115.655 49.9664 115.52 50.1328 115.359 50.2726C115.204 50.4073 115.032 50.5156 114.843 50.5974C114.655 50.674 114.467 50.7247 114.281 50.7495C114.55 50.8052 114.778 50.8932 114.966 51.0135C115.158 51.1339 115.31 51.279 115.423 51.4486C115.54 51.6184 115.619 51.8076 115.658 52.0162C115.697 52.2197 115.702 52.4323 115.671 52.6541C115.614 53.0668 115.476 53.4172 115.258 53.7053C115.041 53.9883 114.763 54.2174 114.425 54.3926C114.093 54.5629 113.713 54.6823 113.285 54.7509C112.862 54.8197 112.414 54.8461 111.94 54.8303L105.374 54.6103ZM111.977 52.8724C112.368 52.8855 112.653 52.8484 112.832 52.7611C113.012 52.6687 113.12 52.4987 113.154 52.2511C113.188 52.0034 113.129 51.8304 112.975 51.732C112.822 51.6284 112.551 51.57 112.16 51.557L108.404 51.4311L108.221 52.7466L111.977 52.8724ZM112.386 49.932C112.574 49.9383 112.729 49.9305 112.852 49.9087C112.976 49.8869 113.072 49.8539 113.141 49.8096C113.215 49.7602 113.271 49.7025 113.306 49.6363C113.342 49.5649 113.366 49.4854 113.378 49.3977C113.39 49.31 113.388 49.2322 113.372 49.1643C113.356 49.0912 113.317 49.0303 113.256 48.9816C113.2 48.9279 113.115 48.8862 112.999 48.8564C112.882 48.8266 112.731 48.8085 112.543 48.8022L108.788 48.6764L108.63 49.8062L112.386 49.932ZM124.691 47.2501L127.486 47.3438L126.377 55.3139L123.816 55.2281L124.467 50.5466L119.553 55.0853L116.758 54.9917L117.866 47.0215L120.427 47.1073L119.776 51.7888L124.691 47.2501ZM128.735 47.3856L138.222 47.7035L137.951 49.6534L134.453 49.5362L133.616 55.5564L131.047 55.4703L131.884 49.4502L128.464 49.3356L128.735 47.3856ZM142.056 47.8319L141.74 50.1069L145.183 50.2222C145.792 50.2426 146.314 50.3275 146.748 50.4768C147.183 50.6209 147.531 50.8218 147.794 51.0793C148.061 51.3371 148.243 51.6438 148.34 51.9994C148.442 52.3553 148.463 52.7524 148.402 53.1909C148.341 53.6294 148.211 54.0215 148.011 54.3673C147.816 54.7132 147.551 55.0049 147.214 55.2424C146.883 55.48 146.482 55.6584 146.01 55.7773C145.54 55.8911 145 55.9378 144.391 55.9174L138.371 55.7157L139.479 47.7456L142.056 47.8319ZM144.662 53.9674C145.354 53.9906 145.742 53.703 145.825 53.1046C145.909 52.5062 145.604 52.1954 144.912 52.1722L141.468 52.0568L141.219 53.8521L144.662 53.9674ZM155.167 53.9617C155.437 54.1211 155.832 54.2717 156.351 54.4134C156.876 54.5502 157.557 54.6327 158.395 54.6607C159.166 54.6865 159.73 54.6536 160.088 54.562C160.452 54.4653 160.65 54.2958 160.684 54.0533C160.703 53.9192 160.66 53.8115 160.557 53.7303C160.459 53.6441 160.275 53.5757 160.005 53.5252C159.735 53.4695 159.364 53.4286 158.892 53.4024C158.426 53.3713 157.831 53.3435 157.107 53.3193L157.378 51.3693C158.019 51.3908 158.559 51.4011 158.998 51.4003C159.443 51.3996 159.801 51.3805 160.073 51.343C160.35 51.3056 160.552 51.245 160.679 51.1612C160.81 51.0775 160.886 50.9634 160.907 50.819C160.918 50.7364 160.895 50.6579 160.837 50.5834C160.786 50.5039 160.688 50.4333 160.545 50.3715C160.403 50.3045 160.206 50.2513 159.956 50.2118C159.711 50.1673 159.401 50.1388 159.026 50.1263C158.703 50.1155 158.389 50.123 158.082 50.149C157.775 50.1699 157.488 50.2043 157.22 50.2523C156.953 50.2952 156.709 50.3518 156.49 50.4222C156.277 50.4877 156.098 50.5568 155.952 50.6296L154.905 49.0709C155.295 48.7885 155.855 48.5611 156.585 48.3886C157.316 48.211 158.22 48.1402 159.297 48.1763C159.875 48.1956 160.429 48.2557 160.959 48.3563C161.494 48.4572 161.959 48.6127 162.353 48.8228C162.753 49.028 163.059 49.2948 163.269 49.6232C163.485 49.9517 163.56 50.3533 163.494 50.8279C163.474 50.9723 163.429 51.1237 163.36 51.2821C163.297 51.4355 163.208 51.5854 163.094 51.7318C162.984 51.8785 162.848 52.0138 162.684 52.1379C162.526 52.2622 162.342 52.3623 162.133 52.4382C162.311 52.5064 162.474 52.5999 162.619 52.7188C162.771 52.8327 162.898 52.9691 163.001 53.1281C163.106 53.2819 163.179 53.4527 163.22 53.6407C163.268 53.8237 163.278 54.0158 163.25 54.217C163.185 54.6864 163.018 55.0799 162.749 55.3974C162.48 55.7149 162.123 55.9673 161.678 56.1545C161.239 56.3419 160.719 56.4696 160.119 56.5376C159.518 56.6108 158.853 56.6351 158.124 56.6107C157.036 56.5743 156.117 56.4553 155.365 56.254C154.62 56.0476 154.062 55.7724 153.692 55.4283L155.167 53.9617ZM164.363 54.1688C164.423 53.7354 164.554 53.3615 164.754 53.0469C164.96 52.7324 165.226 52.4719 165.553 52.2651C165.885 52.0586 166.273 51.9006 166.717 51.791C167.167 51.6765 167.664 51.6025 168.207 51.5689C168.752 51.5301 169.338 51.5264 169.966 51.5578C170.601 51.5843 171.268 51.6351 171.969 51.7104C171.993 51.535 171.992 51.3717 171.966 51.2206C171.946 51.0696 171.87 50.9375 171.739 50.8243C171.608 50.711 171.412 50.619 171.15 50.548C170.893 50.4772 170.538 50.4342 170.085 50.419C169.56 50.4014 169.077 50.4137 168.637 50.456C168.202 50.4985 167.824 50.548 167.502 50.6046C167.127 50.6698 166.79 50.7465 166.49 50.835L165.824 49.1879C166.172 49.0545 166.581 48.936 167.051 48.8325C167.455 48.7476 167.943 48.6733 168.517 48.6095C169.091 48.5458 169.752 48.5265 170.502 48.5517C171.371 48.5808 172.083 48.6746 172.636 48.833C173.189 48.9915 173.615 49.2157 173.915 49.5056C174.221 49.7905 174.412 50.1416 174.49 50.5588C174.574 50.9711 174.578 51.448 174.503 51.9897L173.82 56.9033L171.251 56.8172L171.396 55.7726C171.256 55.9545 171.089 56.1174 170.897 56.2612C170.709 56.4052 170.483 56.5272 170.218 56.6272C169.953 56.7271 169.648 56.7998 169.301 56.8452C168.954 56.8958 168.554 56.9135 168.102 56.8983C167.524 56.879 166.991 56.8145 166.505 56.7049C166.018 56.5953 165.604 56.4311 165.263 56.2124C164.927 55.9939 164.676 55.7159 164.508 55.3786C164.346 55.0415 164.298 54.6382 164.363 54.1688ZM166.956 54.0224C166.938 54.1565 166.955 54.2789 167.007 54.3895C167.06 54.5001 167.164 54.5969 167.32 54.6798C167.476 54.7576 167.69 54.8218 167.96 54.8723C168.235 54.923 168.581 54.9553 168.997 54.9693C169.44 54.9841 169.825 54.9607 170.153 54.8991C170.48 54.8376 170.751 54.7482 170.966 54.631C171.187 54.514 171.355 54.3771 171.471 54.2203C171.587 54.0635 171.656 53.9 171.68 53.7298L171.765 53.1185C171.086 53.075 170.46 53.0462 169.887 53.0322C169.314 53.013 168.817 53.0301 168.397 53.0834C167.976 53.1367 167.641 53.2369 167.39 53.3839C167.14 53.531 166.995 53.7439 166.956 54.0224ZM182.783 57.2036L183.137 54.6578L180.178 54.5587L178.028 57.0443L175.225 56.9504L177.636 54.1703C177.457 54.097 177.279 53.9899 177.1 53.8492C176.926 53.7086 176.775 53.5351 176.647 53.3287C176.518 53.1222 176.421 52.8832 176.354 52.6114C176.293 52.3347 176.287 52.0235 176.335 51.6779C176.391 51.2755 176.522 50.9145 176.729 50.5949C176.936 50.2702 177.205 49.9941 177.534 49.7668C177.864 49.5394 178.249 49.3683 178.688 49.2535C179.128 49.1386 179.608 49.0899 180.128 49.1074L186.469 49.3198L185.36 57.2899L182.783 57.2036ZM179.857 51.0574C179.612 51.0492 179.399 51.1197 179.216 51.2691C179.039 51.4135 178.93 51.6301 178.89 51.919C178.85 52.2079 178.897 52.4323 179.032 52.5923C179.172 52.7473 179.365 52.8289 179.61 52.8371L183.373 52.9632L183.621 51.1834L179.857 51.0574ZM187.078 57.3475L188.186 49.3773L194.909 49.6026C195.903 49.6359 196.641 49.8394 197.123 50.2131C197.605 50.5817 197.797 51.1194 197.698 51.8261C197.663 52.084 197.586 52.3121 197.47 52.5103C197.359 52.7036 197.224 52.8701 197.063 53.0098C196.908 53.1445 196.736 53.2528 196.547 53.3346C196.359 53.4112 196.171 53.4619 195.985 53.4868C196.254 53.5424 196.483 53.6304 196.67 53.7507C196.862 53.8712 197.015 54.0162 197.127 54.1858C197.245 54.3556 197.323 54.5448 197.362 54.7534C197.402 54.9569 197.406 55.1695 197.375 55.3913C197.318 55.804 197.18 56.1544 196.962 56.4425C196.745 56.7255 196.467 56.9546 196.129 57.1299C195.797 57.3001 195.417 57.4195 194.989 57.4881C194.566 57.5569 194.118 57.5833 193.644 57.5675L187.078 57.3475ZM193.681 55.6096C194.072 55.6227 194.357 55.5856 194.536 55.4984C194.716 55.4059 194.824 55.2359 194.858 54.9883C194.893 54.7407 194.833 54.5676 194.679 54.4692C194.526 54.3656 194.255 54.3073 193.864 54.2942L190.109 54.1684L189.926 55.4838L193.681 55.6096ZM194.09 52.6692C194.278 52.6755 194.433 52.6677 194.556 52.6459C194.68 52.6242 194.776 52.5911 194.845 52.5468C194.92 52.4975 194.975 52.4397 195.01 52.3735C195.046 52.3022 195.07 52.2226 195.082 52.1349C195.095 52.0472 195.092 51.9694 195.076 51.9015C195.06 51.8284 195.021 51.7675 194.96 51.7188C194.905 51.6651 194.819 51.6234 194.703 51.5936C194.587 51.5638 194.435 51.5457 194.247 51.5395L190.492 51.4136L190.335 52.5434L194.09 52.6692ZM206.075 49.9766L209.518 50.092L204.714 53.2195L208.409 58.0621L205.38 57.9606L202.747 54.4985L201.359 55.4004L201.023 57.8147L198.462 57.7289L199.571 49.7587L202.132 49.8445L201.718 52.8159L206.075 49.9766ZM214.089 60.4836C213.887 60.7722 213.684 61.0297 213.48 61.2561C213.28 61.4878 213.06 61.68 212.819 61.8326C212.583 61.9905 212.315 62.1085 212.017 62.1866C211.718 62.2647 211.371 62.2972 210.976 62.2839C210.611 62.2717 210.295 62.2352 210.026 62.1743C209.757 62.1135 209.531 62.0463 209.348 61.9728C209.134 61.8931 208.954 61.8015 208.806 61.6981L210.247 60.1372C210.32 60.1759 210.402 60.2071 210.493 60.2309C210.568 60.2542 210.654 60.2752 210.75 60.294C210.847 60.3128 210.95 60.324 211.06 60.3276C211.211 60.3327 211.341 60.3138 211.452 60.2708C211.562 60.2279 211.662 60.169 211.751 60.0943C211.84 60.0195 211.92 59.9289 211.993 59.8225C212.07 59.7163 212.154 59.6025 212.244 59.4811L213.102 58.2193L209.83 50.1024L212.532 50.193L214.717 55.6924L218.404 50.3897L221.105 50.4802L214.089 60.4836Z" fill="white"/>
</g>
<g filter="url(#filter2_dddd_1294_5284)">
<mask id="path-5-inside-1_1294_5284" fill="white">
<path fill-rule="evenodd" clip-rule="evenodd" d="M4.94369 40.5747L55.269 41.9944L24.6897 2L23.6288 22.6207L4.44845 11.5469L1 17.5198L20.0089 28.4946L4.94369 40.5747Z"/>
</mask>
<path fill-rule="evenodd" clip-rule="evenodd" d="M4.94369 40.5747L55.269 41.9944L24.6897 2L23.6288 22.6207L4.44845 11.5469L1 17.5198L20.0089 28.4946L4.94369 40.5747Z" fill="black"/>
<path d="M55.269 41.9944L55.2408 42.994L57.3373 43.0532L56.0634 41.3871L55.269 41.9944ZM4.94369 40.5747L4.31811 39.7945L2.1943 41.4975L4.91549 41.5743L4.94369 40.5747ZM24.6897 2L25.4841 1.39261L23.8308 -0.769647L23.691 1.94862L24.6897 2ZM23.6288 22.6207L23.1288 23.4867L24.5435 24.3035L24.6275 22.6721L23.6288 22.6207ZM4.44845 11.5469L4.94845 10.6809L4.08243 10.1809L3.58243 11.0469L4.44845 11.5469ZM1 17.5198L0.133975 17.0198L-0.366025 17.8858L0.5 18.3858L1 17.5198ZM20.0089 28.4946L20.6344 29.2747L21.7754 28.3598L20.5089 27.6285L20.0089 28.4946ZM55.2972 40.9948L4.97189 39.5751L4.91549 41.5743L55.2408 42.994L55.2972 40.9948ZM23.8953 2.60739L54.4746 42.6018L56.0634 41.3871L25.4841 1.39261L23.8953 2.60739ZM24.6275 22.6721L25.6883 2.05138L23.691 1.94862L22.6301 22.5693L24.6275 22.6721ZM3.94845 12.4129L23.1288 23.4867L24.1288 21.7546L4.94845 10.6809L3.94845 12.4129ZM1.86603 18.0198L5.31448 12.0469L3.58243 11.0469L0.133975 17.0198L1.86603 18.0198ZM20.5089 27.6285L1.5 16.6538L0.5 18.3858L19.5089 29.3606L20.5089 27.6285ZM5.56927 41.3548L20.6344 29.2747L19.3833 27.7144L4.31811 39.7945L5.56927 41.3548Z" fill="url(#paint2_linear_1294_5284)" mask="url(#path-5-inside-1_1294_5284)"/>
</g>
<defs>
<filter id="filter0_iiii_1294_5284" x="45.9141" y="26.2744" width="203.422" height="62.5801" filterUnits="userSpaceOnUse" color-interpolation-filters="sRGB">
<feFlood flood-opacity="0" result="BackgroundImageFix"/>
<feBlend mode="normal" in="SourceGraphic" in2="BackgroundImageFix" result="shape"/>
<feColorMatrix in="SourceAlpha" type="matrix" values="0 0 0 0 0 0 0 0 0 0 0 0 0 0 0 0 0 0 127 0" result="hardAlpha"/>
<feOffset dx="2" dy="1"/>
<feGaussianBlur stdDeviation="2.5"/>
<feComposite in2="hardAlpha" operator="arithmetic" k2="-1" k3="1"/>
<feColorMatrix type="matrix" values="0 0 0 0 0.996078 0 0 0 0 0.905882 0 0 0 0 0.882353 0 0 0 0.1 0"/>
<feBlend mode="normal" in2="shape" result="effect1_innerShadow_1294_5284"/>
<feColorMatrix in="SourceAlpha" type="matrix" values="0 0 0 0 0 0 0 0 0 0 0 0 0 0 0 0 0 0 127 0" result="hardAlpha"/>
<feOffset dx="9" dy="3"/>
<feGaussianBlur stdDeviation="4.5"/>
<feComposite in2="hardAlpha" operator="arithmetic" k2="-1" k3="1"/>
<feColorMatrix type="matrix" values="0 0 0 0 0.996078 0 0 0 0 0.905882 0 0 0 0 0.882353 0 0 0 0.09 0"/>
<feBlend mode="normal" in2="effect1_innerShadow_1294_5284" result="effect2_innerShadow_1294_5284"/>
<feColorMatrix in="SourceAlpha" type="matrix" values="0 0 0 0 0 0 0 0 0 0 0 0 0 0 0 0 0 0 127 0" result="hardAlpha"/>
<feOffset dx="19" dy="7"/>
<feGaussianBlur stdDeviation="6"/>
<feComposite in2="hardAlpha" operator="arithmetic" k2="-1" k3="1"/>
<feColorMatrix type="matrix" values="0 0 0 0 0.996078 0 0 0 0 0.905882 0 0 0 0 0.882353 0 0 0 0.05 0"/>
<feBlend mode="normal" in2="effect2_innerShadow_1294_5284" result="effect3_innerShadow_1294_5284"/>
<feColorMatrix in="SourceAlpha" type="matrix" values="0 0 0 0 0 0 0 0 0 0 0 0 0 0 0 0 0 0 127 0" result="hardAlpha"/>
<feOffset dx="35" dy="13"/>
<feGaussianBlur stdDeviation="7.5"/>
<feComposite in2="hardAlpha" operator="arithmetic" k2="-1" k3="1"/>
<feColorMatrix type="matrix" values="0 0 0 0 0.996078 0 0 0 0 0.905882 0 0 0 0 0.882353 0 0 0 0.01 0"/>
<feBlend mode="normal" in2="effect3_innerShadow_1294_5284" result="effect4_innerShadow_1294_5284"/>
</filter>
<filter id="filter1_dddd_1294_5284" x="53.2656" y="36.5781" width="213.316" height="54.9893" filterUnits="userSpaceOnUse" color-interpolation-filters="sRGB">
<feFlood flood-opacity="0" result="BackgroundImageFix"/>
<feColorMatrix in="SourceAlpha" type="matrix" values="0 0 0 0 0 0 0 0 0 0 0 0 0 0 0 0 0 0 127 0" result="hardAlpha"/>
<feOffset dx="2" dy="1"/>
<feGaussianBlur stdDeviation="2.5"/>
<feColorMatrix type="matrix" values="0 0 0 0 0 0 0 0 0 0 0 0 0 0 0 0 0 0 0.1 0"/>
<feBlend mode="normal" in2="BackgroundImageFix" result="effect1_dropShadow_1294_5284"/>
<feColorMatrix in="SourceAlpha" type="matrix" values="0 0 0 0 0 0 0 0 0 0 0 0 0 0 0 0 0 0 127 0" result="hardAlpha"/>
<feOffset dx="8" dy="4"/>
<feGaussianBlur stdDeviation="4.5"/>
<feColorMatrix type="matrix" values="0 0 0 0 0 0 0 0 0 0 0 0 0 0 0 0 0 0 0.09 0"/>
<feBlend mode="normal" in2="effect1_dropShadow_1294_5284" result="effect2_dropShadow_1294_5284"/>
<feColorMatrix in="SourceAlpha" type="matrix" values="0 0 0 0 0 0 0 0 0 0 0 0 0 0 0 0 0 0 127 0" result="hardAlpha"/>
<feOffset dx="17" dy="8"/>
<feGaussianBlur stdDeviation="6"/>
<feColorMatrix type="matrix" values="0 0 0 0 0 0 0 0 0 0 0 0 0 0 0 0 0 0 0.05 0"/>
<feBlend mode="normal" in2="effect2_dropShadow_1294_5284" result="effect3_dropShadow_1294_5284"/>
<feColorMatrix in="SourceAlpha" type="matrix" values="0 0 0 0 0 0 0 0 0 0 0 0 0 0 0 0 0 0 127 0" result="hardAlpha"/>
<feOffset dx="31" dy="15"/>
<feGaussianBlur stdDeviation="7"/>
<feColorMatrix type="matrix" values="0 0 0 0 0 0 0 0 0 0 0 0 0 0 0 0 0 0 0.01 0"/>
<feBlend mode="normal" in2="effect3_dropShadow_1294_5284" result="effect4_dropShadow_1294_5284"/>
<feBlend mode="normal" in="SourceGraphic" in2="effect4_dropShadow_1294_5284" result="shape"/>
</filter>
<filter id="filter2_dddd_1294_5284" x="0" y="0" width="71.2695" height="54.9941" filterUnits="userSpaceOnUse" color-interpolation-filters="sRGB">
<feFlood flood-opacity="0" result="BackgroundImageFix"/>
<feColorMatrix in="SourceAlpha" type="matrix" values="0 0 0 0 0 0 0 0 0 0 0 0 0 0 0 0 0 0 127 0" result="hardAlpha"/>
<feOffset dx="1"/>
<feGaussianBlur stdDeviation="1"/>
<feColorMatrix type="matrix" values="0 0 0 0 0 0 0 0 0 0 0 0 0 0 0 0 0 0 0.1 0"/>
<feBlend mode="normal" in2="BackgroundImageFix" result="effect1_dropShadow_1294_5284"/>
<feColorMatrix in="SourceAlpha" type="matrix" values="0 0 0 0 0 0 0 0 0 0 0 0 0 0 0 0 0 0 127 0" result="hardAlpha"/>
<feOffset dx="3" dy="2"/>
<feGaussianBlur stdDeviation="1.5"/>
<feColorMatrix type="matrix" values="0 0 0 0 0 0 0 0 0 0 0 0 0 0 0 0 0 0 0.09 0"/>
<feBlend mode="normal" in2="effect1_dropShadow_1294_5284" result="effect2_dropShadow_1294_5284"/>
<feColorMatrix in="SourceAlpha" type="matrix" values="0 0 0 0 0 0 0 0 0 0 0 0 0 0 0 0 0 0 127 0" result="hardAlpha"/>
<feOffset dx="6" dy="4"/>
<feGaussianBlur stdDeviation="2"/>
<feColorMatrix type="matrix" values="0 0 0 0 0 0 0 0 0 0 0 0 0 0 0 0 0 0 0.05 0"/>
<feBlend mode="normal" in2="effect2_dropShadow_1294_5284" result="effect3_dropShadow_1294_5284"/>
<feColorMatrix in="SourceAlpha" type="matrix" values="0 0 0 0 0 0 0 0 0 0 0 0 0 0 0 0 0 0 127 0" result="hardAlpha"/>
<feOffset dx="11" dy="8"/>
<feGaussianBlur stdDeviation="2.5"/>
<feColorMatrix type="matrix" values="0 0 0 0 0 0 0 0 0 0 0 0 0 0 0 0 0 0 0.01 0"/>
<feBlend mode="normal" in2="effect3_dropShadow_1294_5284" result="effect4_dropShadow_1294_5284"/>
<feBlend mode="normal" in="SourceGraphic" in2="effect4_dropShadow_1294_5284" result="shape"/>
</filter>
<linearGradient id="paint0_linear_1294_5284" x1="142.807" y1="29.2282" x2="141.277" y2="73.0341" gradientUnits="userSpaceOnUse">
<stop stop-color="#FD6D00"/>
<stop offset="0.9999" stop-color="#ED5500"/>
<stop offset="1" stop-color="#D63300"/>
</linearGradient>
<linearGradient id="paint1_linear_1294_5284" x1="47.4384" y1="49.8211" x2="220.945" y2="73.6186" gradientUnits="userSpaceOnUse">
<stop stop-color="#EDB08D" stop-opacity="0"/>
<stop offset="1" stop-color="#F09852" stop-opacity="0.91"/>
</linearGradient>
<linearGradient id="paint2_linear_1294_5284" x1="61.0039" y1="42.002" x2="-2.44815" y2="10.2756" gradientUnits="userSpaceOnUse">
<stop stop-color="#B3B3B3"/>
<stop offset="1" stop-color="#666666" stop-opacity="0.09"/>
</linearGradient>
</defs>
</svg>