<svg xmlns:xlink="http://www.w3.org/1999/xlink" xmlns="http://www.w3.org/2000/svg" width="32" height="20" viewBox="0 0 32 20" fill="none">
<path d="M18.9999 8.12359V2.57964C18.9999 1.33015 18.7734 1.07965 17.53 1.07965L14.005 1.00015C12.907 1.00015 12.358 1.00015 12.136 1.35565C11.914 1.71115 12.16 2.19864 12.6505 3.17063C12.9235 3.71063 13.0705 4.10213 13.0705 4.70812V8.69809C13.0705 9.95808 13.0705 10.5896 12.5905 10.7771C12.1105 10.9631 11.713 10.5401 10.915 9.69408C8.965 7.6181 7.94801 5.02612 7.28051 2.20014C7.14251 1.61515 7.07351 1.32265 6.86651 1.16065C6.65951 0.998651 6.36402 1.00015 5.77602 1.00015H2.47604C1.75304 1.00015 1.39155 1.00015 1.16505 1.25515C0.940048 1.51165 0.983548 1.83864 1.07055 2.49114C1.86254 8.38159 7.04201 18.04 16.6105 18.961C18.3054 19.123 18.9999 18.6655 18.9999 16.8085C18.9999 15.7555 18.9774 14.0545 20.3019 13.831C20.9964 13.714 21.4629 13.9615 22.2384 14.611C23.5824 15.739 24.2874 17.116 24.7779 18.1615C25.1034 18.8545 25.3449 19 26.1099 19H29.2209C30.7929 19 31.2204 18.616 30.5199 17.14C29.7282 15.4847 28.6074 14.0082 27.2259 12.8006C26.2719 11.9801 25.7964 11.5706 25.7709 11.2676C25.7424 10.9661 26.0919 10.5386 26.7909 9.68358C28.1409 8.03059 29.9799 5.43711 30.8379 2.68464C31.2639 1.31965 30.8634 1.00015 29.4819 1.00015H26.6874C25.3329 1.00015 25.3344 0.953652 25.0149 2.48964C24.4959 4.98112 22.7979 7.3766 21.2019 9.00708C20.4444 9.78108 19.9869 10.2476 19.5144 10.0571C19.0419 9.86658 18.9999 9.28758 18.9999 8.12359Z" stroke="white" stroke-width="2" stroke-linecap="round" stroke-linejoin="round"/>
</svg>