<svg preserveAspectRatio="none" width="1198" height="637" viewBox="0 0 1198 637" fill="none" xmlns="http://www.w3.org/2000/svg">
<mask id="path-1-outside-1_1377_7326" maskUnits="userSpaceOnUse" x="0" y="0" width="1198" height="637" fill="black">
<rect fill="white" width="1198" height="637"/>
<path fill-rule="evenodd" clip-rule="evenodd" d="M846.762 26.3993C843.752 30.5453 838.938 32.999 833.815 32.999H369.279C364.422 32.999 359.827 30.7924 356.791 27.0011L341.571 7.99796C338.535 4.20662 333.94 2 329.083 2H18C9.16344 2 2 9.16346 2 18V619C2 627.837 9.16342 635 18 635H1180C1188.84 635 1196 627.837 1196 619V18C1196 9.16344 1188.84 2 1180 2H872.633C867.509 2 862.696 4.45368 859.685 8.59971L846.762 26.3993Z"/>
</mask>
<path fill-rule="evenodd" clip-rule="evenodd" d="M846.762 26.3993C843.752 30.5453 838.938 32.999 833.815 32.999H369.279C364.422 32.999 359.827 30.7924 356.791 27.0011L341.571 7.99796C338.535 4.20662 333.94 2 329.083 2H18C9.16344 2 2 9.16346 2 18V619C2 627.837 9.16342 635 18 635H1180C1188.84 635 1196 627.837 1196 619V18C1196 9.16344 1188.84 2 1180 2H872.633C867.509 2 862.696 4.45368 859.685 8.59971L846.762 26.3993Z" fill="black"/>
<path d="M859.685 8.59971L858.067 7.42467L859.685 8.59971ZM341.571 7.99796L340.01 9.24821L341.571 7.99796ZM846.762 26.3993L848.381 27.5743L846.762 26.3993ZM356.791 27.0011L358.352 25.7508L356.791 27.0011ZM369.279 34.999H833.815V30.999H369.279V34.999ZM340.01 9.24821L355.23 28.2513L358.352 25.7508L343.132 6.7477L340.01 9.24821ZM18 4H329.083V0H18V4ZM4 619V18H0V619H4ZM1180 633H18V637H1180V633ZM1194 18V619H1198V18H1194ZM872.633 4H1180V0H872.633V4ZM848.381 27.5743L861.304 9.77474L858.067 7.42467L845.144 25.2243L848.381 27.5743ZM872.633 0C866.869 0 861.453 2.76039 858.067 7.42467L861.304 9.77474C863.938 6.14697 868.15 4 872.633 4V0ZM1198 18C1198 8.05888 1189.94 0 1180 0V4C1187.73 4 1194 10.268 1194 18H1198ZM1180 637C1189.94 637 1198 628.941 1198 619H1194C1194 626.732 1187.73 633 1180 633V637ZM0 619C0 628.941 8.05885 637 18 637V633C10.268 633 4 626.732 4 619H0ZM18 0C8.05887 0 0 8.05889 0 18H4C4 10.268 10.268 4 18 4V0ZM343.132 6.7477C339.716 2.48245 334.547 0 329.083 0V4C333.333 4 337.353 5.93079 340.01 9.24821L343.132 6.7477ZM833.815 34.999C839.579 34.999 844.994 32.2386 848.381 27.5743L845.144 25.2243C842.51 28.8521 838.298 30.999 833.815 30.999V34.999ZM369.279 30.999C365.029 30.999 361.009 29.0682 358.352 25.7508L355.23 28.2513C358.646 32.5166 363.815 34.999 369.279 34.999V30.999Z" fill="white" mask="url(#path-1-outside-1_1377_7326)"/>
</svg>
