<svg width="964" height="637" viewBox="0 0 964 637" fill="none" xmlns="http://www.w3.org/2000/svg">
<mask id="path-1-outside-1_1545_8573" maskUnits="userSpaceOnUse" x="0" y="0" width="964" height="637" fill="black">
<rect fill="white" width="964" height="637"/>
<path fill-rule="evenodd" clip-rule="evenodd" d="M681.986 25.0662C679.118 29.9793 673.857 33 668.168 33H299.85C294.41 33 289.343 30.2361 286.398 25.6625L275.885 9.33751C272.94 4.7639 267.873 2 262.433 2H18C9.16344 2 2 9.16346 2 18V619C2 627.837 9.16343 635 18 635H946C954.837 635 962 627.837 962 619V18C962 9.16344 954.837 2 946 2H704.637C698.948 2 693.687 5.0207 690.819 9.93376L681.986 25.0662Z"/>
</mask>
<path fill-rule="evenodd" clip-rule="evenodd" d="M681.986 25.0662C679.118 29.9793 673.857 33 668.168 33H299.85C294.41 33 289.343 30.2361 286.398 25.6625L275.885 9.33751C272.94 4.7639 267.873 2 262.433 2H18C9.16344 2 2 9.16346 2 18V619C2 627.837 9.16343 635 18 635H946C954.837 635 962 627.837 962 619V18C962 9.16344 954.837 2 946 2H704.637C698.948 2 693.687 5.0207 690.819 9.93376L681.986 25.0662Z" fill="black"/>
<path d="M690.819 9.93376L692.547 10.942L690.819 9.93376ZM681.986 25.0662L680.259 24.058L681.986 25.0662ZM286.398 25.6625L284.716 26.7453L286.398 25.6625ZM299.85 35H668.168V31H299.85V35ZM274.204 10.4203L284.716 26.7453L288.079 24.5797L277.567 8.2547L274.204 10.4203ZM18 4H262.433V0H18V4ZM4 619V18H0V619H4ZM946 633H18V637H946V633ZM960 18V619H964V18H960ZM704.637 4H946V0H704.637V4ZM683.713 26.0745L692.547 10.942L689.092 8.92548L680.259 24.058L683.713 26.0745ZM704.637 0C698.237 0 692.319 3.39829 689.092 8.92548L692.547 10.942C695.056 6.64312 699.66 4 704.637 4V0ZM964 18C964 8.05888 955.941 0 946 0V4C953.732 4 960 10.268 960 18H964ZM946 637C955.941 637 964 628.941 964 619H960C960 626.732 953.732 633 946 633V637ZM0 619C0 628.941 8.05886 637 18 637V633C10.268 633 4 626.732 4 619H0ZM18 0C8.05887 0 0 8.05889 0 18H4C4 10.268 10.268 4 18 4V0ZM277.567 8.2547C274.253 3.10939 268.553 0 262.433 0V4C267.193 4 271.627 6.41841 274.204 10.4203L277.567 8.2547ZM668.168 35C674.568 35 680.487 31.6017 683.713 26.0745L680.259 24.058C677.749 28.3569 673.146 31 668.168 31V35ZM299.85 31C295.09 31 290.656 28.5816 288.079 24.5797L284.716 26.7453C288.029 31.8906 293.73 35 299.85 35V31Z" fill="white" mask="url(#path-1-outside-1_1545_8573)"/>
</svg>
