<svg width="644" height="637" viewBox="0 0 644 637" fill="none" xmlns="http://www.w3.org/2000/svg">
<mask id="path-1-outside-1_1545_8845" maskUnits="userSpaceOnUse" x="0" y="0" width="644" height="637" fill="black">
<rect fill="white" width="644" height="637"/>
<path fill-rule="evenodd" clip-rule="evenodd" d="M456.204 22.8027C453.812 28.9508 447.891 33 441.294 33H205.291C198.894 33 193.112 29.1899 190.589 23.3117L185.599 11.6883C183.075 5.81015 177.293 2 170.896 2H18C9.16344 2 2 9.16346 2 18V619C2 627.837 9.16343 635 18 635H626C634.837 635 642 627.837 642 619V18C642 9.16344 634.837 2 626 2H475.242C468.645 2 462.724 6.04921 460.331 12.1973L456.204 22.8027Z"/>
</mask>
<path fill-rule="evenodd" clip-rule="evenodd" d="M456.204 22.8027C453.812 28.9508 447.891 33 441.294 33H205.291C198.894 33 193.112 29.1899 190.589 23.3117L185.599 11.6883C183.075 5.81015 177.293 2 170.896 2H18C9.16344 2 2 9.16346 2 18V619C2 627.837 9.16343 635 18 635H626C634.837 635 642 627.837 642 619V18C642 9.16344 634.837 2 626 2H475.242C468.645 2 462.724 6.04921 460.331 12.1973L456.204 22.8027Z" fill="black"/>
<path d="M185.599 11.6883L183.761 12.4772L185.599 11.6883ZM456.204 22.8027L454.34 22.0774L456.204 22.8027ZM205.291 35H441.294V31H205.291V35ZM183.761 12.4772L188.751 24.1007L192.427 22.5228L187.437 10.8993L183.761 12.4772ZM18 4H170.896V0H18V4ZM4 619V18H0V619H4ZM626 633H18V637H626V633ZM640 18V619H644V18H640ZM475.242 4H626V0H475.242V4ZM458.068 23.5281L462.195 12.9226L458.468 11.4719L454.34 22.0774L458.068 23.5281ZM475.242 0C467.82 0 461.159 4.55536 458.468 11.4719L462.195 12.9226C464.289 7.54306 469.47 4 475.242 4V0ZM644 18C644 8.05888 635.941 0 626 0V4C633.732 4 640 10.268 640 18H644ZM626 637C635.941 637 644 628.941 644 619H640C640 626.732 633.732 633 626 633V637ZM0 619C0 628.941 8.05886 637 18 637V633C10.268 633 4 626.732 4 619H0ZM18 0C8.05887 0 0 8.05889 0 18H4C4 10.268 10.268 4 18 4V0ZM187.437 10.8993C184.598 4.28642 178.093 0 170.896 0V4C176.494 4 181.553 7.33388 183.761 12.4772L187.437 10.8993ZM441.294 35C448.715 35 455.376 30.4446 458.068 23.5281L454.34 22.0774C452.247 27.4569 447.066 31 441.294 31V35ZM205.291 31C199.694 31 194.635 27.6661 192.427 22.5228L188.751 24.1007C191.59 30.7136 198.095 35 205.291 35V31Z" fill="white" mask="url(#path-1-outside-1_1545_8845)"/>
</svg>
