<svg xmlns:xlink="http://www.w3.org/1999/xlink" xmlns="http://www.w3.org/2000/svg" width="30" height="26" viewBox="0 0 30 26" fill="none">
<path fill-rule="evenodd" clip-rule="evenodd" d="M26.8925 0.318986C27.2614 0.163219 27.6651 0.109496 28.0617 0.163408C28.4582 0.21732 28.8332 0.376897 29.1474 0.625529C29.4617 0.874161 29.7037 1.20276 29.8485 1.57712C29.9932 1.95148 30.0353 2.35792 29.9703 2.75413L26.585 23.357C26.2566 25.3444 24.0834 26.4841 22.2669 25.4942C20.7474 24.666 18.4905 23.39 16.4605 22.0586C15.4455 21.3922 12.3364 19.258 12.7185 17.7394C13.0469 16.441 18.2711 11.5617 21.2563 8.66079C22.4281 7.52109 21.8937 6.86363 20.51 7.91198C17.074 10.5149 11.5573 14.4731 9.73326 15.5873C8.12421 16.5698 7.28535 16.7375 6.2823 16.5698C4.45234 16.2643 2.75522 15.791 1.37007 15.2144C-0.50169 14.4357 -0.41064 11.8537 1.36857 11.1019L26.8925 0.318986Z" fill="white"/>
</svg>