<svg width="60" height="53" viewBox="0 0 60 53" fill="none" xmlns="http://www.w3.org/2000/svg">
<path fill-rule="evenodd" clip-rule="evenodd" d="M20.2072 26.5004L43.0718 49.9124C43.6738 50.5288 43.6738 51.5281 43.0718 52.1444C42.4699 52.7608 41.494 52.7608 40.892 52.1444L16.9376 27.6166C16.5014 27.1699 16.3813 26.5221 16.5773 25.9647C16.6518 25.7528 16.7719 25.554 16.9378 25.3842L40.8922 0.856308C41.4941 0.239967 42.4701 0.239967 43.072 0.856308C43.6739 1.47265 43.6739 2.47194 43.072 3.08828L20.2072 26.5004Z" fill="red"/>
<path fill-rule="evenodd" clip-rule="evenodd" d="M3.71499 26.5004L26.5797 49.9124C27.1816 50.5288 27.1816 51.5281 26.5797 52.1444C25.9777 52.7608 25.0018 52.7608 24.3999 52.1444L0.445434 27.6166C0.0092117 27.1699 -0.110881 26.5221 0.0851567 25.9647C0.159616 25.7528 0.279758 25.554 0.445579 25.3842L24.4 0.856308C25.0019 0.239967 25.9779 0.239967 26.5798 0.856308C27.1817 1.47265 27.1817 2.47194 26.5798 3.08828L3.71499 26.5004Z" fill="red"/>
<path fill-rule="evenodd" clip-rule="evenodd" d="M36.6837 26.5004L59.5484 49.9124C60.1503 50.5288 60.1503 51.5281 59.5484 52.1444C58.9465 52.7608 57.9705 52.7608 57.3686 52.1444L33.4142 27.6166C32.978 27.1699 32.8579 26.5221 33.0539 25.9647C33.1284 25.7528 33.2485 25.554 33.4143 25.3842L57.3688 0.856308C57.9707 0.239967 58.9466 0.239967 59.5486 0.856308C60.1505 1.47265 60.1505 2.47194 59.5486 3.08828L36.6837 26.5004Z" fill="red"/>
</svg>
